<?xml version="1.0" encoding="utf-8"?>
<!-- Generator: Adobe Illustrator 24.1.0, SVG Export Plug-In . SVG Version: 6.00 Build 0)  -->
<svg version="1.1" id="Livello_1" xmlns="http://www.w3.org/2000/svg" xmlns:xlink="http://www.w3.org/1999/xlink" x="0px" y="0px"
	 viewBox="0 0 150 150" style="enable-background:new 0 0 150 150;" xml:space="preserve">
<style type="text/css">
	.st0{fill:#0D7FC2;}
	.st1{fill:#5AB1E4;}
	.st2{fill:#2096DD;}
	.st3{fill:#264C60;}
	.st4{fill:#1773AB;}
	.st5{fill:#C6C6C5;}
	.st6{fill:#A4E1FF;}
	.st7{fill:#C6D4BF;}
	.st8{fill:#D6DEC9;}
	.st9{fill:#DEDCC9;}
	.st10{fill:#D4CFBF;}
	.st11{fill:#DBDBDB;}
	.st12{fill:#7A7A6F;}
	.st13{fill:#FFFFFF;}
	.st14{fill:#6D6379;}
	.st15{fill:#132B46;}
	.st16{fill:#6F6F6E;}
	.st17{fill:none;stroke:#000000;stroke-miterlimit:10;}
	.st18{fill:none;stroke:#000000;}
	.st19{fill:#E1F8FF;}
	.st20{fill:#0080C9;}
</style>
<g>
	<path class="st20" d="M59.3,25c-9.33,0-16.92,7.59-16.92,16.92c0,9.18,7.34,16.66,16.46,16.91v14.53h-1.85
		c-2.26,0-4.1,1.84-4.1,4.1V125h12.77V77.47c0-2.26-1.84-4.1-4.1-4.1h-2.03V58.84c9.22-0.13,16.68-7.67,16.68-16.92
		C76.22,32.59,68.63,25,59.3,25z M53.6,106.96h11.36v5.31H53.6V106.96z M64.96,77.47v28.79H53.6V77.47c0-0.2,0.03-0.39,0.06-0.58
		h11.25C64.94,77.07,64.96,77.27,64.96,77.47z M53.6,124.3v-11.32h11.36v11.32H53.6z M64.71,76.18H53.86
		c0.51-1.24,1.72-2.11,3.14-2.11h4.57C62.99,74.07,64.2,74.94,64.71,76.18z M59.3,58.14c-8.94,0-16.22-7.28-16.22-16.22
		c0-8.94,7.28-16.22,16.22-16.22c8.94,0,16.22,7.28,16.22,16.22C75.52,50.86,68.24,58.14,59.3,58.14z"/>
	<path class="st20" d="M46.85,38.52l0.68,0.19c1.44-5.29,6.28-8.98,11.77-8.98v-0.7C53.5,29.02,48.38,32.93,46.85,38.52z"/>
	<path class="st20" d="M47.26,43.85l-0.7,0.11c0.53,3.36,2.34,6.33,5.09,8.36l0.42-0.57C49.47,49.83,47.76,47.02,47.26,43.85z"/>
	<path class="st20" d="M103.52,73.37h-2.47V58.36l-14.41-16.4l14.89-16.31l-0.52-0.47L85.7,41.95l14.65,16.68v14.74h-1.41
		c-2.26,0-4.1,1.84-4.1,4.1V125h12.77V77.47C107.62,75.2,105.78,73.37,103.52,73.37z M95.55,106.96h11.37v5.31H95.55V106.96z
		 M95.61,76.89h11.25c0.03,0.19,0.06,0.38,0.06,0.58v28.79H95.55V77.47C95.55,77.27,95.58,77.07,95.61,76.89z M98.95,74.07h4.57
		c1.42,0,2.63,0.88,3.14,2.11H95.81C96.31,74.94,97.53,74.07,98.95,74.07z M95.55,124.3v-11.32h11.37v11.32H95.55z"/>
</g>
</svg>
