<?xml version="1.0" encoding="utf-8"?>
<!-- Generator: Adobe Illustrator 24.1.0, SVG Export Plug-In . SVG Version: 6.00 Build 0)  -->
<svg version="1.1" id="Livello_1" xmlns="http://www.w3.org/2000/svg" xmlns:xlink="http://www.w3.org/1999/xlink" x="0px" y="0px"
	 viewBox="0 0 150 150" style="enable-background:new 0 0 150 150;" xml:space="preserve">
<style type="text/css">
	.st0{fill:#0D7FC2;}
	.st1{fill:#5AB1E4;}
	.st2{fill:#2096DD;}
	.st3{fill:#264C60;}
	.st4{fill:#1773AB;}
	.st5{fill:#C6C6C5;}
	.st6{fill:#A4E1FF;}
	.st7{fill:#C6D4BF;}
	.st8{fill:#D6DEC9;}
	.st9{fill:#DEDCC9;}
	.st10{fill:#D4CFBF;}
	.st11{fill:#DBDBDB;}
	.st12{fill:#7A7A6F;}
	.st13{fill:#FFFFFF;}
	.st14{fill:#6D6379;}
	.st15{fill:#132B46;}
	.st16{fill:#6F6F6E;}
	.st17{fill:none;stroke:#000000;stroke-miterlimit:10;}
	.st18{fill:none;stroke:#000000;}
	.st19{fill:#E1F8FF;}
	.st20{fill:#0080C9;}
</style>
<path class="st20" d="M83.65,25c-2.95,0-5.86,0.45-8.66,1.33c-5.49-1.72-11.39-1.75-16.76-0.17l-0.54,0.16l0.39,0.41
	c2.6,2.79,2.62,7.18,0.05,10.01c-2.48,2.73-6.64,3.21-9.68,1.1l-2.13-1.48l1.67,1.99c2.36,2.82,2.27,7-0.21,9.72
	c-2.42,2.66-6.38,3.2-9.42,1.28l-0.45-0.29l-0.08,0.53c-0.21,1.38-0.31,2.8-0.31,4.22c0,1.1,0.07,2.22,0.2,3.33
	c0.13,1.13,0.34,2.26,0.61,3.36c0.26,1.07,0.59,2.14,1,3.25c0.4,1.06,0.86,2.1,1.37,3.1c0.53,1.02,1.1,2.01,1.72,2.94
	c1.28,1.92,2.86,3.6,4.39,5.23c1.23,1.31,2.5,2.66,3.6,4.12c0.55,0.74,0.93,1.45,1.16,2.19c0.26,0.85,0.32,1.77,0.18,2.76
	c-0.29,2.13-0.46,9.61,0.96,17.91c1.22,7.13,3.96,16.8,10.13,22.42l0.64,0.58l-0.05-0.86c-0.01-0.22-1.26-21.75,5.82-29.28
	c1.6-1.7,3.53-2.57,5.74-2.57c2.21,0,4.14,0.86,5.74,2.57c7.08,7.53,5.83,29.07,5.82,29.29L86.51,125l0.64-0.58
	c6.17-5.62,8.91-15.29,10.13-22.42c1.42-8.3,1.25-15.77,0.96-17.91c-0.43-3.1,1.84-5.62,3.85-7.84l0.46-0.51
	c2.66-2.97,5.19-5.92,6.92-9.36c1.97-3.92,3.01-8.26,3.01-12.57C112.47,37.93,99.54,25,83.65,25z M108.84,66.07
	c-1.69,3.36-4.19,6.27-6.82,9.21l-0.46,0.51c-2.11,2.33-4.5,4.98-4.02,8.41c0.76,5.5,0.05,28.86-10.24,39.12
	c0.07-1.8,0.16-6.17-0.27-11.05c-0.76-8.6-2.71-14.61-5.77-17.88c-1.74-1.85-3.84-2.79-6.25-2.79s-4.51,0.94-6.25,2.79
	c-3.07,3.27-5.01,9.28-5.77,17.88c-0.43,4.88-0.34,9.25-0.27,11.05c-10.29-10.26-11-33.62-10.24-39.12c0.15-1.08,0.09-2.11-0.2-3.06
	c-0.25-0.81-0.66-1.6-1.27-2.4c-1.12-1.49-2.41-2.86-3.65-4.18c-1.51-1.61-3.07-3.27-4.32-5.14c-0.6-0.91-1.17-1.87-1.68-2.87
	c-0.5-0.98-0.95-2-1.34-3.03c-0.4-1.09-0.72-2.13-0.98-3.18c-0.27-1.07-0.47-2.17-0.6-3.28c-0.13-1.08-0.2-2.18-0.2-3.25
	c0-1.21,0.08-2.42,0.23-3.6c3.25,1.77,7.31,1.11,9.85-1.67c2.37-2.6,2.74-6.4,1.09-9.38c3.12,1.38,6.89,0.65,9.26-1.96
	c2.69-2.95,2.78-7.47,0.31-10.53c5.13-1.4,10.72-1.3,15.93,0.35l0,0c2.84,0.91,5.51,2.25,7.93,4.01c2.1,1.53,3.99,3.34,5.6,5.38
	l0.55-0.43c-1.65-2.09-3.58-3.94-5.73-5.51c-2.19-1.58-4.57-2.84-7.09-3.75c2.44-0.68,4.96-1.02,7.51-1.02
	c15.5,0,28.12,12.61,28.12,28.12C111.77,58.01,110.76,62.25,108.84,66.07z"/>
</svg>
