<?xml version="1.0" encoding="utf-8"?>
<!-- Generator: Adobe Illustrator 24.1.0, SVG Export Plug-In . SVG Version: 6.00 Build 0)  -->
<svg version="1.1" id="Livello_1" xmlns="http://www.w3.org/2000/svg" xmlns:xlink="http://www.w3.org/1999/xlink" x="0px" y="0px"
	 viewBox="0 0 150 150" style="enable-background:new 0 0 150 150;" xml:space="preserve">
<style type="text/css">
	.st0{fill:#0D7FC2;}
	.st1{fill:#5AB1E4;}
	.st2{fill:#2096DD;}
	.st3{fill:#264C60;}
	.st4{fill:#1773AB;}
	.st5{fill:#C6C6C5;}
	.st6{fill:#A4E1FF;}
	.st7{fill:#C6D4BF;}
	.st8{fill:#D6DEC9;}
	.st9{fill:#DEDCC9;}
	.st10{fill:#D4CFBF;}
	.st11{fill:#DBDBDB;}
	.st12{fill:#7A7A6F;}
	.st13{fill:#FFFFFF;}
	.st14{fill:#6D6379;}
	.st15{fill:#132B46;}
	.st16{fill:#6F6F6E;}
	.st17{fill:none;stroke:#000000;stroke-miterlimit:10;}
	.st18{fill:none;stroke:#000000;}
	.st19{fill:#E1F8FF;}
	.st20{fill:#0080C9;}
	.st21{display:none;fill:none;stroke:#000000;}
</style>
<path class="st20" d="M83.72,25c-2.97,0-5.91,0.45-8.72,1.33C72.16,25.45,69.23,25,66.28,25c-16.01,0-29.03,13.02-29.03,29.02
	c0,1.07,0.07,2.2,0.2,3.36c0.13,1.09,0.34,2.23,0.62,3.39c0.27,1.1,0.62,2.2,1.02,3.27c0.4,1.06,0.86,2.12,1.38,3.13
	c0.51,0.98,1.09,1.98,1.73,2.96c1.29,1.93,2.88,3.63,4.42,5.27c1.24,1.32,2.53,2.68,3.63,4.16c0.43,0.58,0.72,1.08,0.93,1.58
	c0.05,3.94,3.26,7.13,7.22,7.13h3.35v6.54l-1.83,0.18l0.07,0.7l1.76-0.17v6.1l-1.83,0.18l0.07,0.7l1.76-0.17v6.09l-1.83,0.18
	l0.07,0.7l1.76-0.17v6.09l-1.83,0.18l0.07,0.7l2-0.2L75,125l13.24-9.28v-2.41l1.83-0.18l-0.07-0.7l-1.76,0.17v-6.09l1.83-0.18
	l-0.07-0.7l-1.76,0.17v-6.1l1.83-0.18l-0.07-0.7l-1.76,0.17v-6.1l1.83-0.18l-0.07-0.7l-1.76,0.17v-3.94h3.49
	c3.95,0,7.17-3.19,7.22-7.13c0.76-1.68,2.14-3.21,3.37-4.56l0.42-0.46c2.67-2.98,5.21-5.94,6.97-9.43
	c1.99-3.95,3.04-8.32,3.04-12.66C112.75,38.02,99.73,25,83.72,25z M69.1,120.01h11.8l-5.9,4.13L69.1,120.01z M87.54,115.36
	l-5.64,3.95H68.1l-5.03-3.52l24.48-2.4V115.36z M87.54,112.67l-25.09,2.46v-6.09l25.09-2.46V112.67z M87.54,105.88l-25.09,2.46
	v-6.09l25.09-2.47V105.88z M87.54,99.08l-25.09,2.47v-6.1l25.09-2.46V99.08z M87.54,92.28l-25.09,2.46v-6.47h25.09V92.28z
	 M91.74,87.57H58.41c-3.48,0-6.32-2.74-6.5-6.17h46.34C98.06,84.83,95.21,87.57,91.74,87.57z M109.09,66.37
	c-1.72,3.41-4.23,6.34-6.87,9.28l-0.42,0.46c-1.23,1.35-2.61,2.87-3.42,4.59H51.77c-0.23-0.5-0.53-1-0.95-1.56
	c-1.13-1.5-2.43-2.88-3.68-4.22c-1.52-1.62-3.1-3.29-4.35-5.18c-0.63-0.96-1.2-1.93-1.69-2.89c-0.51-0.99-0.96-2.02-1.35-3.06
	c-0.39-1.05-0.72-2.12-0.99-3.19c-0.27-1.12-0.47-2.23-0.6-3.3c-0.13-1.13-0.2-2.23-0.2-3.28c0-15.62,12.71-28.32,28.33-28.32
	c2.91,0,5.81,0.45,8.61,1.33v0c2.86,0.91,5.55,2.27,7.98,4.04c2.12,1.54,4.02,3.36,5.65,5.41l0.55-0.44
	c-1.66-2.1-3.61-3.97-5.78-5.55c-2.2-1.59-4.6-2.84-7.14-3.76c2.46-0.68,4.99-1.04,7.57-1.04c15.62,0,28.33,12.71,28.33,28.32
	C112.05,58.25,111.03,62.52,109.09,66.37z"/>
</svg>
