<?xml version="1.0" encoding="utf-8"?>
<!-- Generator: Adobe Illustrator 24.1.0, SVG Export Plug-In . SVG Version: 6.00 Build 0)  -->
<svg version="1.1" id="Livello_1" xmlns="http://www.w3.org/2000/svg" xmlns:xlink="http://www.w3.org/1999/xlink" x="0px" y="0px"
	 viewBox="0 0 150 150" style="enable-background:new 0 0 150 150;" xml:space="preserve">
<style type="text/css">
	.st0{fill:#0D7FC2;}
	.st1{fill:#5AB1E4;}
	.st2{fill:#2096DD;}
	.st3{fill:#264C60;}
	.st4{fill:#1773AB;}
	.st5{fill:#C6C6C5;}
	.st6{fill:#A4E1FF;}
	.st7{fill:#C6D4BF;}
	.st8{fill:#D6DEC9;}
	.st9{fill:#DEDCC9;}
	.st10{fill:#D4CFBF;}
	.st11{fill:#DBDBDB;}
	.st12{fill:#7A7A6F;}
	.st13{fill:#FFFFFF;}
	.st14{fill:#6D6379;}
	.st15{fill:#132B46;}
	.st16{fill:#6F6F6E;}
	.st17{fill:none;stroke:#000000;stroke-miterlimit:10;}
	.st18{fill:none;stroke:#000000;}
	.st19{fill:#E1F8FF;}
	.st20{fill:#0080C9;}
	.st21{display:none;fill:none;stroke:#000000;}
</style>
<path class="st20" d="M125.32,68.1c-0.82-0.78-20.34-18.98-31.87-18.98c-5.61,0-11.41,0-18.47,8.11
	c-7.06-8.11-12.86-8.11-18.47-8.11c-11.53,0-31.05,18.2-31.87,18.98l-0.16,0.15c0,0.21,0.01,0.42,0.02,0.64
	c0.53,11.4,15.4,31.86,50.31,31.99h0.34c34.94-0.13,49.83-20.59,50.35-31.99c0.01-0.21,0.01-0.41,0.01-0.61L125.32,68.1z
	 M74.99,87.11c-25.35-0.06-43.7-13.96-48.44-17.94c0,0,0,0,0.01,0c1.61,0.19,4.47,0.47,8.84,0.76v1.39h1V70h0
	c1.65,0.11,3.49,0.21,5.55,0.31v3.87h1v-3.82c0,0,0,0,0,0c1.71,0.08,3.55,0.15,5.54,0.22v6.46h1v-6.43c0,0,0,0,0,0
	c1.74,0.06,3.58,0.12,5.54,0.17v6.26h1V70.8h0c1.76,0.04,3.61,0.07,5.54,0.1v9.01h1v-8.99h0c1.77,0.02,3.62,0.04,5.54,0.05
	c0,0,0,0,0,0v8.92h1v-8.91C70.9,70.99,72.73,71,74.65,71v8.91h1V71h0c1.92,0,3.77-0.01,5.55-0.03v8.94h1v-8.94c0,0,0,0,0,0
	c1.92-0.01,3.77-0.03,5.54-0.06v8.98h1V70.9c0,0,0,0,0,0c1.94-0.03,3.78-0.07,5.54-0.11v6.25h1v-6.27c0,0,0,0,0,0
	c1.96-0.05,3.8-0.11,5.54-0.17v6.44h1v-6.47c0,0,0,0,0,0c1.99-0.07,3.84-0.15,5.54-0.23v3.84h1v-3.89c0,0,0,0,0,0
	c2.06-0.1,3.9-0.2,5.55-0.31v1.34h1v-1.41c0,0,0,0,0,0c4.22-0.29,6.98-0.56,8.54-0.75C118.8,73.13,100.64,87.05,74.99,87.11z
	 M56.51,50.12c5.74,0,11.16,0,18.09,8.2l0.38,0.46l0.38-0.46c6.94-8.2,12.35-8.2,18.09-8.2c9.87,0,26.6,14.56,30.4,17.99
	c-3.7,0.46-17.68,1.87-48.7,1.89h-0.34c-31-0.02-44.99-1.43-48.7-1.89C29.92,64.68,46.65,50.12,56.51,50.12z M75.16,99.88h-0.34
	C41.17,99.75,26.5,80.76,25.53,69.62c0,0,0,0,0,0c4.2,3.6,23.01,18.37,49.28,18.49v0.01c0.06,0,0.11,0,0.17,0c0.06,0,0.11,0,0.17,0
	v-0.01c26.52-0.12,45.1-14.84,49.28-18.48C123.45,80.78,108.79,99.75,75.16,99.88z"/>
</svg>
