<?xml version="1.0" encoding="utf-8"?>
<!-- Generator: Adobe Illustrator 24.1.0, SVG Export Plug-In . SVG Version: 6.00 Build 0)  -->
<svg version="1.1" id="Livello_1" xmlns="http://www.w3.org/2000/svg" xmlns:xlink="http://www.w3.org/1999/xlink" x="0px" y="0px"
	 viewBox="0 0 150 150" style="enable-background:new 0 0 150 150;" xml:space="preserve">
<style type="text/css">
	.st0{fill:#0D7FC2;}
	.st1{fill:#5AB1E4;}
	.st2{fill:#2096DD;}
	.st3{fill:#264C60;}
	.st4{fill:#1773AB;}
	.st5{fill:#C6C6C5;}
	.st6{fill:#A4E1FF;}
	.st7{fill:#C6D4BF;}
	.st8{fill:#D6DEC9;}
	.st9{fill:#DEDCC9;}
	.st10{fill:#D4CFBF;}
	.st11{fill:#DBDBDB;}
	.st12{fill:#7A7A6F;}
	.st13{fill:#FFFFFF;}
	.st14{fill:#6D6379;}
	.st15{fill:#132B46;}
	.st16{fill:#6F6F6E;}
	.st17{fill:none;stroke:#000000;stroke-miterlimit:10;}
	.st18{fill:none;stroke:#000000;}
	.st19{fill:#E1F8FF;}
	.st20{fill:#0080C9;}
	.st21{display:none;fill:none;stroke:#000000;}
</style>
<g>
	<g>
		
			<rect x="60.84" y="51.87" transform="matrix(0.7071 -0.7071 0.7071 0.7071 -17.3953 62.489)" class="st20" width="11.79" height="0.75"/>
	</g>
	<g>
		
			<rect x="66.52" y="57.55" transform="matrix(0.7071 -0.7071 0.7071 0.7071 -19.7489 68.1707)" class="st20" width="11.79" height="0.75"/>
	</g>
	<g>
		
			<rect x="67.43" y="65.21" transform="matrix(0.7071 -0.7071 0.7071 0.7071 -24.08 73.0335)" class="st20" width="17.39" height="0.75"/>
	</g>
	<g>
		
			<rect x="77.89" y="68.92" transform="matrix(0.7071 -0.7071 0.7071 0.7071 -24.4582 79.5409)" class="st20" width="11.79" height="0.75"/>
	</g>
	<g>
		
			<rect x="83.58" y="74.61" transform="matrix(0.7071 -0.7071 0.7071 0.7071 -26.8148 85.2292)" class="st20" width="11.79" height="0.75"/>
	</g>
	<g>
		
			<rect x="84.48" y="82.27" transform="matrix(0.7071 -0.7071 0.7071 0.7071 -31.1459 90.092)" class="st20" width="17.39" height="0.75"/>
	</g>
	<g>
		
			<rect x="94.94" y="85.97" transform="matrix(0.7071 -0.7071 0.7071 0.7071 -31.5214 96.5928)" class="st20" width="11.79" height="0.75"/>
	</g>
	<g>
		<path class="st20" d="M37.24,49.47c-3.14,0-6.27-1.19-8.66-3.58c-4.77-4.77-4.77-12.54,0-17.31s12.54-4.77,17.31,0
			s4.77,12.54,0,17.31l0,0C43.51,48.28,40.37,49.47,37.24,49.47z M37.24,25.75c-2.94,0-5.89,1.12-8.13,3.36
			c-4.48,4.48-4.48,11.77,0,16.25c4.48,4.48,11.77,4.48,16.25,0l0,0c4.48-4.48,4.48-11.77,0-16.25
			C43.12,26.87,40.18,25.75,37.24,25.75z"/>
	</g>
	<g>
		<path class="st20" d="M37.08,60.44l-3.4-3.4l23.36-23.36l3.4,3.4L37.08,60.44z M34.74,57.04l2.33,2.33l22.3-22.3l-2.34-2.34
			L34.74,57.04z"/>
	</g>
	<g>
		<path class="st20" d="M87.86,111.23L41.85,65.21l23.36-23.36l46.01,46.01L87.86,111.23z M42.92,65.21l44.95,44.95l22.3-22.3
			L65.21,42.91L42.92,65.21z"/>
	</g>
	<g>
		<path class="st20" d="M50.72,57.41l-5.84-5.84l6.68-6.68l5.84,5.84L50.72,57.41z M45.95,51.57l4.78,4.78l5.62-5.62l-4.78-4.77
			L45.95,51.57z"/>
	</g>
	<g>
		<path class="st20" d="M102.25,112.06l-8.14-8.14l9.81-9.81l8.14,8.14L102.25,112.06z M95.17,103.92l7.08,7.08l8.75-8.75
			l-7.08-7.08L95.17,103.92z"/>
	</g>
	<g>
		
			<rect x="115.44" y="103.19" transform="matrix(0.7071 -0.7071 0.7071 0.7071 -47.9707 115.8082)" class="st20" width="0.75" height="25.24"/>
	</g>
</g>
</svg>
