<?xml version="1.0" encoding="utf-8"?>
<!-- Generator: Adobe Illustrator 24.1.0, SVG Export Plug-In . SVG Version: 6.00 Build 0)  -->
<svg version="1.1" id="Livello_1" xmlns="http://www.w3.org/2000/svg" xmlns:xlink="http://www.w3.org/1999/xlink" x="0px" y="0px"
	 viewBox="0 0 150 150" style="enable-background:new 0 0 150 150;" xml:space="preserve">
<style type="text/css">
	.st0{fill:#0D7FC2;}
	.st1{fill:#5AB1E4;}
	.st2{fill:#2096DD;}
	.st3{fill:#264C60;}
	.st4{fill:#1773AB;}
	.st5{fill:#C6C6C5;}
	.st6{fill:#A4E1FF;}
	.st7{fill:#C6D4BF;}
	.st8{fill:#D6DEC9;}
	.st9{fill:#DEDCC9;}
	.st10{fill:#D4CFBF;}
	.st11{fill:#DBDBDB;}
	.st12{fill:#7A7A6F;}
	.st13{fill:#FFFFFF;}
	.st14{fill:#6D6379;}
	.st15{fill:#132B46;}
	.st16{fill:#6F6F6E;}
	.st17{fill:none;stroke:#000000;stroke-miterlimit:10;}
	.st18{fill:none;stroke:#000000;}
	.st19{fill:#E1F8FF;}
	.st20{fill:#0080C9;}
</style>
<path class="st20" d="M121.84,119.17L79.23,76.56l-0.03-0.07l-19.11-8.48l-1.86-1.86l4.85-4.85c0.09,0.34,0.17,0.69,0.23,1.05
	l0.12,0.7l0.51-0.51c5.45-5.45,5.93-10.16,5.38-13.14c-0.61-3.25-2.5-5.18-2.58-5.26l-9.42-9.42c-5.66-5.66-6.05-8.71-6.05-8.74
	L51.17,25l-0.58,0.83c-0.19,0.27-2.81,4.06-3.91,8.38L36.47,44.41l-2.59-2.59l-5.71,5.71l29.39,29.39l18.5,8.13L116,125l0.26-0.26
	l0,0l0.12-0.12l0,0L121.84,119.17z M116,123.95l-10.02-10.02l4.78-4.78l10.02,10.02L116,123.95z M105.45,113.4l-4.8-4.8l4.78-4.78
	l4.8,4.8L105.45,113.4z M57.7,65.63l-4.78-4.78l6.42-6.42c1.21,1.41,2.67,3.48,3.5,6.06L57.7,65.63z M48.74,43.85l4.76,4.76
	l-6.42,6.42l-4.76-4.76L48.74,43.85z M54.03,49.13l3.22,3.22c0.03,0.03,0.05,0.05,0.08,0.07c0.17,0.14,0.76,0.64,1.51,1.45
	l-6.45,6.45l-4.78-4.78L54.03,49.13z M63.65,60.6c-1.5-5.05-5.37-8.36-5.88-8.78L49,43.06c-4.19-4.19-0.9-11.49,1.04-14.92
	c-0.43,2.77-0.53,7.55,2.9,10.98l7.94,7.94c3.63,3.63,4.84,9.75,2.92,14.14c-0.04-0.16-0.08-0.33-0.13-0.49l0.04-0.04L63.65,60.6z
	 M56.79,35.27l9.42,9.42c0.28,0.28,6.4,6.65-1.31,15.73c1.46-4.56,0.13-10.27-3.48-13.88l-7.94-7.94
	c-3.59-3.59-3.04-8.81-2.54-11.18C51.53,28.88,53.04,31.52,56.79,35.27z M46.4,35.54c-0.46,2.74-0.17,5.57,1.83,7.76l-6.43,6.43
	l-4.8-4.8L46.4,35.54z M58.03,76.35L29.22,47.54l4.66-4.66l25.73,25.71l19.1,8.5l26.2,26.2l-4.78,4.78l-23.6-23.6L58.03,76.35z"/>
</svg>
