<?xml version="1.0" encoding="utf-8"?>
<!-- Generator: Adobe Illustrator 24.1.0, SVG Export Plug-In . SVG Version: 6.00 Build 0)  -->
<svg version="1.1" id="Livello_1" xmlns="http://www.w3.org/2000/svg" xmlns:xlink="http://www.w3.org/1999/xlink" x="0px" y="0px"
	 viewBox="0 0 150 150" style="enable-background:new 0 0 150 150;" xml:space="preserve">
<style type="text/css">
	.st0{fill:#0D7FC2;}
	.st1{fill:#5AB1E4;}
	.st2{fill:#2096DD;}
	.st3{fill:#264C60;}
	.st4{fill:#1773AB;}
	.st5{fill:#C6C6C5;}
	.st6{fill:#A4E1FF;}
	.st7{fill:#C6D4BF;}
	.st8{fill:#D6DEC9;}
	.st9{fill:#DEDCC9;}
	.st10{fill:#D4CFBF;}
	.st11{fill:#DBDBDB;}
	.st12{fill:#7A7A6F;}
	.st13{fill:#FFFFFF;}
	.st14{fill:#6D6379;}
	.st15{fill:#132B46;}
	.st16{fill:#6F6F6E;}
	.st17{fill:none;stroke:#000000;stroke-miterlimit:10;}
	.st18{fill:none;stroke:#000000;}
	.st19{fill:#E1F8FF;}
	.st20{fill:#0080C9;}
</style>
<g>
	<path class="st20" d="M75.1,66.38l0.28-0.4c4.25-5.95,6.5-12.96,6.5-20.29s-2.25-14.35-6.5-20.29L75.1,25l-0.28,0.4
		c-4.25,5.95-6.5,12.96-6.5,20.29s2.25,14.35,6.5,20.29L75.1,66.38z M75.1,26.21c3.98,5.74,6.09,12.46,6.09,19.48
		s-2.1,13.74-6.09,19.48c-3.98-5.74-6.09-12.46-6.09-19.48S71.12,31.95,75.1,26.21z"/>
	<path class="st20" d="M81.17,68.98l0.48-0.08c7.21-1.2,13.76-4.57,18.95-9.75c5.18-5.18,8.55-11.73,9.75-18.95l0.08-0.48
		l-0.48,0.08C102.73,41,96.18,44.37,91,49.55c-5.18,5.18-8.55,11.73-9.75,18.95L81.17,68.98z M91.49,50.04
		c4.96-4.96,11.2-8.23,18.08-9.47c-1.24,6.87-4.51,13.12-9.47,18.08c-4.96,4.96-11.2,8.23-18.08,9.47
		C83.27,61.25,86.53,55.01,91.49,50.04z"/>
	<path class="st20" d="M124.6,74.82c-5.95-4.25-12.96-6.5-20.29-6.5s-14.35,2.25-20.29,6.5l-0.4,0.28l0.4,0.28
		c5.95,4.25,12.96,6.5,20.29,6.5s14.35-2.25,20.29-6.5l0.4-0.28L124.6,74.82z M104.31,81.19c-7.02,0-13.74-2.1-19.48-6.09
		c5.74-3.98,12.46-6.09,19.48-6.09s13.74,2.1,19.48,6.09C118.05,79.09,111.33,81.19,104.31,81.19z"/>
	<path class="st20" d="M100.45,91c-5.18-5.18-11.73-8.55-18.95-9.75l-0.48-0.08l0.08,0.48c1.2,7.21,4.57,13.76,9.75,18.95
		c5.18,5.18,11.73,8.55,18.95,9.75l0.48,0.08l-0.08-0.48C109,102.73,105.63,96.18,100.45,91z M91.35,100.1
		c-4.96-4.96-8.23-11.2-9.47-18.08c6.87,1.24,13.12,4.51,18.08,9.47c4.96,4.96,8.23,11.2,9.47,18.08
		C102.55,108.33,96.31,105.06,91.35,100.1z"/>
	<path class="st20" d="M74.9,83.62l-0.28,0.4c-4.25,5.95-6.5,12.96-6.5,20.29s2.25,14.34,6.5,20.29l0.28,0.4l0.28-0.4
		c4.25-5.95,6.5-12.96,6.5-20.29s-2.25-14.35-6.5-20.29L74.9,83.62z M74.9,123.79c-3.98-5.74-6.08-12.46-6.08-19.48
		s2.1-13.74,6.08-19.48c3.98,5.74,6.09,12.46,6.09,19.48S78.88,118.05,74.9,123.79z"/>
	<path class="st20" d="M68.83,81.02l-0.48,0.08c-7.21,1.2-13.76,4.57-18.95,9.75c-5.18,5.18-8.55,11.73-9.75,18.95l-0.08,0.48
		l0.48-0.08c7.21-1.2,13.76-4.57,18.95-9.75c5.18-5.18,8.55-11.73,9.75-18.95L68.83,81.02z M58.5,99.96
		c-4.96,4.96-11.2,8.23-18.08,9.47c1.24-6.87,4.51-13.12,9.47-18.08c4.96-4.96,11.2-8.23,18.08-9.47
		C66.73,88.75,63.47,94.99,58.5,99.96z"/>
	<path class="st20" d="M65.98,75.18l0.4-0.28l-0.4-0.28c-5.95-4.25-12.96-6.5-20.29-6.5c-7.33,0-14.34,2.25-20.29,6.5L25,74.9
		l0.4,0.28c5.95,4.25,12.96,6.5,20.29,6.5C53.02,81.68,60.04,79.43,65.98,75.18z M45.69,68.81c7.02,0,13.74,2.1,19.48,6.09
		c-5.74,3.98-12.46,6.09-19.48,6.09c-7.02,0-13.74-2.1-19.48-6.09C31.95,70.91,38.67,68.81,45.69,68.81z"/>
	<path class="st20" d="M49.55,59c5.18,5.18,11.73,8.55,18.95,9.75l0.48,0.08l-0.08-0.48c-1.2-7.21-4.57-13.76-9.75-18.95
		c-5.18-5.18-11.73-8.55-18.95-9.75l-0.48-0.08l0.08,0.48C40.99,47.27,44.37,53.82,49.55,59z M58.65,49.9
		c4.96,4.96,8.23,11.2,9.47,18.08c-6.87-1.24-13.12-4.51-18.08-9.47s-8.23-11.2-9.47-18.08C47.45,41.67,53.69,44.94,58.65,49.9z"/>
</g>
</svg>
