<?xml version="1.0" encoding="utf-8"?>
<!-- Generator: Adobe Illustrator 24.1.0, SVG Export Plug-In . SVG Version: 6.00 Build 0)  -->
<svg version="1.1" id="Livello_1" xmlns="http://www.w3.org/2000/svg" xmlns:xlink="http://www.w3.org/1999/xlink" x="0px" y="0px"
	 viewBox="0 0 150 150" style="enable-background:new 0 0 150 150;" xml:space="preserve">
<style type="text/css">
	.st0{fill:#0D7FC2;}
	.st1{fill:#5AB1E4;}
	.st2{fill:#2096DD;}
	.st3{fill:#264C60;}
	.st4{fill:#1773AB;}
	.st5{fill:#C6C6C5;}
	.st6{fill:#A4E1FF;}
	.st7{fill:#C6D4BF;}
	.st8{fill:#D6DEC9;}
	.st9{fill:#DEDCC9;}
	.st10{fill:#D4CFBF;}
	.st11{fill:#DBDBDB;}
	.st12{fill:#7A7A6F;}
	.st13{fill:#FFFFFF;}
	.st14{fill:#6D6379;}
	.st15{fill:#132B46;}
	.st16{fill:#6F6F6E;}
	.st17{fill:none;stroke:#000000;stroke-miterlimit:10;}
	.st18{fill:none;stroke:#000000;}
	.st19{fill:#E1F8FF;}
	.st20{fill:#0080C9;}
</style>
<g>
	<path class="st20" d="M83.66,25c-2.97,0-5.88,0.45-8.66,1.33C72.19,25.45,69.28,25,66.34,25c-15.89,0-28.81,12.93-28.81,28.81
		c0,1.11,0.07,2.23,0.2,3.33c0.13,1.12,0.34,2.25,0.61,3.36c0.27,1.09,0.61,2.19,1.01,3.25c0.4,1.06,0.86,2.1,1.37,3.11
		c0.52,1.01,1.1,1.99,1.72,2.94c1.28,1.92,2.86,3.6,4.39,5.23c1.23,1.31,2.51,2.67,3.6,4.13c0.56,0.74,0.94,1.46,1.16,2.18
		c0.26,0.84,0.32,1.77,0.18,2.76c-0.3,2.13-0.47,9.6,0.95,17.91c1.22,7.13,3.96,16.8,10.13,22.42l0.64,0.58l-0.05-0.86
		c-0.01-0.22-1.26-21.75,5.82-29.28c1.6-1.7,3.53-2.57,5.74-2.57c2.21,0,4.14,0.86,5.74,2.57c7.08,7.53,5.84,29.07,5.82,29.28
		L86.51,125l0.64-0.58c6.17-5.62,8.91-15.29,10.13-22.42c1.42-8.31,1.25-15.78,0.95-17.91c-0.43-3.1,1.84-5.61,3.85-7.83l0.47-0.52
		c2.66-2.97,5.19-5.93,6.92-9.36c1.97-3.91,3.01-8.26,3.01-12.57C112.47,37.93,99.54,25,83.66,25z M108.84,66.07
		c-1.69,3.36-4.19,6.27-6.82,9.21l-0.46,0.51c-2.11,2.33-4.5,4.98-4.02,8.4c0.76,5.5,0.07,28.85-10.24,39.12
		c0.07-1.8,0.16-6.17-0.27-11.05c-0.76-8.6-2.71-14.61-5.78-17.88c-1.74-1.85-3.84-2.79-6.25-2.79c-2.41,0-4.51,0.94-6.25,2.79
		c-3.07,3.26-5.01,9.28-5.78,17.88c-0.43,4.88-0.34,9.25-0.27,11.05c-10.31-10.28-11-33.63-10.24-39.12
		c0.15-1.09,0.08-2.12-0.2-3.06c-0.25-0.8-0.66-1.59-1.27-2.4c-1.12-1.49-2.41-2.86-3.65-4.19c-1.51-1.61-3.07-3.27-4.32-5.14
		c-0.61-0.92-1.18-1.89-1.68-2.87c-0.5-0.98-0.96-2-1.34-3.03c-0.39-1.04-0.72-2.1-0.98-3.17c-0.27-1.08-0.47-2.18-0.6-3.28
		c-0.13-1.08-0.2-2.17-0.2-3.25c0-15.5,12.61-28.12,28.12-28.12c2.9,0,5.78,0.45,8.55,1.33c2.84,0.9,5.51,2.25,7.93,4.01
		c2.1,1.53,3.99,3.33,5.6,5.37l0.55-0.43c-1.65-2.09-3.58-3.94-5.74-5.51c-2.18-1.58-4.56-2.84-7.09-3.75
		c2.43-0.68,4.95-1.02,7.51-1.02c15.5,0,28.12,12.61,28.12,28.12C111.77,58.02,110.76,62.25,108.84,66.07z"/>
	<path class="st20" d="M67.88,59.08c0-2.14-1.74-3.88-3.88-3.88c-2.14,0-3.88,1.74-3.88,3.88c0,2.14,1.74,3.88,3.88,3.88
		C66.14,62.96,67.88,61.22,67.88,59.08z M60.81,59.08c0-1.76,1.43-3.19,3.19-3.19s3.19,1.43,3.19,3.19c0,1.76-1.43,3.19-3.19,3.19
		S60.81,60.84,60.81,59.08z"/>
	<path class="st20" d="M86,55.2c-2.14,0-3.88,1.74-3.88,3.88c0,2.14,1.74,3.88,3.88,3.88c2.14,0,3.88-1.74,3.88-3.88
		C89.88,56.94,88.14,55.2,86,55.2z M86,62.27c-1.76,0-3.19-1.43-3.19-3.19c0-1.76,1.43-3.19,3.19-3.19c1.76,0,3.19,1.43,3.19,3.19
		C89.19,60.84,87.76,62.27,86,62.27z"/>
	<path class="st20" d="M62.11,69.88c0,7.11,5.78,12.89,12.89,12.89s12.89-5.78,12.89-12.89v-0.35H62.11V69.88z M87.19,70.23
		C87.01,76.8,81.61,82.08,75,82.08c-6.61,0-12.01-5.28-12.19-11.85H87.19z"/>
</g>
</svg>
