<?xml version="1.0" encoding="utf-8"?>
<!-- Generator: Adobe Illustrator 24.1.0, SVG Export Plug-In . SVG Version: 6.00 Build 0)  -->
<svg version="1.1" id="Livello_1" xmlns="http://www.w3.org/2000/svg" xmlns:xlink="http://www.w3.org/1999/xlink" x="0px" y="0px"
	 viewBox="0 0 150 150" style="enable-background:new 0 0 150 150;" xml:space="preserve">
<style type="text/css">
	.st0{fill:#0D7FC2;}
	.st1{fill:#5AB1E4;}
	.st2{fill:#2096DD;}
	.st3{fill:#264C60;}
	.st4{fill:#1773AB;}
	.st5{fill:#C6C6C5;}
	.st6{fill:#A4E1FF;}
	.st7{fill:#C6D4BF;}
	.st8{fill:#D6DEC9;}
	.st9{fill:#DEDCC9;}
	.st10{fill:#D4CFBF;}
	.st11{fill:#DBDBDB;}
	.st12{fill:#7A7A6F;}
	.st13{fill:#FFFFFF;}
	.st14{fill:#6D6379;}
	.st15{fill:#132B46;}
	.st16{fill:#6F6F6E;}
	.st17{fill:none;stroke:#000000;stroke-miterlimit:10;}
	.st18{fill:none;stroke:#000000;}
	.st19{fill:#E1F8FF;}
	.st20{fill:#0080C9;}
</style>
<g>
	<path class="st20" d="M32.08,71.86c0-4.56-3.71-8.27-8.27-8.27s-8.27,3.71-8.27,8.27c0,4.56,3.71,8.27,8.27,8.27
		c2.29,0,4.36-0.94,5.86-2.45l11.9,11.9v55.7h0.99V89.17L30.32,76.93C31.42,75.53,32.08,73.77,32.08,71.86z M23.81,79.14
		c-4.01,0-7.28-3.27-7.28-7.28s3.27-7.28,7.28-7.28s7.28,3.27,7.28,7.28S27.82,79.14,23.81,79.14z"/>
	<path class="st20" d="M75.33,40.36c-4.56,0-8.27,3.71-8.27,8.27c0,4.39,3.45,7.98,7.77,8.24v88.73h0.99V56.87
		c4.33-0.26,7.77-3.85,7.77-8.24C83.6,44.07,79.89,40.36,75.33,40.36z M75.33,55.91c-4.01,0-7.28-3.27-7.28-7.28
		s3.27-7.28,7.28-7.28s7.28,3.27,7.28,7.28S79.34,55.91,75.33,55.91z"/>
	<path class="st20" d="M111.94,12.66c0-4.56-3.71-8.27-8.27-8.27S95.4,8.1,95.4,12.66c0,4.39,3.45,7.98,7.77,8.24v45.14L91.93,77.28
		v68.32h0.99V77.69l11.24-11.24V20.9C108.49,20.64,111.94,17.05,111.94,12.66z M96.39,12.66c0-4.01,3.27-7.28,7.28-7.28
		s7.28,3.27,7.28,7.28s-3.27,7.28-7.28,7.28S96.39,16.67,96.39,12.66z"/>
	<path class="st20" d="M126.19,73.88c-4.56,0-8.27,3.71-8.27,8.27c0,4.56,3.71,8.27,8.27,8.27s8.27-3.71,8.27-8.27
		C134.46,77.59,130.75,73.88,126.19,73.88z M126.19,89.43c-4.01,0-7.28-3.27-7.28-7.28s3.27-7.28,7.28-7.28
		c4.01,0,7.28,3.27,7.28,7.28S130.21,89.43,126.19,89.43z"/>
	<path class="st20" d="M41.94,35.38c4.33-0.26,7.77-3.85,7.77-8.24c0-4.56-3.71-8.27-8.27-8.27s-8.27,3.71-8.27,8.27
		c0,4.39,3.45,7.98,7.77,8.24v25.45L57.82,77.7v67.58h0.99V77.29L41.94,60.43V35.38z M34.17,27.14c0-4.01,3.27-7.28,7.28-7.28
		s7.28,3.27,7.28,7.28s-3.27,7.28-7.28,7.28S34.17,31.16,34.17,27.14z"/>
	<polygon class="st20" points="108.82,100.09 108.82,145.28 109.81,145.28 109.81,100.5 120.91,89.4 120.21,88.7 	"/>
</g>
</svg>
