<?xml version="1.0" encoding="utf-8"?>
<!-- Generator: Adobe Illustrator 24.1.0, SVG Export Plug-In . SVG Version: 6.00 Build 0)  -->
<svg version="1.1" id="Livello_1" xmlns="http://www.w3.org/2000/svg" xmlns:xlink="http://www.w3.org/1999/xlink" x="0px" y="0px"
	 viewBox="0 0 150 150" style="enable-background:new 0 0 150 150;" xml:space="preserve">
<style type="text/css">
	.st0{fill:#0D7FC2;}
	.st1{fill:#5AB1E4;}
	.st2{fill:#2096DD;}
	.st3{fill:#264C60;}
	.st4{fill:#1773AB;}
	.st5{fill:#C6C6C5;}
	.st6{fill:#A4E1FF;}
	.st7{fill:#C6D4BF;}
	.st8{fill:#D6DEC9;}
	.st9{fill:#DEDCC9;}
	.st10{fill:#D4CFBF;}
	.st11{fill:#DBDBDB;}
	.st12{fill:#7A7A6F;}
	.st13{fill:#FFFFFF;}
	.st14{fill:#6D6379;}
	.st15{fill:#132B46;}
	.st16{fill:#6F6F6E;}
	.st17{fill:none;stroke:#000000;stroke-miterlimit:10;}
	.st18{fill:none;stroke:#000000;}
	.st19{fill:#E1F8FF;}
	.st20{fill:#0080C9;}
</style>
<g>
	<path class="st20" d="M75.07,42.71c-2.44,0-4.83,0.37-7.11,1.09c-2.31-0.72-4.7-1.09-7.11-1.09c-13.08,0-23.71,10.64-23.71,23.71
		c0,0.91,0.06,1.83,0.17,2.74c0.11,0.92,0.28,1.85,0.51,2.76c0.22,0.9,0.5,1.8,0.83,2.67c0.32,0.87,0.71,1.73,1.13,2.56
		c0.42,0.82,0.9,1.64,1.42,2.42c1.05,1.58,2.35,2.97,3.61,4.3c1.01,1.07,2.05,2.19,2.95,3.38c0.45,0.6,0.76,1.19,0.94,1.77
		c0.21,0.68,0.26,1.44,0.15,2.24c-0.24,1.75-0.39,7.89,0.78,14.72c1,5.86,3.26,13.81,8.33,18.44l0.63,0.57l-0.05-0.85
		c-0.01-0.18-1.03-17.83,4.76-24c1.3-1.39,2.88-2.09,4.67-2.09s3.37,0.7,4.67,2.09c5.8,6.17,4.77,23.82,4.76,24L77.35,125l0.63-0.57
		c5.07-4.62,7.33-12.58,8.33-18.44c1.17-6.83,1.03-12.97,0.78-14.72c-0.35-2.52,1.51-4.57,3.15-6.38l0.38-0.43
		c2.19-2.44,4.27-4.87,5.69-7.7c1.62-3.22,2.48-6.79,2.48-10.34C98.78,53.35,88.15,42.71,75.07,42.71z M95.7,76.46
		c-1.38,2.75-3.43,5.14-5.59,7.55l-0.38,0.42c-1.74,1.92-3.71,4.11-3.32,6.94c0.62,4.49,0.07,23.49-8.28,31.96
		c0.14-3.71,0.32-17.99-4.99-23.64c-1.44-1.53-3.18-2.31-5.17-2.31s-3.73,0.78-5.17,2.31c-5.31,5.65-5.13,19.94-4.99,23.64
		c-8.35-8.47-8.91-27.48-8.28-31.96c0.13-0.9,0.07-1.76-0.17-2.53c-0.2-0.67-0.55-1.31-1.05-1.98c-0.92-1.23-1.98-2.35-3-3.44
		c-1.24-1.32-2.52-2.68-3.54-4.21c-0.5-0.76-0.97-1.55-1.38-2.35c-0.41-0.81-0.78-1.64-1.1-2.48c-0.32-0.85-0.59-1.72-0.8-2.6
		c-0.22-0.88-0.38-1.79-0.49-2.68c-0.11-0.88-0.16-1.78-0.16-2.66c0-12.7,10.33-23.03,23.03-23.03c2.38,0,4.73,0.37,7,1.09
		c2.33,0.74,4.51,1.84,6.49,3.28c1.72,1.25,3.27,2.73,4.58,4.4l0.54-0.42c-1.36-1.72-2.95-3.25-4.72-4.53
		c-1.75-1.27-3.65-2.28-5.66-3.03c1.93-0.52,3.94-0.79,5.98-0.79c12.7,0,23.03,10.33,23.03,23.03C98.1,69.86,97.27,73.33,95.7,76.46
		z"/>
	<path class="st20" d="M105.18,50.76l-0.34-2.28l-0.34,2.28c-0.59,3.95-0.95,4.31-4.9,4.9L97.32,56l2.28,0.34
		c3.95,0.59,4.31,0.95,4.9,4.9l0.34,2.28l0.34-2.28c0.59-3.95,0.95-4.31,4.9-4.9l2.28-0.34l-2.28-0.34
		C106.13,55.08,105.77,54.71,105.18,50.76z M104.84,59.27c-0.48-2.04-1.22-2.79-3.27-3.27c2.04-0.48,2.79-1.22,3.27-3.27
		c0.48,2.04,1.22,2.79,3.27,3.27C106.06,56.48,105.32,57.23,104.84,59.27z"/>
	<path class="st20" d="M73.5,39.95l0.34,2.28l0.34-2.28c0.59-3.95,0.95-4.31,4.9-4.9l2.28-0.34l-2.28-0.34
		c-3.95-0.59-4.31-0.95-4.9-4.9l-0.34-2.28l-0.34,2.28c-0.59,3.95-0.95,4.31-4.9,4.9l-2.28,0.34l2.28,0.34
		C72.55,35.64,72.92,36.01,73.5,39.95z M73.84,31.45c0.48,2.04,1.22,2.79,3.27,3.27c-2.04,0.48-2.79,1.22-3.27,3.27
		c-0.48-2.04-1.22-2.79-3.27-3.27C72.62,34.23,73.36,33.49,73.84,31.45z"/>
	<path class="st20" d="M99.96,47.83l0.34,2.28l0.34-2.28c1.18-7.92,2.01-8.76,9.93-9.93l2.28-0.34l-2.28-0.34
		c-7.92-1.18-8.76-2.01-9.93-9.93L100.3,25l-0.34,2.28c-1.18,7.92-2.01,8.76-9.93,9.93l-2.28,0.34l2.28,0.34
		C97.95,39.07,98.79,39.91,99.96,47.83z M100.3,29.47c1.03,5.68,2.4,7.05,8.08,8.08c-5.68,1.03-7.05,2.4-8.08,8.08
		c-1.02-5.68-2.4-7.05-8.08-8.08C97.9,36.53,99.28,35.15,100.3,29.47z"/>
</g>
</svg>
