<?xml version="1.0" encoding="utf-8"?>
<!-- Generator: Adobe Illustrator 24.1.0, SVG Export Plug-In . SVG Version: 6.00 Build 0)  -->
<svg version="1.1" id="Livello_1" xmlns="http://www.w3.org/2000/svg" xmlns:xlink="http://www.w3.org/1999/xlink" x="0px" y="0px"
	 viewBox="0 0 150 150" style="enable-background:new 0 0 150 150;" xml:space="preserve">
<style type="text/css">
	.st0{fill:#0D7FC2;}
	.st1{fill:#5AB1E4;}
	.st2{fill:#2096DD;}
	.st3{fill:#264C60;}
	.st4{fill:#1773AB;}
	.st5{fill:#C6C6C5;}
	.st6{fill:#A4E1FF;}
	.st7{fill:#C6D4BF;}
	.st8{fill:#D6DEC9;}
	.st9{fill:#DEDCC9;}
	.st10{fill:#D4CFBF;}
	.st11{fill:#DBDBDB;}
	.st12{fill:#7A7A6F;}
	.st13{fill:#FFFFFF;}
	.st14{fill:#6D6379;}
	.st15{fill:#132B46;}
	.st16{fill:#6F6F6E;}
	.st17{fill:none;stroke:#000000;stroke-miterlimit:10;}
	.st18{fill:none;stroke:#000000;}
	.st19{fill:#E1F8FF;}
	.st20{fill:#0080C9;}
</style>
<path class="st20" d="M83.67,25c-2.96,0-5.87,0.45-8.67,1.32C72.18,25.45,69.26,25,66.33,25c-15.91,0-28.86,12.94-28.86,28.85
	c0,1.06,0.07,2.19,0.2,3.34c0.13,1.09,0.34,2.22,0.62,3.37c0.27,1.09,0.61,2.19,1.01,3.25c0.4,1.05,0.86,2.1,1.37,3.11
	c0.5,0.98,1.08,1.96,1.72,2.94c1.28,1.92,2.87,3.61,4.4,5.24c1.23,1.31,2.51,2.67,3.61,4.13c0.44,0.59,0.74,1.1,0.95,1.62l0.09,0.22
	h0.03L75,125l23.68-43.93h0.02l0.09-0.21c0.75-1.69,2.14-3.23,3.38-4.59l0.41-0.46c2.66-2.96,5.18-5.91,6.93-9.38
	c1.97-3.92,3.02-8.27,3.02-12.59C112.53,37.94,99.58,25,83.67,25z M66.88,108.36h16.29l-3.3,6.13h-9.71L66.88,108.36z M66.5,107.66
	l-3.28-6.12h23.63l-3.3,6.12H66.5z M62.85,100.84l-3.28-6.12h30.96l-3.3,6.12H62.85z M59.2,94.02l-3.28-6.13h38.3l-3.31,6.13H59.2z
	 M70.54,115.19h8.96L75,123.53L70.54,115.19z M94.58,87.19H55.54l-3.28-6.12h45.63L94.58,87.19z M108.89,66.12
	c-1.71,3.39-4.2,6.3-6.83,9.22l-0.41,0.46c-1.22,1.34-2.59,2.86-3.4,4.57H51.9c-0.23-0.5-0.53-1.01-0.94-1.55
	c-1.12-1.5-2.41-2.87-3.66-4.19c-1.51-1.61-3.08-3.27-4.32-5.14c-0.63-0.96-1.2-1.92-1.68-2.88c-0.5-0.99-0.96-2.01-1.34-3.04
	c-0.39-1.04-0.72-2.11-0.99-3.17c-0.27-1.12-0.47-2.22-0.6-3.28c-0.13-1.12-0.2-2.22-0.2-3.26c0-15.52,12.63-28.15,28.16-28.15
	c2.9,0,5.78,0.45,8.56,1.33v0c2.84,0.91,5.51,2.26,7.94,4.02c2.11,1.53,4,3.34,5.61,5.38l0.55-0.43c-1.65-2.09-3.59-3.94-5.75-5.51
	c-2.18-1.59-4.57-2.85-7.09-3.76c2.44-0.67,4.96-1.02,7.52-1.02c15.53,0,28.16,12.63,28.16,28.15
	C111.83,58.05,110.81,62.3,108.89,66.12z"/>
</svg>
