<?xml version="1.0" encoding="utf-8"?>
<!-- Generator: Adobe Illustrator 24.1.0, SVG Export Plug-In . SVG Version: 6.00 Build 0)  -->
<svg version="1.1" id="Livello_1" xmlns="http://www.w3.org/2000/svg" xmlns:xlink="http://www.w3.org/1999/xlink" x="0px" y="0px"
	 viewBox="0 0 150 150" style="enable-background:new 0 0 150 150;" xml:space="preserve">
<style type="text/css">
	.st0{fill:#0D7FC2;}
	.st1{fill:#5AB1E4;}
	.st2{fill:#2096DD;}
	.st3{fill:#264C60;}
	.st4{fill:#1773AB;}
	.st5{fill:#C6C6C5;}
	.st6{fill:#A4E1FF;}
	.st7{fill:#C6D4BF;}
	.st8{fill:#D6DEC9;}
	.st9{fill:#DEDCC9;}
	.st10{fill:#D4CFBF;}
	.st11{fill:#DBDBDB;}
	.st12{fill:#7A7A6F;}
	.st13{fill:#FFFFFF;}
	.st14{fill:#6D6379;}
	.st15{fill:#132B46;}
	.st16{fill:#6F6F6E;}
	.st17{fill:none;stroke:#000000;stroke-miterlimit:10;}
	.st18{fill:none;stroke:#000000;}
	.st19{fill:#E1F8FF;}
	.st20{fill:#0080C9;}
</style>
<path class="st20" d="M112.56,76.85v-0.7h-0.05v-6H96.05c0.06-0.08,0.11-0.15,0.17-0.23c0.47-0.61,0.99-1.19,1.5-1.75l0.43-0.48
	c2.23-2.49,4.36-4.96,5.82-7.87c1.66-3.29,2.53-6.95,2.53-10.58C106.5,35.88,95.62,25,82.24,25c-2.49,0-4.94,0.37-7.27,1.11
	c-2.36-0.74-4.8-1.11-7.27-1.11c-13.37,0-24.25,10.88-24.25,24.25c0,0.94,0.06,1.88,0.17,2.81c0.12,0.96,0.29,1.91,0.52,2.83
	c0.23,0.94,0.51,1.86,0.84,2.73c0.32,0.86,0.71,1.74,1.16,2.61c0.43,0.85,0.92,1.69,1.45,2.48c1.08,1.62,2.41,3.04,3.7,4.41
	c0.85,0.91,1.73,1.84,2.52,2.82c0.06,0.07,0.11,0.14,0.17,0.22H37.79l-0.35,0v32.31c0,12.43,10.11,22.53,22.53,22.53h30
	c12.43,0,22.53-10.11,22.53-22.53v-1.64h0.05v-0.7h-0.05v-5.29h0.05v-0.7h-0.05v-5.3h0.05v-0.7h-0.05v-5.29h0.05v-0.7h-0.05v-5.29
	H112.56z M111.81,76.15H94.66c-0.03-0.59-0.07-1.1-0.12-1.49c-0.05-0.39-0.06-0.75-0.02-1.12c0.09-0.86,0.44-1.74,1.04-2.69h16.25
	V76.15z M51.8,66.63c-1.27-1.35-2.58-2.74-3.62-4.32c-0.51-0.77-0.99-1.58-1.41-2.41c-0.43-0.85-0.81-1.7-1.13-2.54
	c-0.32-0.85-0.59-1.74-0.82-2.66c-0.22-0.89-0.39-1.81-0.5-2.74c-0.11-0.9-0.17-1.81-0.17-2.72c0-12.99,10.57-23.55,23.55-23.55
	c2.43,0,4.84,0.37,7.16,1.11v0c2.38,0.76,4.61,1.89,6.64,3.36c1.75,1.26,3.32,2.77,4.69,4.5l0.55-0.43
	c-1.4-1.78-3.03-3.34-4.83-4.63c-1.79-1.3-3.74-2.32-5.8-3.08c1.98-0.54,4.03-0.82,6.12-0.82c12.99,0,23.55,10.57,23.55,23.55
	c0,3.52-0.85,7.07-2.46,10.26c-1.42,2.84-3.52,5.27-5.72,7.72l-0.43,0.47c-0.51,0.57-1.04,1.16-1.53,1.79
	c-0.21,0.27-0.4,0.54-0.59,0.81c-0.74,1.1-1.14,2.14-1.25,3.16c-0.05,0.42-0.04,0.85,0.02,1.29c0.04,0.31,0.1,0.86,0.13,1.76
	c0.03,0.7,0.04,1.6,0.03,2.68c-0.02,1.04-0.06,2.15-0.13,3.27c-0.05,0.73-0.13,1.84-0.25,2.98c-0.11,1.04-0.24,2.01-0.38,2.98
	c-0.14,0.91-0.31,1.89-0.53,2.98c-0.21,1.03-0.44,2.03-0.7,2.98c-0.27,1.04-0.57,2.04-0.88,2.97c-1.45,4.3-3.38,7.69-5.75,10.09
	c0.06-1.71,0.13-5.7-0.32-10.01c-0.1-0.98-0.23-2-0.4-3.01c-0.16-1.04-0.36-2.06-0.59-3.03c-0.25-1.05-0.55-2.07-0.89-3.03
	c-0.4-1.13-0.87-2.15-1.4-3.06c-0.79-1.35-1.71-2.39-2.72-3.1c-1.2-0.86-2.57-1.29-4.07-1.29s-2.87,0.44-4.07,1.29
	c-1.01,0.71-1.93,1.76-2.73,3.11c-0.52,0.9-0.99,1.93-1.39,3.05c-0.34,0.95-0.64,1.98-0.89,3.03c-0.24,0.97-0.44,1.99-0.59,3.03
	c-0.16,1.02-0.3,2.03-0.4,3.02c-0.45,4.32-0.38,8.3-0.32,10.01c-2.37-2.4-4.31-5.79-5.75-10.09c-0.32-0.93-0.62-1.93-0.88-2.97
	c-0.25-0.95-0.49-1.95-0.7-2.98c-0.22-1.1-0.4-2.07-0.53-2.98c-0.15-0.97-0.27-1.95-0.38-2.98c-0.12-1.12-0.2-2.18-0.25-2.98
	c-0.07-1.14-0.12-2.24-0.13-3.27c-0.01-1.08,0-1.98,0.03-2.68c0.03-0.89,0.09-1.45,0.13-1.75c0.06-0.45,0.08-0.88,0.05-1.27
	c-0.02-0.48-0.1-0.91-0.22-1.31c-0.19-0.63-0.51-1.25-0.95-1.88l-0.11-0.15c-0.16-0.22-0.34-0.44-0.51-0.65
	C53.55,68.49,52.66,67.55,51.8,66.63z M71.23,82.84h7.49c0.9,0.65,1.72,1.6,2.44,2.82c0.43,0.74,0.82,1.57,1.16,2.47h-14.7
	c0.35-0.9,0.73-1.73,1.16-2.47C69.51,84.44,70.33,83.5,71.23,82.84z M72.47,82.14c0.78-0.34,1.61-0.53,2.51-0.53
	c0.89,0,1.73,0.19,2.51,0.53H72.47z M67.37,88.83h15.21c0.3,0.87,0.57,1.78,0.8,2.73c0.2,0.83,0.37,1.69,0.51,2.57H66.06
	c0.14-0.88,0.31-1.74,0.51-2.57C66.8,90.61,67.07,89.7,67.37,88.83z M65.95,94.83H84c0.14,0.9,0.26,1.81,0.35,2.68
	c0.09,0.89,0.16,1.76,0.21,2.61H65.39c0.05-0.85,0.12-1.72,0.21-2.61C65.69,96.64,65.81,95.74,65.95,94.83z M55.25,79.21
	c0.01,0.93,0.05,1.92,0.11,2.93H38.14v-5.29h17.12C55.24,77.51,55.24,78.29,55.25,79.21z M55.4,82.84c0.05,0.76,0.12,1.7,0.23,2.68
	c0.1,0.9,0.21,1.76,0.33,2.61H38.14v-5.29H55.4z M56.07,88.83c0.13,0.83,0.29,1.72,0.49,2.72c0.18,0.89,0.38,1.75,0.6,2.58H38.14
	v-5.3H56.07z M57.34,94.83c0.25,0.96,0.53,1.89,0.83,2.76c0.3,0.89,0.62,1.72,0.96,2.53H38.14v-5.29H57.34z M54.5,70.85
	c0.35,0.51,0.6,1.02,0.76,1.53c0.11,0.35,0.17,0.72,0.19,1.15c0.02,0.35,0.01,0.73-0.05,1.13c-0.05,0.39-0.09,0.9-0.12,1.49H38.14
	v-5.3H54.5z M111.81,102.47c0,12.04-9.79,21.83-21.83,21.83h-30c-12.04,0-21.83-9.79-21.83-21.83v-1.64h21.28
	c1.44,3.24,3.22,5.85,5.31,7.75l0.64,0.58l-0.05-0.86c0-0.04-0.2-3.29,0.02-7.47H84.6c0.22,4.18,0.03,7.43,0.02,7.47l-0.05,0.86
	l0.64-0.58c2.09-1.91,3.87-4.51,5.31-7.75h21.28V102.47z M111.81,100.12H90.82c0.34-0.81,0.66-1.65,0.96-2.53
	c0.3-0.87,0.57-1.8,0.83-2.76h19.19V100.12z M111.81,94.13H92.79c0.21-0.83,0.41-1.69,0.6-2.58c0.2-0.99,0.36-1.88,0.49-2.71h17.93
	V94.13z M111.81,88.13H93.98c0.12-0.85,0.23-1.7,0.33-2.61c0.11-1.01,0.18-1.96,0.23-2.68h17.26V88.13z M111.81,82.14H94.59
	c0.06-1.01,0.1-1.99,0.11-2.93c0.01-0.92,0.01-1.7-0.02-2.36h17.12V82.14z"/>
</svg>
