<?xml version="1.0" encoding="utf-8"?>
<!-- Generator: Adobe Illustrator 24.1.0, SVG Export Plug-In . SVG Version: 6.00 Build 0)  -->
<svg version="1.1" id="Livello_1" xmlns="http://www.w3.org/2000/svg" xmlns:xlink="http://www.w3.org/1999/xlink" x="0px" y="0px"
	 viewBox="0 0 150 150" style="enable-background:new 0 0 150 150;" xml:space="preserve">
<style type="text/css">
	.st0{fill:#0D7FC2;}
	.st1{fill:#5AB1E4;}
	.st2{fill:#2096DD;}
	.st3{fill:#264C60;}
	.st4{fill:#1773AB;}
	.st5{fill:#C6C6C5;}
	.st6{fill:#A4E1FF;}
	.st7{fill:#C6D4BF;}
	.st8{fill:#D6DEC9;}
	.st9{fill:#DEDCC9;}
	.st10{fill:#D4CFBF;}
	.st11{fill:#DBDBDB;}
	.st12{fill:#7A7A6F;}
	.st13{fill:#FFFFFF;}
	.st14{fill:#6D6379;}
	.st15{fill:#132B46;}
	.st16{fill:#6F6F6E;}
	.st17{fill:none;stroke:#000000;stroke-miterlimit:10;}
	.st18{fill:none;stroke:#000000;}
	.st19{fill:#E1F8FF;}
	.st20{fill:#0080C9;}
</style>
<g>
	<path class="st20" d="M137.96,32.06l-0.06-0.42l-0.42-0.01C101.71,30.88,75.72,4.25,75.46,3.98L75,4.42l-0.46-0.44
		c-0.26,0.27-26.23,26.91-62.02,27.65l-0.42,0.01l-0.06,0.42C12.02,32.24,9.75,50,16.32,72.8c6.06,21.04,21.1,50.8,58.32,73.15
		l0.12,0.07h0.48l0.12-0.07c37.22-22.35,52.26-52.11,58.32-73.15C140.25,50,137.99,32.24,137.96,32.06z M132.72,72.57
		c-6.01,20.82-20.9,50.28-57.72,72.45C38.18,122.86,23.29,93.4,17.28,72.57c-5.97-20.68-4.6-37.17-4.31-39.96
		C47.06,31.7,72.24,7.66,75,4.91c2.76,2.74,27.94,26.78,62.03,27.69C137.33,35.4,138.69,51.89,132.72,72.57z"/>
	<path class="st20" d="M76.41,63.8c1.13,0,2.28,0.26,3.41,0.77c1.15,0.52,2.42,1.36,3.77,2.47l0.49,0.41l2.37-5.17l-0.26-0.24
		c-1.28-1.22-2.83-2.19-4.58-2.89c-1.76-0.7-3.58-1.06-5.43-1.06c-3.17,0-5.85,1.02-7.97,3.04c-2.02,1.93-3.41,4.64-4.15,8.08h-4.36
		v4.57h3.83c-0.01,0.32-0.02,0.71-0.02,1.19c0,0.47,0.01,0.87,0.02,1.19h-3.83v4.57h4.36c0.73,3.47,2.12,6.2,4.12,8.12
		c2.1,2.02,4.79,3.04,7.99,3.04c1.81,0,3.64-0.36,5.45-1.08c1.81-0.72,3.34-1.68,4.57-2.87l0.25-0.24l-2.36-5.17l-0.49,0.41
		c-1.35,1.12-2.62,1.95-3.77,2.47c-1.13,0.51-2.27,0.77-3.41,0.77c-1.57,0-2.79-0.46-3.71-1.42c-0.85-0.88-1.48-2.24-1.86-4.04h7.02
		v-4.57h-7.52c-0.01-0.32-0.02-0.71-0.02-1.19c0-0.47,0.01-0.87,0.02-1.19h7.52v-4.57h-7.02c0.39-1.78,1.01-3.12,1.86-4
		C73.63,64.27,74.84,63.8,76.41,63.8z M69.75,69.62l-0.1,0.58h7.23v2.6h-7.45l-0.04,0.45c-0.03,0.38-0.05,0.96-0.05,1.72
		c0,0.76,0.02,1.34,0.05,1.72l0.04,0.45h7.45v2.6h-7.22l0.1,0.58c0.41,2.3,1.16,4.02,2.24,5.14c1.1,1.14,2.59,1.72,4.42,1.72
		c1.28,0,2.56-0.29,3.81-0.86c1.09-0.5,2.26-1.24,3.49-2.21l1.54,3.37c-1.09,0.99-2.43,1.81-3.99,2.43
		c-1.69,0.67-3.4,1.01-5.09,1.01c-2.94,0-5.4-0.93-7.31-2.77c-1.93-1.86-3.25-4.55-3.92-8l-0.08-0.4H60.7v-2.6h3.9l-0.05-0.53
		c-0.03-0.34-0.04-0.88-0.04-1.64c0-0.75,0.01-1.3,0.04-1.64l0.05-0.53h-3.9v-2.6h4.18l0.08-0.4c0.67-3.42,2-6.1,3.94-7.96
		c1.92-1.84,4.37-2.77,7.29-2.77c1.72,0,3.42,0.33,5.06,0.99c1.52,0.61,2.87,1.43,4.01,2.45l-1.54,3.37
		c-1.24-0.97-2.41-1.71-3.49-2.21c-1.25-0.57-2.54-0.86-3.81-0.86c-1.83,0-3.31,0.58-4.42,1.72C70.91,65.64,70.16,67.36,69.75,69.62
		z"/>
	<path class="st20" d="M75,42.92c-17.69,0-32.07,14.39-32.07,32.08S57.31,107.08,75,107.08S107.08,92.69,107.08,75
		S92.69,42.92,75,42.92z M75,106.09c-17.14,0-31.09-13.95-31.09-31.09S57.86,43.91,75,43.91S106.09,57.86,106.09,75
		S92.14,106.09,75,106.09z"/>
</g>
</svg>
