<!-- Generated by IcoMoon.io -->
<svg version="1.1" xmlns="http://www.w3.org/2000/svg" width="32" height="32" viewBox="0 0 32 32">
<title>bib</title>
<path d="M12.25 32h7.499c4.652 0 8.437-3.785 8.437-8.437v-11.374c0-6.014-4.372-11.035-10.157-12.006l-1.092-0.183v5.672c0.023 0.016 3.75 0.932 3.75 4.642 0 2.585-2.103 4.687-4.687 4.687s-4.687-2.103-4.687-4.687c0-3.798 3.643-4.566 3.75-4.642v-5.672l-1.092 0.183c-5.792 0.972-10.157 5.999-10.157 12.006v11.374c0 4.652 3.785 8.437 8.437 8.437zM5.688 12.189c0-4.672 3.094-8.678 7.499-9.913v2.108c-2.268 1.076-3.75 3.381-3.75 5.93 0 3.618 2.944 6.562 6.562 6.562s6.562-2.944 6.562-6.562c0-2.549-1.482-4.854-3.75-5.93v-2.108c4.406 1.234 7.499 5.24 7.499 9.913v11.374c0 3.618-2.944 6.562-6.562 6.562h-7.499c-3.618 0-6.562-2.944-6.562-6.562z"></path>
</svg>
