<!-- Generated by IcoMoon.io -->
<svg version="1.1" xmlns="http://www.w3.org/2000/svg" width="32" height="32" viewBox="0 0 32 32">
<title>bib2</title>
<path d="M8.84 19.867c0 0.148 0.008 0.296 0.022 0.443 0.024 0.246 0.070 0.494 0.148 0.785l0.056 0.187c1.135 3.636 6.341 6.341 6.561 6.454l0.373 0.192 0.373-0.192c0.221-0.113 5.426-2.818 6.555-6.435l0.067-0.229c0.073-0.266 0.12-0.516 0.143-0.758 0.015-0.149 0.023-0.297 0.023-0.447 0-2.522-2.053-4.575-4.575-4.575-0.932 0-1.828 0.282-2.585 0.803-0.758-0.522-1.653-0.803-2.585-0.803-2.522-0-4.575 2.052-4.575 4.575zM13.415 16.927c0.754 0 1.472 0.288 2.022 0.81l0.563 0.534 0.563-0.534c0.55-0.523 1.268-0.81 2.022-0.81 1.621 0 2.94 1.319 2.94 2.94 0 0.094-0.005 0.189-0.015 0.288-0.014 0.153-0.044 0.312-0.095 0.495l-0.020 0.079 0.783 0.232-0.806-0.166c-0.777 2.49-4.232 4.632-5.377 5.284-1.543-0.868-4.661-3.010-5.374-5.294l-0.040-0.141c-0.048-0.176-0.078-0.337-0.093-0.491-0.009-0.095-0.014-0.189-0.014-0.286-0.002-1.622 1.318-2.941 2.939-2.941z"></path>
<path d="M14.909 4.553c0.328-0.115 0.546-0.424 0.546-0.771v-2.964c0-0.242-0.108-0.473-0.295-0.628s-0.431-0.218-0.671-0.175c-6.781 1.254-12.241 11-12.241 18.234 0 7.583 6.169 13.752 13.752 13.752s13.752-6.169 13.752-13.752c0-7.234-5.46-16.981-12.241-18.234-0.238-0.045-0.485 0.020-0.671 0.175-0.187 0.155-0.295 0.386-0.295 0.628v2.964c0 0.347 0.218 0.656 0.546 0.771 1.314 0.463 2.198 1.709 2.198 3.099 0 1.814-1.475 3.289-3.289 3.289s-3.289-1.476-3.289-3.289c0-1.391 0.883-2.636 2.198-3.1zM16 12.576c2.715 0 4.924-2.209 4.924-4.924 0-1.884-1.081-3.59-2.744-4.411v-1.37c5.447 1.819 9.937 10.163 9.937 16.376 0 6.681-5.436 12.117-12.117 12.117s-12.117-5.436-12.117-12.117c0-6.213 4.489-14.557 9.937-16.376v1.369c-1.662 0.821-2.744 2.527-2.744 4.411 0 2.715 2.209 4.924 4.924 4.924z"></path>
</svg>
