<!-- Generated by IcoMoon.io -->
<svg version="1.1" xmlns="http://www.w3.org/2000/svg" width="32" height="32" viewBox="0 0 32 32">
<title>chirurgia-orale</title>
<path fill="#0080c9" d="M12.651 5.333c-1.99 0-3.61 1.619-3.61 3.61 0 1.958 1.566 3.554 3.511 3.607v3.1h-0.395c-0.482 0-0.875 0.393-0.875 0.875v10.142h2.724v-10.14c0-0.482-0.393-0.875-0.875-0.875h-0.433v-3.1c1.967-0.028 3.558-1.636 3.558-3.61 0.002-1.99-1.617-3.61-3.607-3.61zM11.435 22.818h2.423v1.133h-2.423v-1.133zM13.858 16.527v6.142h-2.423v-6.142c0-0.043 0.006-0.083 0.013-0.124h2.4c0.006 0.038 0.011 0.081 0.011 0.124zM11.435 26.517v-2.415h2.423v2.415h-2.423zM13.805 16.252h-2.315c0.109-0.265 0.367-0.45 0.67-0.45h0.975c0.303 0 0.561 0.186 0.67 0.45zM12.651 12.403c-1.907 0-3.46-1.553-3.46-3.46s1.553-3.46 3.46-3.46c1.907 0 3.46 1.553 3.46 3.46s-1.553 3.46-3.46 3.46z"></path>
<path fill="#0080c9" d="M9.995 8.218l0.145 0.041c0.307-1.129 1.34-1.916 2.511-1.916v-0.149c-1.237-0.002-2.33 0.832-2.656 2.025z"></path>
<path fill="#0080c9" d="M10.082 9.355l-0.149 0.023c0.113 0.717 0.499 1.35 1.086 1.783l0.090-0.122c-0.555-0.41-0.919-1.009-1.026-1.685z"></path>
<path fill="#0080c9" d="M22.084 15.652h-0.527v-3.202l-3.074-3.499 3.177-3.479-0.111-0.1-3.266 3.578 3.125 3.558v3.145h-0.301c-0.482 0-0.875 0.393-0.875 0.875v10.14h2.724v-10.14c0.002-0.484-0.39-0.875-0.873-0.875zM20.384 22.818h2.426v1.133h-2.426v-1.133zM20.397 16.403h2.4c0.006 0.041 0.013 0.081 0.013 0.124v6.142h-2.426v-6.142c0-0.043 0.006-0.085 0.013-0.124zM21.109 15.802h0.975c0.303 0 0.561 0.188 0.67 0.45h-2.315c0.107-0.265 0.367-0.45 0.67-0.45zM20.384 26.517v-2.415h2.426v2.415h-2.426z"></path>
</svg>
