<!-- Generated by IcoMoon.io -->
<svg version="1.1" xmlns="http://www.w3.org/2000/svg" width="32" height="32" viewBox="0 0 32 32">
<title>chirurgia</title>
<path fill="#0080c9" d="M25.728 23.147l-13.355-13.355-0.363 1.323-6.251-6.251-0.064 0.512c-0.043 0.277-0.341 2.773 0.811 3.947 0.725 0.725 1.301 0.832 1.579 0.832l3.264 3.264-0.363 1.301 11.584 11.584c0.427 0.427 0.981 0.661 1.579 0.661 0 0 0 0 0 0 0.597 0 1.152-0.235 1.579-0.661 0.853-0.875 0.853-2.283 0-3.157zM23.253 26.197l1.579-1.579-0.363-0.363-1.621 1.621-0.917-0.917 1.621-1.621-0.363-0.363-1.621 1.621-0.917-0.917 1.621-1.621-0.363-0.363-1.621 1.621-0.917-0.917 1.621-1.621-0.363-0.363-1.621 1.621-0.917-0.917 1.621-1.621-0.363-0.363-1.621 1.621-4.16-4.181c-0.683-0.683-0.683-1.771 0-2.432 0.683-0.683 1.771-0.683 2.432 0l9.365 9.365c0.683 0.683 0.683 1.771 0 2.432-0.555 0.555-1.429 0.661-2.112 0.256zM14.997 13.141c-0.661-0.064-1.323 0.171-1.792 0.64s-0.704 1.152-0.64 1.792l-1.024-1.024 1.067-3.819 2.389 2.411zM6.144 5.973l5.696 5.696-0.341 1.173-3.243-3.243-0.128 0.043c0 0-0.491 0.085-1.259-0.683-0.725-0.725-0.747-2.197-0.725-2.987z"></path>
</svg>
