<!-- Generated by IcoMoon.io -->
<svg version="1.1" xmlns="http://www.w3.org/2000/svg" width="32" height="32" viewBox="0 0 32 32">
<title>conservativa</title>
<path fill="#0080c9" d="M17.856 5.163c-0.619 0-1.237 0.085-1.813 0.277-0.021 0-0.043 0-0.064 0-1.173-0.341-2.432-0.363-3.584-0.021l-0.363 0.107 0.256 0.277c0.491 0.533 0.512 1.387 0 1.92-0.469 0.533-1.28 0.619-1.856 0.213l-0.469-0.32c-0.149-0.107-0.341 0.085-0.213 0.235l0.363 0.427c0.448 0.533 0.427 1.344-0.043 1.856s-1.216 0.619-1.813 0.256l-0.299-0.192-0.064 0.363c-0.043 0.299-0.064 0.597-0.064 0.917 0 0.235 0.021 0.491 0.043 0.725s0.064 0.491 0.128 0.747c0.064 0.235 0.128 0.469 0.213 0.704s0.192 0.469 0.299 0.683c0.128 0.235 0.256 0.448 0.384 0.64 0.277 0.427 0.619 0.789 0.96 1.152 0.256 0.277 0.512 0.555 0.747 0.853 0.107 0.149 0.171 0.277 0.213 0.427s0.064 0.341 0.043 0.512c-0.064 0.469-0.107 2.091 0.213 3.861 0.256 1.536 0.853 3.648 2.219 4.864l0.235 0.213c0.064 0.064 0.192 0 0.171-0.085l-0.021-0.32c0-0.192-0.235-4.608 1.195-6.123 0.341-0.32 0.704-0.491 1.131-0.491s0.789 0.171 1.109 0.491c1.429 1.515 1.216 5.931 1.195 6.123l-0.021 0.299c0 0.085 0.107 0.149 0.171 0.085l0.235-0.213c1.344-1.237 1.941-3.328 2.219-4.864 0.299-1.792 0.277-3.413 0.213-3.861-0.085-0.597 0.384-1.088 0.789-1.536l0.107-0.107c0.576-0.64 1.131-1.28 1.493-2.027 0.427-0.853 0.661-1.813 0.661-2.752-0.021-3.477-2.837-6.315-6.315-6.315zM21.653 15.957l-0.107 0.107c-0.448 0.491-1.003 1.109-0.896 1.92 0.149 1.045 0.043 5.291-1.664 7.637-0.064 0.085-0.192 0.043-0.192-0.064 0-0.448-0.021-1.024-0.064-1.621-0.171-1.877-0.597-3.179-1.28-3.904-0.405-0.427-0.896-0.64-1.451-0.64s-1.045 0.213-1.451 0.64c-0.683 0.725-1.109 2.048-1.28 3.904-0.064 0.619-0.064 1.195-0.064 1.621 0 0.107-0.128 0.149-0.192 0.064-1.707-2.347-1.792-6.592-1.664-7.637 0.043-0.256 0.021-0.491-0.043-0.725-0.064-0.192-0.149-0.384-0.299-0.555-0.235-0.32-0.512-0.619-0.789-0.917-0.32-0.341-0.64-0.683-0.896-1.067-0.128-0.192-0.256-0.405-0.341-0.597-0.107-0.192-0.192-0.405-0.277-0.619-0.085-0.235-0.149-0.448-0.213-0.661s-0.107-0.448-0.128-0.683c-0.021-0.235-0.043-0.448-0.043-0.683 0-0.128 0-0.256 0.021-0.384 0-0.064 0.085-0.107 0.149-0.085 0.683 0.213 1.451 0.021 1.963-0.533 0.427-0.469 0.576-1.088 0.448-1.685-0.021-0.085 0.043-0.149 0.128-0.128 0.597 0.085 1.216-0.128 1.643-0.597 0.533-0.576 0.64-1.451 0.277-2.133-0.043-0.064 0-0.149 0.064-0.149 0.96-0.192 2.005-0.149 2.944 0.149 0.597 0.192 1.152 0.469 1.643 0.832 0.448 0.32 0.832 0.704 1.173 1.109l0.107 0.128 0.363-0.299-0.107-0.128c-0.363-0.448-0.789-0.853-1.259-1.216-0.256-0.171-0.512-0.341-0.768-0.491-0.085-0.043-0.064-0.192 0.043-0.192 0.235-0.021 0.491-0.043 0.725-0.043 3.221 0 5.845 2.624 5.845 5.845 0 0.875-0.213 1.749-0.619 2.539-0.384 0.704-0.896 1.323-1.451 1.941z"></path>
</svg>
