<!-- Generated by IcoMoon.io -->
<svg version="1.1" xmlns="http://www.w3.org/2000/svg" width="32" height="32" viewBox="0 0 32 32">
<title>error</title>
<path fill="#0080c9" d="M25.329 13.95c0-3.808-3.1-6.908-6.908-6.908-0.698 0-1.382 0.102-2.039 0.307-0.661-0.203-1.346-0.307-2.037-0.307-3.808 0-6.908 3.1-6.908 6.908 0 0.267 0.017 0.535 0.049 0.8 0.032 0.269 0.081 0.542 0.147 0.806 0.064 0.262 0.145 0.525 0.241 0.779 0.094 0.252 0.205 0.503 0.329 0.745s0.262 0.478 0.412 0.704c0.307 0.461 0.683 0.862 1.047 1.248 0.288 0.305 0.585 0.623 0.838 0.96 0.122 0.164 0.205 0.32 0.254 0.476 0.055 0.181 0.068 0.382 0.038 0.597-0.070 0.508-0.113 2.283 0.224 4.254 0.29 1.696 0.945 4.002 2.423 5.35l0.373 0.341-0.032-0.506c-0.004-0.051-0.292-5.069 1.338-6.803 0.358-0.38 0.77-0.565 1.263-0.565 0.491 0 0.905 0.186 1.263 0.565 1.63 1.734 1.34 6.752 1.338 6.803l-0.032 0.506 0.373-0.341c1.478-1.346 2.133-3.652 2.423-5.35 0.337-1.971 0.294-3.746 0.224-4.254-0.094-0.672 0.422-1.244 0.877-1.745l0.111-0.122c0.631-0.706 1.233-1.408 1.647-2.231 0.474-0.939 0.723-1.982 0.723-3.017zM22.654 18.923l-0.109 0.122c-0.489 0.542-1.099 1.214-0.977 2.078 0.173 1.239 0.030 6.383-2.155 8.873 0.032-1.385-0.032-5.045-1.468-6.573-0.433-0.461-0.958-0.695-1.562-0.695-0.602 0-1.129 0.235-1.562 0.695-1.438 1.53-1.5 5.188-1.468 6.573-2.187-2.492-2.33-7.635-2.157-8.875 0.038-0.275 0.021-0.535-0.051-0.772-0.062-0.203-0.166-0.399-0.318-0.602-0.267-0.356-0.574-0.683-0.868-0.996-0.352-0.375-0.717-0.762-1.005-1.195-0.143-0.213-0.273-0.437-0.388-0.663-0.117-0.228-0.222-0.463-0.309-0.702-0.090-0.239-0.166-0.486-0.226-0.732-0.062-0.25-0.107-0.503-0.139-0.757-0.030-0.25-0.045-0.501-0.045-0.751 0-3.582 2.914-6.498 6.498-6.498 0.67 0 1.335 0.102 1.975 0.307 0.657 0.209 1.271 0.521 1.833 0.926 0.486 0.352 0.922 0.77 1.293 1.242l0.322-0.254c-0.395-0.501-0.858-0.945-1.376-1.321-0.418-0.303-0.864-0.557-1.335-0.757 0.446-0.096 0.902-0.143 1.363-0.143 3.582 0 6.498 2.914 6.498 6.498 0 0.971-0.235 1.95-0.678 2.831-0.39 0.777-0.973 1.457-1.587 2.142z"></path>
<path fill="#0080c9" d="M13.916 13.824l-1.235 1.237-1.237-1.237-0.29 0.29 1.237 1.237-1.237 1.235 0.29 0.29 1.237-1.235 1.235 1.235 0.29-0.29-1.235-1.235 1.235-1.237z"></path>
<path fill="#0080c9" d="M21.323 13.824l-1.237 1.237-1.237-1.237-0.29 0.29 1.237 1.237-1.237 1.235 0.29 0.29 1.237-1.235 1.237 1.235 0.29-0.29-1.237-1.235 1.237-1.237z"></path>
<path fill="#0080c9" d="M14.697 19.799h3.172v0.41h-3.172v-0.41z"></path>
<path fill="#0080c9" d="M2.095 14.434h-0.405c-0.132 0.887-0.181 0.937-1.069 1.069v0.405c0.887 0.132 0.937 0.181 1.069 1.069h0.405c0.132-0.887 0.181-0.937 1.069-1.069v-0.405c-0.887-0.132-0.937-0.183-1.069-1.069zM1.892 16.102c-0.090-0.186-0.211-0.307-0.397-0.397 0.186-0.090 0.307-0.211 0.397-0.397 0.090 0.186 0.211 0.307 0.397 0.397-0.186 0.087-0.307 0.211-0.397 0.397z"></path>
<path fill="#0080c9" d="M24.879 24.898h-0.405c-0.132 0.887-0.181 0.937-1.069 1.069v0.405c0.887 0.132 0.937 0.181 1.069 1.069h0.405c0.132-0.887 0.181-0.937 1.069-1.069v-0.405c-0.885-0.132-0.937-0.183-1.069-1.069zM24.676 26.566c-0.090-0.186-0.211-0.307-0.397-0.397 0.186-0.090 0.307-0.211 0.397-0.397 0.090 0.186 0.211 0.307 0.397 0.397-0.186 0.087-0.307 0.211-0.397 0.397z"></path>
<path fill="#0080c9" d="M9.566 4.93h0.405c0.213-1.436 0.329-1.553 1.766-1.766v-0.405c-1.436-0.213-1.553-0.329-1.766-1.766h-0.405c-0.213 1.438-0.329 1.553-1.766 1.766v0.405c1.436 0.213 1.551 0.329 1.766 1.766zM9.769 2.027c0.166 0.514 0.422 0.768 0.934 0.934-0.514 0.166-0.768 0.422-0.934 0.934-0.166-0.514-0.42-0.768-0.934-0.934 0.512-0.166 0.768-0.422 0.934-0.934z"></path>
<path fill="#0080c9" d="M29.107 4.058h-0.405c-0.273 1.83-0.442 2.001-2.272 2.272v0.405c1.83 0.273 2.001 0.442 2.272 2.272h0.405c0.273-1.83 0.442-2.001 2.272-2.272v-0.405c-1.83-0.271-2.001-0.442-2.272-2.272zM28.905 7.893c-0.218-0.804-0.557-1.141-1.359-1.359 0.804-0.218 1.141-0.557 1.359-1.359 0.218 0.804 0.557 1.141 1.359 1.359-0.804 0.215-1.141 0.555-1.359 1.359z"></path>
</svg>
