<!-- Generated by IcoMoon.io -->
<svg version="1.1" xmlns="http://www.w3.org/2000/svg" width="32" height="32" viewBox="0 0 32 32">
<title>estetica-sorriso</title>
<path fill="#0080c9" d="M27.285 12.565l-0.363 0.128c-1.643 0.576-3.136-0.32-4.565-1.195-1.173-0.704-2.261-1.387-3.499-1.387-1.771 0-2.539 0.448-2.837 0.811-0.32-0.363-1.067-0.811-2.837-0.811-1.237 0-2.325 0.661-3.499 1.387-1.323 0.789-2.667 1.621-4.139 1.323v0c0 0-0.021 0-0.021 0-0.021 0-0.043-0.021-0.085-0.021-0.064 0-0.107-0.021-0.171-0.043-0.021 0-0.043-0.021-0.085-0.021-0.171-0.043-0.363-0.107-0.491-0.149v0l-0.043-0.021c-0.021 0-0.043-0.021-0.064-0.021l0.149 0.448c0 0.021 0.725 2.24 2.475 4.437 1.621 2.027 4.437 4.437 8.789 4.437 4.331 0 7.168-2.411 8.768-4.437 1.6-2.005 2.347-4.053 2.453-4.373l0.021-0.043 0.021-0.064 0.149-0.427-0.128 0.043zM9.92 11.904c1.109-0.683 2.155-1.301 3.243-1.301 2.283 0 2.581 0.747 2.603 0.832l0.064 0.213h0.384l0.021-0.213c0 0 0.043-0.213 0.405-0.427 0.341-0.213 1.003-0.427 2.197-0.427 1.088 0 2.155 0.64 3.264 1.323 0.939 0.576 1.899 1.152 2.944 1.365-0.299 0.064-0.619 0.107-0.981 0.149l-0.021-0.107h-0.405l-0.021 0.128c0 0.021 0 0.021 0 0.043-0.896 0.107-1.92 0.192-3.093 0.256-0.171-0.171-0.256-0.491-0.341-1.067l-0.021-0.128h-0.427l-0.021 0.107c-0.107 0.683-0.171 0.96-0.405 1.131-1.045 0.064-2.155 0.085-3.307 0.085-2.389 0-4.288-0.064-5.76-0.192-1.472-0.107-2.517-0.256-3.264-0.384 1.045-0.213 2.005-0.811 2.944-1.387zM23.979 14.293c-0.021 0.021-0.107 0.107-0.128 0.128-0.021-0.021-0.107-0.107-0.128-0.128 0.021-0.021 0.064-0.064 0.128-0.128 0.021 0.021 0.107 0.107 0.128 0.128zM20.523 14.293c-0.277 0.128-0.448 0.299-0.576 0.576-0.128-0.277-0.299-0.448-0.576-0.576 0 0 0.021 0 0.043-0.021 0.107-0.064 0.427-0.277 0.533-0.555 0 0 0 0 0 0.021 0 0 0 0.021 0.021 0.043 0 0 0 0.021 0 0.021 0.021 0.043 0.043 0.107 0.085 0.128v0c0.064 0.107 0.213 0.277 0.469 0.363zM24.427 17.131c-0.768 0.981-1.835 2.048-3.221 2.859-1.387 0.832-3.115 1.408-5.184 1.408-4.16 0-6.869-2.325-8.405-4.267-0.704-0.896-1.259-1.792-1.643-2.56 0.277 0.32 0.683 0.683 1.173 1.045 1.557 1.152 4.309 2.517 8.704 2.539h0.32c0.96-0.021 1.899-0.085 2.795-0.213s1.728-0.341 2.539-0.597c0.085 0.107 0.128 0.299 0.192 0.704l0.021 0.128h0.405l0.021-0.128c0.128-0.789 0.149-0.811 0.939-0.939l0.128-0.021v-0.448h-0.064c1.323-0.661 2.283-1.429 2.923-2.091-0.384 0.725-0.917 1.643-1.643 2.581zM21.675 16.853c0.107-0.064 0.192-0.149 0.256-0.256 0.043 0.107 0.128 0.192 0.256 0.256-0.107 0.064-0.192 0.149-0.256 0.256-0.064-0.107-0.149-0.192-0.256-0.256zM22.379 16.491c-0.149-0.085-0.213-0.256-0.277-0.768l-0.021-0.128h-0.405l-0.021 0.128c-0.128 0.789-0.149 0.811-0.939 0.939l-0.128 0.021v0.384h0.064c-1.408 0.405-2.987 0.597-4.672 0.597-3.2 0-5.547-0.704-7.211-1.6-1.664-0.875-2.667-1.941-3.179-2.624 1.131 0.363 3.883 0.875 10.24 0.875h0.32c0.64 0 1.237 0 1.813-0.021l0.192 0.043v0.171l0.128 0.021c1.152 0.171 1.237 0.256 1.408 1.408l0.021 0.128h0.427l0.021-0.128c0.171-1.152 0.256-1.237 1.408-1.408l0.128-0.021v-0.341c0.597-0.043 1.152-0.085 1.664-0.149-0.085 0.021-0.192 0.043-0.363 0.064l-0.128 0.021v0.427l0.128 0.021c0.533 0.085 0.533 0.085 0.597 0.597l0.021 0.128h0.405l0.021-0.128c0.085-0.533 0.085-0.533 0.597-0.597l0.128-0.021v-0.427l-0.128-0.021c-0.341-0.043-0.448-0.085-0.512-0.171 1.067-0.149 1.771-0.32 2.24-0.448-0.576 0.789-1.792 2.069-3.989 3.029z"></path>
<path fill="#0080c9" d="M19.989 13.824c0 0 0.085 0.192 0.213 0.299z"></path>
<path fill="#0080c9" d="M5.547 12.821c0 0-0.021 0-0.043 0 0.021 0 0.043 0 0.043 0v0z"></path>
</svg>
