<!-- Generated by IcoMoon.io -->
<svg version="1.1" xmlns="http://www.w3.org/2000/svg" width="32" height="32" viewBox="0 0 32 32">
<title>finanziamento</title>
<path fill="#0080c9" d="M29.431 6.839l-0.013-0.090-0.090-0.002c-7.631-0.16-13.175-5.841-13.231-5.899l-0.098 0.094-0.098-0.094c-0.055 0.058-5.596 5.741-13.231 5.899l-0.090 0.002-0.013 0.090c-0.004 0.038-0.489 3.827 0.913 8.691 1.293 4.489 4.501 10.837 12.442 15.605l0.026 0.015h0.102l0.026-0.015c7.94-4.768 11.149-11.117 12.442-15.605 1.402-4.864 0.919-8.653 0.913-8.691zM28.314 15.482c-1.282 4.442-4.459 10.726-12.314 15.456-7.855-4.727-11.031-11.012-12.314-15.456-1.274-4.412-0.981-7.93-0.919-8.525 7.273-0.194 12.644-5.323 13.233-5.909 0.589 0.585 5.961 5.713 13.233 5.907 0.064 0.597 0.354 4.115-0.919 8.527z"></path>
<path fill="#0080c9" d="M16.301 13.611c0.241 0 0.486 0.055 0.727 0.164 0.245 0.111 0.516 0.29 0.804 0.527l0.105 0.087 0.506-1.103-0.055-0.051c-0.273-0.26-0.604-0.467-0.977-0.617-0.375-0.149-0.764-0.226-1.158-0.226-0.676 0-1.248 0.218-1.7 0.649-0.431 0.412-0.727 0.99-0.885 1.724h-0.93v0.975h0.817c-0.002 0.068-0.004 0.151-0.004 0.254 0 0.1 0.002 0.186 0.004 0.254h-0.817v0.975h0.93c0.156 0.74 0.452 1.323 0.879 1.732 0.448 0.431 1.022 0.649 1.705 0.649 0.386 0 0.777-0.077 1.163-0.23s0.713-0.358 0.975-0.612l0.053-0.051-0.503-1.103-0.105 0.087c-0.288 0.239-0.559 0.416-0.804 0.527-0.241 0.109-0.484 0.164-0.727 0.164-0.335 0-0.595-0.098-0.791-0.303-0.181-0.188-0.316-0.478-0.397-0.862h1.498v-0.975h-1.604c-0.002-0.068-0.004-0.151-0.004-0.254 0-0.1 0.002-0.186 0.004-0.254h1.604v-0.975h-1.498c0.083-0.38 0.215-0.666 0.397-0.853 0.198-0.198 0.457-0.299 0.791-0.299zM14.88 14.852l-0.021 0.124h1.542v0.555h-1.589l-0.009 0.096c-0.006 0.081-0.011 0.205-0.011 0.367s0.004 0.286 0.011 0.367l0.009 0.096h1.589v0.555h-1.54l0.021 0.124c0.087 0.491 0.247 0.858 0.478 1.097 0.235 0.243 0.553 0.367 0.943 0.367 0.273 0 0.546-0.062 0.813-0.183 0.233-0.107 0.482-0.265 0.745-0.471l0.329 0.719c-0.233 0.211-0.518 0.386-0.851 0.518-0.361 0.143-0.725 0.215-1.086 0.215-0.627 0-1.152-0.198-1.559-0.591-0.412-0.397-0.693-0.971-0.836-1.707l-0.017-0.085h-0.89v-0.555h0.832l-0.011-0.113c-0.006-0.073-0.009-0.188-0.009-0.35 0-0.16 0.002-0.277 0.009-0.35l0.011-0.113h-0.832v-0.555h0.892l0.017-0.085c0.143-0.73 0.427-1.301 0.841-1.698 0.41-0.393 0.932-0.591 1.555-0.591 0.367 0 0.73 0.070 1.079 0.211 0.324 0.13 0.612 0.305 0.855 0.523l-0.329 0.719c-0.265-0.207-0.514-0.365-0.745-0.471-0.267-0.122-0.542-0.183-0.813-0.183-0.39 0-0.706 0.124-0.943 0.367-0.233 0.235-0.393 0.602-0.48 1.084z"></path>
<path fill="#0080c9" d="M16 9.156c-3.774 0-6.842 3.070-6.842 6.844s3.068 6.844 6.842 6.844 6.844-3.070 6.844-6.844-3.070-6.844-6.844-6.844zM16 22.633c-3.657 0-6.633-2.976-6.633-6.633s2.976-6.633 6.633-6.633 6.633 2.976 6.633 6.633-2.976 6.633-6.633 6.633z"></path>
</svg>
