<!-- Generated by IcoMoon.io -->
<svg version="1.1" xmlns="http://www.w3.org/2000/svg" width="32" height="32" viewBox="0 0 32 32">
<title>finanziamento</title>
<path fill="#0080c9" d="M29.589 6.827l-0.021-0.213h-0.235c-7.552-0.192-13.056-5.824-13.12-5.867l-0.213-0.213-0.213 0.213c-0.064 0.064-5.568 5.696-13.12 5.845h-0.235l-0.021 0.235c-0.043 0.405-0.427 4.053 0.917 8.747 1.301 4.523 4.523 10.901 12.523 15.701l0.064 0.043 0.085 0.064 0.107-0.064 0.064-0.043c7.979-4.8 11.221-11.179 12.523-15.701 1.387-4.864 0.917-8.619 0.896-8.747zM28.16 15.445c-1.259 4.395-4.416 10.624-12.16 15.317-7.744-4.693-10.901-10.923-12.16-15.317-1.173-4.096-1.003-7.424-0.917-8.32 6.933-0.256 12.096-4.907 13.077-5.845 0.981 0.939 6.165 5.589 13.077 5.845 0.085 0.896 0.277 4.181-0.917 8.32z"></path>
<path fill="#0080c9" d="M16.299 13.76c0.213 0 0.448 0.043 0.661 0.149 0.235 0.107 0.491 0.277 0.768 0.512l0.256 0.213 0.64-1.408-0.149-0.128c-0.277-0.277-0.64-0.491-1.024-0.64-0.405-0.149-0.811-0.235-1.216-0.235-0.725 0-1.323 0.235-1.813 0.683-0.427 0.405-0.725 0.981-0.896 1.685h-0.939v1.301h0.811c0 0.021 0 0.064 0 0.085 0 0.043 0 0.064 0 0.085h-0.811v1.301h0.96c0.171 0.704 0.469 1.28 0.896 1.685 0.469 0.469 1.088 0.683 1.813 0.683 0.405 0 0.811-0.085 1.216-0.235 0.405-0.171 0.747-0.384 1.024-0.64l0.128-0.128-0.64-1.387-0.256 0.213c-0.277 0.235-0.533 0.405-0.768 0.512-0.213 0.107-0.448 0.149-0.661 0.149-0.299 0-0.512-0.085-0.683-0.256-0.128-0.128-0.235-0.341-0.299-0.597h1.451v-1.301h-1.6c0-0.021 0-0.064 0-0.085 0-0.043 0-0.064 0-0.085h1.6v-1.301h-1.451c0.085-0.256 0.171-0.448 0.299-0.576 0.171-0.171 0.405-0.256 0.683-0.256zM14.72 14.827l-0.043 0.32h1.579v0.213h-1.579l-0.021 0.235c0 0.085-0.021 0.213-0.021 0.384 0 0.149 0 0.277 0.021 0.384l0.021 0.235h1.579v0.256h-1.579l0.064 0.32c0.085 0.512 0.277 0.917 0.512 1.173 0.256 0.277 0.619 0.405 1.067 0.405 0.299 0 0.597-0.064 0.875-0.192 0.192-0.085 0.405-0.213 0.619-0.363l0.192 0.427c-0.213 0.171-0.448 0.299-0.725 0.405-0.341 0.128-0.683 0.213-1.024 0.213-0.576 0-1.067-0.192-1.451-0.555-0.384-0.384-0.661-0.917-0.789-1.621l-0.043-0.213h-0.853v-0.235h0.853l-0.021-0.277c0-0.064 0-0.171 0-0.341s0-0.277 0-0.341l0.021-0.299h-0.853v-0.213h0.853l0.043-0.213c0.128-0.704 0.405-1.237 0.789-1.621 0.384-0.363 0.875-0.555 1.451-0.555 0.341 0 0.683 0.064 1.024 0.192 0.277 0.107 0.512 0.256 0.725 0.427l-0.192 0.427c-0.213-0.149-0.427-0.277-0.619-0.363-0.277-0.128-0.576-0.192-0.875-0.192-0.427 0-0.789 0.149-1.067 0.405-0.256 0.256-0.427 0.661-0.533 1.173z"></path>
<path fill="#0080c9" d="M9.003 16c0 3.861 3.136 6.997 6.997 6.997s6.997-3.136 6.997-6.997-3.136-6.997-6.997-6.997-6.997 3.136-6.997 6.997zM16 22.464c-3.563 0-6.464-2.901-6.464-6.464s2.901-6.464 6.464-6.464 6.464 2.901 6.464 6.464-2.901 6.464-6.464 6.464z"></path>
</svg>
