<!-- Generated by IcoMoon.io -->
<svg version="1.1" xmlns="http://www.w3.org/2000/svg" width="32" height="32" viewBox="0 0 32 32">
<title>formazione</title>
<path fill="#0080c9" d="M27.029 27.247h-22.059v-26.281l17.99-0.026 4.068 4.068v22.238zM5.182 27.038h21.638v-21.941l-3.947-3.945-17.692 0.026v25.86z"></path>
<path fill="#0080c9" d="M21.666 26.306c-2.204 0-3.996-1.792-3.996-3.996s1.792-3.996 3.996-3.996 3.996 1.792 3.996 3.996-1.792 3.996-3.996 3.996zM21.666 18.526c-2.086 0-3.787 1.698-3.787 3.787s1.698 3.787 3.787 3.787 3.787-1.698 3.787-3.787-1.7-3.787-3.787-3.787z"></path>
<path fill="#0080c9" d="M23.686 31.059l-2.089-2.59-1.956 2.421 0.51-4.964 0.209 0.021-0.437 4.26 1.675-2.074 1.813 2.246-0.429-4.437 0.211-0.021z"></path>
<path fill="#0080c9" d="M21.039 23.81l-1.523-1.523 0.149-0.149 1.374 1.376 2.628-2.628 0.149 0.149z"></path>
<path fill="#0080c9" d="M26.925 5.195h-4.113v-4.147h0.211v3.936h3.902z"></path>
<path fill="#0080c9" d="M8.446 3.637h10.816v0.211h-10.816v-0.211z"></path>
<path fill="#0080c9" d="M8.446 6.332h10.816v0.211h-10.816v-0.211z"></path>
<path fill="#0080c9" d="M8.446 9.026h15.324v0.211h-15.324v-0.211z"></path>
<path fill="#0080c9" d="M8.446 11.723h15.324v0.211h-15.324v-0.211z"></path>
<path fill="#0080c9" d="M8.446 14.417h15.324v0.211h-15.324v-0.211z"></path>
<path fill="#0080c9" d="M8.446 17.111h7.767v0.211h-7.767v-0.211z"></path>
<path fill="#0080c9" d="M8.446 19.806h7.767v0.211h-7.767v-0.211z"></path>
<path fill="#0080c9" d="M8.446 22.502h7.767v0.211h-7.767v-0.211z"></path>
</svg>
