<!-- Generated by IcoMoon.io -->
<svg version="1.1" xmlns="http://www.w3.org/2000/svg" width="32" height="32" viewBox="0 0 32 32">
<title>formazione</title>
<path fill="#0080c9" d="M27.2 4.949l-0.107-0.107v-0.021h-0.021l-3.883-3.883v-0.043h-0.043l-0.107-0.107-18.24 0.021v26.603h15.040l-0.405 4.011 2.176-2.688 2.283 2.837-0.405-4.16h3.691v-22.464zM22.955 27.243l0.021 0.171 0.235 2.453-1.6-1.984-1.451 1.813 0.235-2.283 0.021-0.171 0.021-0.213 0.021-0.171 0.064-0.576c0.384 0.107 0.768 0.171 1.173 0.171s0.811-0.064 1.195-0.171l0.064 0.597 0.021 0.171-0.021 0.192zM18.048 22.315c0-2.005 1.621-3.627 3.627-3.627s3.627 1.621 3.627 3.627c0 2.005-1.621 3.627-3.627 3.627s-3.627-1.621-3.627-3.627zM23.36 26.091c1.451-0.661 2.453-2.112 2.453-3.797 0-2.283-1.856-4.16-4.16-4.16s-4.16 1.856-4.16 4.16c0 1.685 1.024 3.136 2.453 3.797l-0.085 0.768h-14.528v-25.515l17.301-0.021v4.053h4.032v21.504h-3.221l-0.085-0.789zM23.189 4.821v-3.136l3.136 3.136h-3.136z"></path>
<path fill="#0080c9" d="M23.659 20.651l-2.624 2.645-1.365-1.387-0.384 0.384 1.749 1.749 3.008-3.008z"></path>
<path fill="#0080c9" d="M8.277 3.477h11.136v0.533h-11.136v-0.533z"></path>
<path fill="#0080c9" d="M8.277 6.165h11.136v0.533h-11.136v-0.533z"></path>
<path fill="#0080c9" d="M8.277 8.875h15.637v0.533h-15.637v-0.533z"></path>
<path fill="#0080c9" d="M8.277 11.563h15.637v0.533h-15.637v-0.533z"></path>
<path fill="#0080c9" d="M8.277 14.251h15.637v0.533h-15.637v-0.533z"></path>
<path fill="#0080c9" d="M8.277 16.96h8.085v0.533h-8.085v-0.533z"></path>
<path fill="#0080c9" d="M8.277 19.648h8.085v0.533h-8.085v-0.533z"></path>
<path fill="#0080c9" d="M8.277 22.336h8.085v0.533h-8.085v-0.533z"></path>
</svg>
