<!-- Generated by IcoMoon.io -->
<svg version="1.1" xmlns="http://www.w3.org/2000/svg" width="32" height="32" viewBox="0 0 32 32">
<title>geoloc</title>
<path fill="#0080c9" d="M16 27.435l-0.064-0.085c-0.32-0.427-7.957-10.411-7.957-14.763 0-4.416 3.605-8.021 8.021-8.021s8.021 3.605 8.021 8.021c0 4.373-7.637 14.357-7.957 14.763l-0.064 0.085zM16 4.715c-4.331 0-7.872 3.541-7.872 7.872 0 1.771 1.365 4.885 3.968 8.96 1.771 2.795 3.563 5.184 3.904 5.632 0.341-0.448 2.133-2.837 3.904-5.632 2.603-4.096 3.968-7.189 3.968-8.96 0-4.331-3.541-7.872-7.872-7.872z"></path>
<path fill="#0080c9" d="M16 27.691l-0.192-0.235c-0.832-1.067-8-10.581-8-14.869 0-4.501 3.669-8.192 8.192-8.192s8.171 3.669 8.171 8.192c0 4.288-7.168 13.803-8 14.869l-0.171 0.235zM16 4.885c-4.245 0-7.701 3.456-7.701 7.701 0 1.749 1.365 4.821 3.947 8.875 1.557 2.453 3.157 4.629 3.776 5.461 0.619-0.811 2.219-2.987 3.776-5.461 2.581-4.053 3.947-7.125 3.947-8.875-0.021-4.245-3.499-7.701-7.744-7.701z"></path>
<path fill="#0080c9" d="M16 16.085c-1.621 0-2.944-1.323-2.944-2.944s1.323-2.923 2.944-2.923 2.944 1.323 2.944 2.944-1.323 2.923-2.944 2.923zM16 10.368c-1.536 0-2.795 1.259-2.795 2.795s1.259 2.773 2.795 2.773 2.795-1.259 2.795-2.795-1.259-2.773-2.795-2.773z"></path>
<path fill="#0080c9" d="M16 16.256c-1.707 0-3.093-1.387-3.093-3.093s1.387-3.115 3.093-3.115c1.707 0 3.093 1.387 3.093 3.093s-1.387 3.115-3.093 3.115zM16 10.517c-1.451 0-2.624 1.173-2.624 2.624s1.173 2.645 2.624 2.645c1.451 0 2.624-1.173 2.624-2.624s-1.173-2.645-2.624-2.645z"></path>
</svg>
