<!-- Generated by IcoMoon.io -->
<svg version="1.1" xmlns="http://www.w3.org/2000/svg" width="32" height="32" viewBox="0 0 32 32">
<title>handshake</title>
<path d="M19.333 20.267c-0.667 0-1.333-0.267-1.733-0.667l-1.333-1.333c-0.267-0.267-0.267-0.667 0-0.933s0.667-0.267 0.933 0l1.333 1.333c0.4 0.4 1.2 0.4 1.733 0 0.533-0.533 0.533-1.2 0-1.733l-4-4c-0.267-0.267-0.267-0.667 0-0.933s0.667-0.267 0.933 0l4 4c0.933 0.933 0.933 2.533 0 3.6-0.533 0.4-1.2 0.667-1.867 0.667z"></path>
<path d="M4.667 11.333c-0.267 0-0.533-0.133-0.667-0.4-0.133-0.4 0-0.667 0.4-0.933l5.733-2.4c1.2-0.533 2.667-0.267 3.6 0.667l0.8 0.8c0.267 0.267 0.267 0.667 0 0.933s-0.667 0.267-0.933 0l-0.8-0.667c-0.533-0.533-1.467-0.667-2.133-0.4l-5.733 2.4c-0.133 0-0.133 0-0.267 0z"></path>
<path d="M14.4 14c-0.667 0-1.2-0.267-1.733-0.667-0.533-0.667-0.8-1.467-0.667-2.267s0.533-1.467 1.333-1.733l4.667-2.267c0.933-0.4 1.867-0.533 2.8-0.133l6.933 2.8c0.4 0.133 0.533 0.533 0.4 0.933s-0.533 0.533-0.933 0.4l-6.933-2.8c-0.533-0.267-1.2-0.267-1.6 0l-4.667 2.267c-0.4 0.133-0.667 0.4-0.667 0.8s0 0.667 0.267 0.933c0.4 0.4 0.933 0.4 1.333 0.267l4.133-2.133c0.267-0.133 0.667 0 0.933 0.267 0.133 0.267 0 0.667-0.267 0.933l-4.133 2.133c-0.4 0.133-0.8 0.267-1.2 0.267z"></path>
<path d="M16.667 22.8c-0.667 0-1.333-0.267-1.733-0.8l-1.733-1.733c-0.267-0.267-0.267-0.667 0-0.933s0.667-0.267 0.933 0l1.733 1.733c0.4 0.4 1.2 0.4 1.733 0s0.4-1.2 0-1.733l-1.333-1.333c-0.267-0.267-0.267-0.667 0-0.933s0.667-0.267 0.933 0l1.333 1.333c0.933 0.933 0.933 2.533 0 3.6-0.533 0.533-1.2 0.8-1.867 0.8z"></path>
<path d="M13.733 25.2c-0.667 0-1.2-0.267-1.733-0.667l-3.067-2.8c-1.2-1.067-2.667-1.6-4.267-1.6-0.4-0.133-0.667-0.4-0.667-0.8s0.267-0.667 0.667-0.667c1.867 0 3.733 0.667 5.2 2l3.067 2.8c0.533 0.4 1.2 0.4 1.733 0 0.533-0.533 0.533-1.2 0-1.733l-1.333-1.333c-0.267-0.267-0.267-0.667 0-0.933s0.667-0.267 0.933 0l1.333 1.333c0.933 0.933 0.933 2.533 0 3.6-0.533 0.533-1.2 0.8-1.867 0.8z"></path>
<path d="M24.133 20.667c-0.4 0-0.667 0-1.067-0.133l-2.533-0.8c-0.4-0.133-0.533-0.533-0.4-0.8 0.133-0.4 0.533-0.533 0.8-0.4l2.533 0.8c0.667 0.267 1.467 0.133 2-0.4l1.467-1.333c0.267-0.267 0.667-0.267 0.933 0s0.267 0.667 0 0.933l-1.467 1.333c-0.8 0.533-1.6 0.8-2.267 0.8z"></path>
<path d="M31.333 21.333h-4c-0.4 0-0.667-0.267-0.667-0.667v-12c0-0.4 0.267-0.667 0.667-0.667h4c0.4 0 0.667 0.267 0.667 0.667v12c0 0.4-0.267 0.667-0.667 0.667zM28 20h2.667v-10.667h-2.667z"></path>
<path d="M4.667 21.333h-4c-0.4 0-0.667-0.267-0.667-0.667v-12c0-0.4 0.267-0.667 0.667-0.667h4c0.4 0 0.667 0.267 0.667 0.667v12c0 0.4-0.267 0.667-0.667 0.667zM1.333 20h2.667v-10.667h-2.667z"></path>
</svg>
