<!-- Generated by IcoMoon.io -->
<svg version="1.1" xmlns="http://www.w3.org/2000/svg" width="32" height="32" viewBox="0 0 32 32">
<title>igiene-orale</title>
<path fill="#0080c9" d="M17.045 16.235l-0.021-0.043-4.096-1.813-0.256-0.256 0.704-0.704 0.064 0.384 0.32-0.32c1.216-1.216 1.323-2.261 1.195-2.944-0.149-0.747-0.576-1.195-0.597-1.216l-2.005-2.005c-1.152-1.152-1.237-1.771-1.237-1.771l-0.064-0.64-0.384 0.512c-0.021 0.043-0.597 0.853-0.853 1.792l-2.027 2.027-0.555-0.555-1.451 1.451 6.4 6.4 3.947 1.728 8.619 8.619 1.472-1.472-9.173-9.173zM9.707 8c0 0.469 0.128 0.896 0.384 1.216l-1.152 1.152-0.789-0.789 1.557-1.579zM14.123 12.224c0.043-0.875-0.277-1.792-0.917-2.411l-1.685-1.685c-0.533-0.533-0.597-1.237-0.555-1.749 0.192 0.32 0.533 0.747 1.045 1.259l2.005 2.005c0.043 0.043 1.024 1.067 0.107 2.581zM10.475 6.784c0.021 0.555 0.192 1.173 0.704 1.685l1.685 1.685c0.597 0.597 0.875 1.557 0.725 2.368-0.384-0.896-1.045-1.472-1.173-1.579l-1.877-1.877c-0.576-0.597-0.363-1.557-0.064-2.283zM11.52 10.709l0.576 0.576c0.021 0.021 0.021 0.021 0.021 0.021 0.021 0.021 0.107 0.085 0.192 0.192l-1.152 1.152-0.789-0.789 1.152-1.152zM11.179 10.368l-1.131 1.152-0.789-0.789 1.152-1.152 0.768 0.789zM13.227 12.864l-0.917 0.917-0.789-0.789 1.131-1.131c0.256 0.32 0.448 0.661 0.576 1.003zM7.232 9.365l5.397 5.397 4.075 1.813 5.461 5.461-0.789 0.789-4.949-4.949-3.947-1.728-6.016-6.016 0.768-0.768zM23.296 23.168l-0.789 0.789-0.789-0.789 0.789-0.789 0.789 0.789zM23.637 23.509l1.92 1.92-0.789 0.789-1.92-1.92 0.789-0.789z"></path>
</svg>
