<!-- Generated by IcoMoon.io -->
<svg version="1.1" xmlns="http://www.w3.org/2000/svg" width="32" height="32" viewBox="0 0 32 32">
<title>igiene-orale</title>
<path fill="#0080c9" d="M25.993 25.423l-9.097-9.105-4.077-1.809-0.397-0.397 1.035-1.035c0.019 0.073 0.036 0.147 0.049 0.224l0.026 0.149 0.109-0.109c1.163-1.163 1.265-2.167 1.148-2.803-0.13-0.693-0.533-1.105-0.55-1.122l-2.010-2.010c-1.207-1.207-1.291-1.858-1.291-1.865l-0.021-0.209-0.124 0.177c-0.041 0.058-0.599 0.866-0.834 1.788l-2.178 2.176-0.553-0.553-1.218 1.218 6.27 6.27 3.947 1.734 8.521 8.523 0.081-0.081 1.165-1.163zM24.747 26.443l-2.138-2.138 1.020-1.020 2.138 2.138-1.020 1.020zM22.496 24.192l-1.024-1.024 1.020-1.020 1.024 1.024-1.020 1.020zM12.309 14.001l-1.020-1.020 1.37-1.37c0.258 0.301 0.57 0.742 0.747 1.293l-1.097 1.097zM10.398 9.355l1.015 1.015-1.37 1.37-1.015-1.015 1.37-1.37zM11.526 10.481l0.687 0.687c0.006 0.006 0.011 0.011 0.017 0.015 0.036 0.030 0.162 0.137 0.322 0.309l-1.376 1.376-1.020-1.020 1.37-1.367zM13.579 12.928c-0.32-1.077-1.146-1.783-1.254-1.873l-1.871-1.869c-0.894-0.894-0.192-2.451 0.222-3.183-0.092 0.591-0.113 1.611 0.619 2.342l1.694 1.694c0.774 0.774 1.033 2.080 0.623 3.017-0.009-0.034-0.017-0.070-0.028-0.105l0.009-0.009-0.013-0.015zM12.115 7.524l2.010 2.010c0.060 0.060 1.365 1.419-0.279 3.356 0.311-0.973 0.028-2.191-0.742-2.961l-1.694-1.694c-0.766-0.766-0.649-1.879-0.542-2.385 0.126 0.311 0.448 0.875 1.248 1.675zM9.899 7.582c-0.098 0.585-0.036 1.188 0.39 1.655l-1.372 1.372-1.024-1.024 2.005-2.003zM12.38 16.288l-6.146-6.146 0.994-0.994 5.489 5.485 4.075 1.813 5.589 5.589-1.020 1.020-5.035-5.035-3.947-1.732z"></path>
</svg>
