<!-- Generated by IcoMoon.io -->
<svg version="1.1" xmlns="http://www.w3.org/2000/svg" width="32" height="32" viewBox="0 0 32 32">
<title>impianti-dentali</title>
<path fill="#0080c9" d="M17.877 5.163c-0.619 0-1.259 0.085-1.856 0.277-0.597-0.192-1.237-0.277-1.856-0.277-3.499 0-6.357 2.859-6.357 6.357 0 0.213 0.021 0.469 0.043 0.725 0.021 0.235 0.064 0.491 0.128 0.747 0.043 0.235 0.128 0.469 0.213 0.725 0.085 0.235 0.192 0.469 0.299 0.683 0.128 0.213 0.256 0.427 0.384 0.64 0.277 0.427 0.64 0.811 0.96 1.152l0.021 0.043c0.256 0.256 0.512 0.533 0.725 0.832 0.085 0.107 0.128 0.192 0.171 0.277 0.043 0.917 0.789 1.643 1.707 1.643h0.555v1.109l-0.405 0.043 0.043 0.469 0.363-0.043v0.981l-0.405 0.043 0.043 0.469 0.363-0.043v0.981l-0.405 0.043 0.043 0.469 0.363-0.043v0.96l-0.405 0.043 0.043 0.469 0.533-0.043 2.816 1.963 2.987-2.091v-0.448l0.405-0.043-0.043-0.469-0.363 0.043v-0.981l0.405-0.043-0.043-0.469-0.363 0.043v-0.981l0.405-0.043-0.043-0.469-0.363 0.043v-0.981l0.405-0.043-0.043-0.469-0.363 0.043v-0.512h0.597c0.917 0 1.685-0.725 1.707-1.643 0.171-0.32 0.448-0.64 0.683-0.896l0.085-0.107c0.576-0.64 1.131-1.28 1.515-2.048 0.427-0.875 0.661-1.813 0.661-2.773 0-3.52-2.859-6.357-6.357-6.357zM16.747 25.771l-0.747 0.533-0.747-0.533h1.493zM13.888 24.832l4.608-0.448v0.149l-1.088 0.768h-2.837l-0.683-0.469zM13.483 24.384v-0.981l5.035-0.491v0.981l-5.035 0.491zM13.483 22.933v-0.981l5.035-0.491v0.981l-5.035 0.491zM13.483 21.483v-0.981l5.035-0.491v0.981l-5.035 0.491zM13.483 20.032v-1.045h5.035v0.555l-5.035 0.491zM11.136 17.067c-0.043-0.107-0.107-0.192-0.149-0.235-0.235-0.32-0.512-0.597-0.768-0.875l-0.064-0.064c-0.32-0.341-0.64-0.683-0.896-1.067-0.149-0.192-0.256-0.405-0.363-0.597-0.107-0.213-0.192-0.427-0.277-0.64s-0.149-0.427-0.213-0.661c-0.064-0.235-0.107-0.469-0.128-0.683-0.021-0.235-0.043-0.469-0.043-0.683 0-3.243 2.645-5.888 5.888-5.888 0.597 0 1.216 0.085 1.792 0.277 0.597 0.192 1.152 0.469 1.664 0.832 0.448 0.32 0.832 0.704 1.173 1.131l0.107 0.128 0.363-0.299-0.107-0.128c-0.363-0.469-0.789-0.875-1.259-1.216-0.341-0.256-0.704-0.469-1.088-0.64 0.363-0.064 0.725-0.107 1.088-0.107 3.243 0 5.888 2.645 5.888 5.888 0 0.875-0.213 1.771-0.619 2.56-0.363 0.704-0.896 1.323-1.451 1.941l-0.085 0.107c-0.235 0.256-0.512 0.576-0.704 0.917h-9.749zM19.584 18.539h-7.104c-0.597 0-1.109-0.427-1.216-1.003h9.536c-0.128 0.576-0.619 1.003-1.216 1.003z"></path>
</svg>
