<?xml version="1.0" encoding="utf-8"?>
<!-- Generator: Adobe Illustrator 24.1.0, SVG Export Plug-In . SVG Version: 6.00 Build 0)  -->
<svg version="1.1" id="Livello_1" xmlns="http://www.w3.org/2000/svg" xmlns:xlink="http://www.w3.org/1999/xlink" x="0px" y="0px"
	 viewBox="0 0 200 200" style="enable-background:new 0 0 200 200;" xml:space="preserve">
<style type="text/css">
	.st0{fill:#FFFFFF;}
</style>
<path class="st0" d="M188.13,101.41L188.13,101.41v0.23v0.15c-0.04,0.94-0.11,1.87-0.15,2.8l-0.04,0.49
	c-0.08,0.9-0.15,1.79-0.3,2.88l-0.04,0.34c-0.07,0.71-0.18,1.42-0.26,2.13l-8.08-8.64h0.04c0.18-0.07,0.37-0.15,0.56-0.18l1.87-0.57
	l0.23-0.07c0.11-0.04,0.18-0.04,0.33-0.08l2.43-0.52l0.68-0.11c0.18-0.04,0.33-0.08,0.56-0.08c0.19-0.04,0.37-0.04,0.56-0.07
	l0.33-0.04c0.11,0,0.23-0.04,0.37-0.04c0.19-0.03,0.37-0.03,0.6-0.03l0.37-0.04C188.17,100.4,188.13,100.88,188.13,101.41
	 M186.04,117.22l-0.08,0.23c-0.23,0.97-0.44,1.94-0.71,2.84l-0.04,0.15c-0.22,0.9-0.49,1.8-0.75,2.65l-14.69-15.85
	c0.42-0.33,0.86-0.67,1.31-1.01l1.05-0.75l0.08-0.07l0.07-0.03l0.23-0.16c0.23-0.15,0.45-0.3,0.64-0.44l0.49-0.3
	c0.18-0.11,0.41-0.26,0.67-0.41c0.08-0.04,0.15-0.07,0.26-0.15l0.49-0.26l11.26,12.15L186.04,117.22z M180.24,134.27l-17.53-18.92
	c1.12-1.83,2.39-3.51,3.85-5.08l16.3,17.58C182.11,130.01,181.21,132.14,180.24,134.27 M174.89,144.22l-16.38-17.69
	c0.41-2.43,1.12-4.82,2.05-7.03l17.61,19C177.17,140.41,176.05,142.35,174.89,144.22 M167.19,154.76c-0.97-1.01-1.87-2.05-2.77-3.21
	c-2.87-3.86-4.82-8.19-5.76-12.87c-0.41-2.02-0.64-4.11-0.64-6.24l14.39,15.51C170.78,150.31,169.02,152.59,167.19,154.76
	 M164.09,158.28L164.09,158.28c-4.45,5.9-12.04,11.63-23.22,17.46c-11.26,5.87-23.75,9.34-36.08,9.98
	c-25.09,1.46-50.55-8.6-68.2-26.81c-0.23-0.23-0.45-0.45-0.67-0.67l-0.19-0.19c0.64-0.64,1.24-1.27,1.79-1.94l0.86,0.78
	c14.62,13.91,36.42,22.7,58.33,23.48h0.56v-0.71c-0.04-1.2-0.08-28.31,0-39.9c0-3.26,0.04-5.61,0.04-6.32v-7.56
	c1.98,0.08,3.74,0.11,5.42,0v53.88v0.53h0.18c1.01,0.48,15.33-1.84,15.48-1.87c5.35-1.12,10.62-2.65,15.63-4.64
	c10.5-4.11,19.78-9.76,26.84-16.26c0.23-0.19,0.45-0.37,0.75-0.64c0,0,0.49-0.41,0.86-0.78c0.34,0.41,0.9,0.97,1.79,1.91
	C164.2,158.09,164.12,158.2,164.09,158.28 M32.81,154.76c-1.83-2.17-3.59-4.45-5.23-6.76l14.39-15.52c0,2.13-0.22,4.23-0.64,6.25
	c-0.93,4.63-2.87,8.97-5.79,12.89C34.72,152.67,33.79,153.72,32.81,154.76 M21.82,138.46l17.61-18.99c0.97,2.28,1.65,4.63,2.06,7.03
	l-16.42,17.69C23.88,142.28,22.79,140.33,21.82,138.46 M17.11,127.84l16.3-17.58c1.45,1.57,2.77,3.29,3.85,5.08l-17.53,18.92
	C18.79,132.14,17.89,130.01,17.11,127.84 M14.79,120.51l-0.04-0.19c-0.26-0.97-0.49-1.94-0.75-2.92l-0.04-0.15
	c-0.11-0.49-0.23-0.93-0.3-1.42l11.26-12.15l0.52,0.3c0.11,0.04,0.19,0.11,0.3,0.15c0.19,0.11,0.42,0.23,0.64,0.37l0.45,0.3
	c0.23,0.15,0.45,0.26,0.67,0.45l0.49,0.33c0.3,0.23,0.64,0.45,0.9,0.64c0.45,0.34,0.9,0.68,1.31,1.05L15.5,123.13
	C15.28,122.19,15.02,121.33,14.79,120.51 M12.43,108.14l-0.04-0.33c-0.11-0.94-0.18-1.87-0.26-2.8l-0.04-0.37
	c-0.08-0.94-0.11-1.87-0.19-2.85l-0.07-1.87l0.37,0.04c0.18,0,0.37,0,0.59,0.04c0.11,0,0.19,0.03,0.42,0.03l0.22,0.04
	c0.19,0,0.37,0.04,0.6,0.07l2.51,0.45c0.07,0,0.15,0.04,0.23,0.04l0.56,0.11c0.08,0.04,0.15,0.04,0.37,0.11l2.39,0.71
	c0.18,0.08,0.37,0.16,0.64,0.23l-8,8.64C12.62,109.67,12.51,108.88,12.43,108.14 M81.53,115.58c-0.67-0.45-1.31-0.93-1.94-1.42
	c-0.6-0.49-1.19-1.01-1.83-1.61c-0.52-0.49-1.09-1.05-1.69-1.72c-0.59-0.68-1.12-1.27-1.57-1.84c-0.49-0.6-0.93-1.24-1.42-1.94
	c-0.49-0.75-0.9-1.42-1.27-2.05c-0.41-0.71-0.78-1.43-1.12-2.13c-0.34-0.75-0.67-1.46-0.93-2.25c-0.3-0.75-0.56-1.53-0.79-2.28
	c-0.26-0.86-0.44-1.61-0.64-2.36c-0.18-0.78-0.33-1.57-0.44-2.35c-0.11-0.78-0.19-1.57-0.26-2.36c-0.08-2.35,0.07-4.6,0.37-6.65
	c0.26-1.61,0.71-3.14,1.19-4.75l0.23-0.67c0.26-0.82,0.52-1.68,0.82-2.51c0.26-0.82,0.56-1.65,0.9-2.46
	c0.3-0.83,0.64-1.65,0.97-2.47c0.34-0.82,0.67-1.6,1.05-2.43c0.37-0.82,0.75-1.6,1.12-2.39c0.42-0.78,0.78-1.57,1.24-2.35
	c0.41-0.78,0.86-1.53,1.31-2.32c0.45-0.74,0.9-1.49,1.38-2.28c0.45-0.74,0.94-1.49,1.42-2.2c0.49-0.75,1.01-1.45,1.54-2.17
	c0.48-0.71,1.05-1.42,1.57-2.13c0.52-0.71,1.08-1.38,1.65-2.05c0.56-0.67,1.12-1.35,1.72-2.02c0.6-0.67,1.17-1.31,1.76-1.94L88,47.3
	c3.88-4.11,8.26-7.92,12.94-11.25c7.89-5.65,16.71-10.1,26.2-13.24c4.82,18.25,11.89,35.86,21.09,52.38l0.11,0.19
	c1.2,2.17,2.44,4.41,2.66,6.81c0.16,1.72-0.18,3.59-1.08,5.83c-0.23,0.56-0.49,1.12-0.71,1.65c-5.83,12.56-16.49,22.81-29.28,28.08
	c-8.67,3.59-18.02,4.6-26.4,2.85C89.08,119.65,85.04,117.97,81.53,115.58 M50.65,89.3c-0.23-0.49-0.45-1.01-0.67-1.53
	c-0.9-2.25-1.24-4.04-1.05-5.68c0.23-2.17,1.38-4.3,2.54-6.36c1.16-2.06,2.36-4.34,3.66-6.88c1.16-2.24,2.32-4.6,3.48-7.06
	c1.08-2.36,2.17-4.75,3.21-7.18c1.19-2.8,2.13-5.12,2.99-7.25c1.01-2.62,1.91-5.05,2.73-7.37c0.9-2.51,1.72-5.05,2.47-7.48
	c0.78-2.47,1.53-5.01,2.24-7.56l0.08-0.34c0.26-0.93,0.41-1.49,0.52-1.86c8.3,2.58,16.11,6.32,23.33,11.07
	c-0.71,0.56-1.42,1.12-2.13,1.68l-0.26,0.23c-0.52,0.45-1.01,0.86-1.57,1.31l-1.01,0.9c-0.49,0.42-0.94,0.86-1.42,1.31
	c-1.46,1.38-2.85,2.73-4.04,4l-0.9,0.94c-0.34,0.37-0.68,0.71-1.01,1.08c-0.26,0.3-0.56,0.64-0.78,0.9
	c-0.34,0.37-0.68,0.75-0.97,1.12c-0.3,0.34-0.56,0.64-0.78,0.94c-0.34,0.41-0.68,0.82-1.05,1.31c-0.33,0.41-0.64,0.78-0.93,1.24
	c-0.3,0.41-0.64,0.85-0.97,1.27c-0.18,0.22-0.33,0.44-0.48,0.67l-0.42,0.56c-0.52,0.71-1.01,1.43-1.45,2.1l-0.11,0.15
	c-0.19,0.26-0.34,0.52-0.52,0.78l-0.3,0.49c-0.22,0.34-0.44,0.71-0.67,1.05l-0.67,1.09c-0.15,0.26-0.3,0.52-0.45,0.75l-0.23,0.33
	c-0.07,0.11-0.11,0.19-0.15,0.27c-0.04,0.07-0.11,0.15-0.15,0.26c-0.15,0.26-0.3,0.52-0.44,0.78l-0.19,0.37
	c-0.67,1.19-1.38,2.46-2.02,3.78l-0.15,0.3c-0.15,0.34-0.34,0.67-0.49,1.01c-0.18,0.41-0.37,0.82-0.64,1.34l-0.59,1.35
	c-0.27,0.57-0.49,1.12-0.71,1.68c-0.67,1.61-1.35,3.33-1.98,5.08c-0.07,0.23-0.15,0.42-0.23,0.57l-0.18,0.56
	c-0.08,0.23-0.15,0.45-0.23,0.68c-1.12,3.51-1.68,7.1-1.68,10.66v0.44c0,5.83,1.35,11.4,3.96,16.6l0.56,1.04
	c0.18,0.37,0.41,0.71,0.59,1.05c0.45,0.75,0.9,1.45,1.31,2.05l0.18,0.3c0.34,0.49,0.71,0.97,1.09,1.46c0.71,0.9,1.38,1.68,1.98,2.35
	c0.11,0.11,0.23,0.23,0.3,0.34C63.36,108.51,55.39,99.69,50.65,89.3 M77.12,19.34c2.46-1.12,5.08-1.68,7.85-1.68
	c2.8,0,5.53,0.59,8.04,1.75c-2.05,1.05-3.85,2.55-5.27,4.38c-2.73-1.35-5.53-2.54-8.3-3.55l-0.56-0.23
	c-0.64-0.26-1.28-0.49-1.84-0.67H77.12z M107.07,14.66c-2.05,0.75-4.04,1.79-5.83,3.1c-0.41-0.04-0.78-0.04-1.27-0.04h-0.15h-0.04
	c-0.33,0-0.67,0-1.01,0.04c-1.79-1.31-3.74-2.35-5.83-3.1C97.57,14.06,102.43,14.06,107.07,14.66 M108.3,25.88l-8.3,5.16l-8.3-5.16
	c1.76-1.98,4.11-3.28,6.76-3.66c0.97-0.16,2.05-0.16,3.11,0C104.12,22.59,106.55,23.9,108.3,25.88 M107.93,19.04l0.9-0.33
	c0.23-0.08,0.41-0.15,0.64-0.23l0.23-0.07c0.3-0.08,0.59-0.16,0.9-0.23c0.3-0.08,0.59-0.15,0.9-0.19c0.3-0.04,0.64-0.11,0.93-0.15
	c0.3-0.03,0.6-0.08,0.93-0.11c0.3-0.04,0.6-0.04,0.94-0.07h0.78c2.73,0,5.46,0.59,7.93,1.72c-3.66,1.27-7.29,2.73-10.73,4.41
	l-0.04-0.04c-0.08-0.11-0.16-0.19-0.19-0.26c-0.18-0.26-0.37-0.49-0.6-0.68c-0.18-0.22-0.41-0.44-0.64-0.67
	c-0.18-0.18-0.37-0.34-0.56-0.52l-0.11-0.11c-0.23-0.19-0.44-0.37-0.67-0.56c-0.23-0.19-0.49-0.37-0.71-0.53
	c-0.26-0.18-0.52-0.33-0.78-0.48c-0.26-0.16-0.52-0.3-0.78-0.45l-0.15-0.08h-0.04c0.04,0,0.08-0.04,0.08-0.04
	C107.37,19.26,107.67,19.15,107.93,19.04 M189.74,95.43c-10.51,0-20.94,5.08-27.93,13.61c-6.88,8.42-9.65,19.89-7.44,30.74
	c0.52,2.69,1.38,5.27,2.51,7.74c0.67,1.45,1.42,2.77,2.2,3.93c0.11,0.18,0.23,0.37,0.37,0.6c0.15,0.22,0.3,0.44,0.45,0.67l0.11,0.15
	c-0.9,2.13-17.87,12.41-20.68,13.83c-8.67,4.3-18.28,7.18-29.35,8.75l-2.92,0.3v-50.26l1.05-0.11c8.45-1.23,16.57-4.26,23.41-8.75
	c1.27-0.82,2.54-1.72,3.78-2.65c5.01-3.81,9.38-8.49,12.97-13.83c2.39-3.55,4.27-7.1,5.61-10.58c0.37-0.94,0.71-1.91,1.09-3.03
	c0.52-1.61,0.71-3.22,0.67-4.9c-0.04-1.38-0.67-2.61-1.24-3.81c-0.11-0.26-0.26-0.49-0.37-0.75c-1.01-2.2-2.2-4.34-3.33-6.43
	c-0.78-1.46-1.57-2.88-2.32-4.34l-0.19-0.37c-2.69-5.35-5.27-10.99-7.85-17.38c-0.44-1.08-0.85-2.13-1.27-3.25l-0.11-0.3
	c-0.04-0.75-0.44-1.57-0.82-2.35c-0.15-0.34-0.3-0.68-0.41-0.94c-0.49-1.27-0.94-2.58-1.38-3.85c-1.2-3.48-2.36-7.07-3.44-10.69
	L132.86,27c-0.22-0.82-0.44-1.6-0.71-2.54l-0.45-1.68c-0.23-0.75-0.41-1.53-0.59-2.28c-0.11-0.45-0.3-1.16-0.75-1.79
	c-0.45-0.64-1.09-1.01-1.53-1.24l-0.16-0.11c-0.82-0.49-1.65-0.9-2.43-1.27l-0.75-0.37c-0.33-0.18-0.71-0.33-1.05-0.49
	c-4.11-1.91-8.45-3.36-12.94-4.26c-11.21-2.28-23.22-1.09-33.8,3.33c-2.32,0.97-4.41,1.87-6.47,3.11c-0.44,0.26-1.08,0.64-1.53,1.27
	c-0.78,1.05-1.12,2.58-1.38,3.93c-0.11,0.48-0.22,0.97-0.33,1.42c-0.52,1.91-1.09,3.81-1.65,5.68
	c-3.26,10.58-7.15,20.68-11.52,30.02c-2.28,4.79-4.34,8.94-6.36,12.64l-0.15,0.26c-0.49,0.94-1.01,1.84-1.53,2.77l-0.19,0.34
	c-0.71,1.27-1.45,2.61-1.87,4.11c-0.56,1.94-0.41,4.12,0.37,6.62c0.3,0.97,0.64,1.91,1.01,2.8c1.38,3.55,3.29,7.18,5.72,10.81
	c5.76,8.64,13.99,15.66,23.78,20.41c4.82,2.32,10.32,3.88,17.39,4.97l0.04,50.25l-0.44-0.04l-0.75-0.08
	c-10.58-1.05-21.05-4.15-31.15-9.16c-6.58-3.26-12.6-7.18-17.94-11.7c-0.19-0.19-0.42-0.37-0.68-0.6l-1.76-1.57
	c0.08-0.11,0.16-0.23,0.23-0.34l0.11-0.18c4.71-7.29,6.69-16.12,5.49-24.83c-0.07-0.68-0.18-1.35-0.33-1.98
	c-0.67-3.55-1.87-6.96-3.52-10.13c-0.26-0.52-0.56-1.05-0.82-1.5c-1.65-2.76-3.63-5.3-5.91-7.55c-0.41-0.37-0.78-0.75-1.19-1.12
	c-0.86-0.78-1.76-1.5-2.7-2.2c-1.65-1.24-3.4-2.32-5.15-3.22c-0.52-0.26-1.05-0.52-1.53-0.75c-4.6-2.09-9.54-3.21-14.69-3.29H7.43
	v2.17c0,21.88,8.64,44.76,23.07,61.17l0.52,0.6c17.27,19.67,43.11,30.77,69.39,30.77c6.69,0,13.42-0.71,20.04-2.2
	c28.94-6.47,54.7-28.45,65.62-55.98c4.27-10.73,6.5-22.58,6.5-34.32V95.5h-2.84V95.43z"/>
</svg>
