<!-- Generated by IcoMoon.io -->
<svg version="1.1" xmlns="http://www.w3.org/2000/svg" width="32" height="32" viewBox="0 0 32 32">
<title>logo</title>
<path fill="#c6c6c6" d="M6.871 12.372c-0.036 0.007-0.073 0.016-0.109 0.024s-0.072 0.019-0.109 0.029-0.073 0.022-0.109 0.033-0.072 0.024-0.108 0.037c-0.079 0.028-0.158 0.059-0.235 0.094-0.078 0.035-0.155 0.074-0.231 0.115s-0.152 0.088-0.225 0.137c-0.074 0.049-0.146 0.101-0.217 0.157-0.087 0.095-0.169 0.194-0.247 0.3s-0.151 0.218-0.218 0.334c-0.068 0.117-0.13 0.239-0.186 0.365-0.057 0.127-0.106 0.258-0.15 0.391-0.046 0.142-0.084 0.288-0.114 0.436s-0.053 0.3-0.067 0.452c-0.015 0.153-0.021 0.307-0.019 0.462s0.012 0.31 0.031 0.463c0.018 0.154 0.045 0.306 0.079 0.457s0.077 0.298 0.127 0.443c0.050 0.144 0.108 0.285 0.172 0.422s0.135 0.267 0.211 0.393c0.076 0.126 0.16 0.247 0.247 0.362s0.181 0.222 0.279 0.324c0.097 0.1 0.198 0.195 0.304 0.282 0.105 0.086 0.212 0.166 0.325 0.238 0.11 0.071 0.223 0.136 0.339 0.193 0.114 0.056 0.23 0.105 0.348 0.147 0.116 0.041 0.233 0.075 0.351 0.102s0.234 0.046 0.351 0.059c0.116 0.012 0.231 0.018 0.346 0.017 0.113-0.001 0.227-0.009 0.338-0.022 0.11-0.014 0.219-0.033 0.326-0.059 0.105-0.025 0.21-0.056 0.312-0.093 0.019-0.007 0.039-0.014 0.057-0.021s0.039-0.015 0.057-0.022 0.037-0.016 0.056-0.024c0.018-0.008 0.037-0.016 0.056-0.024 0.041-0.026 0.080-0.052 0.12-0.079s0.078-0.055 0.116-0.084c0.039-0.029 0.075-0.058 0.112-0.089s0.072-0.061 0.108-0.093c0.007-0.006 0.015-0.012 0.022-0.019s0.014-0.013 0.021-0.019c0.007-0.006 0.015-0.013 0.022-0.020s0.014-0.013 0.020-0.020c-0.040 0.029-0.081 0.057-0.122 0.084s-0.084 0.053-0.127 0.078-0.087 0.049-0.131 0.072c-0.045 0.023-0.090 0.045-0.135 0.065-0.022 0.010-0.043 0.019-0.065 0.028s-0.043 0.018-0.065 0.027-0.044 0.017-0.066 0.025-0.044 0.016-0.067 0.023c-0.099 0.034-0.2 0.062-0.302 0.085-0.104 0.023-0.209 0.040-0.315 0.050-0.108 0.011-0.217 0.016-0.326 0.015-0.11-0.001-0.221-0.009-0.332-0.023-0.113-0.014-0.225-0.036-0.336-0.063-0.113-0.028-0.225-0.063-0.335-0.105-0.112-0.042-0.222-0.092-0.331-0.148s-0.216-0.121-0.32-0.191c-0.105-0.071-0.207-0.149-0.305-0.233s-0.194-0.177-0.285-0.275c-0.091-0.099-0.178-0.203-0.259-0.313s-0.159-0.226-0.229-0.346c-0.071-0.122-0.136-0.248-0.195-0.378-0.059-0.131-0.11-0.265-0.155-0.402s-0.083-0.278-0.113-0.42c-0.030-0.143-0.053-0.287-0.069-0.432s-0.023-0.291-0.023-0.436c0.001-0.145 0.008-0.29 0.024-0.433s0.038-0.285 0.068-0.424 0.067-0.275 0.111-0.408c0.083-0.256 0.193-0.499 0.325-0.723 0.13-0.221 0.28-0.423 0.448-0.604 0.164-0.177 0.344-0.333 0.536-0.464 0.187-0.126 0.386-0.232 0.591-0.31zM7.862 11.994c-0.084-0.003-0.168-0.002-0.253 0.003-0.086 0.005-0.17 0.013-0.255 0.025-0.086 0.012-0.171 0.028-0.256 0.048-0.086 0.020-0.17 0.044-0.254 0.072-0.009 0.003-0.019 0.006-0.028 0.010s-0.019 0.007-0.028 0.010c-0.010 0.003-0.019 0.007-0.028 0.010s-0.019 0.007-0.028 0.011c0.057-0.011 0.114-0.020 0.172-0.028s0.114-0.014 0.17-0.019 0.113-0.008 0.169-0.010c0.057-0.002 0.113-0.002 0.168-0.001 0.029 0.001 0.058 0.002 0.087 0.003s0.058 0.003 0.086 0.006 0.057 0.005 0.085 0.008 0.057 0.007 0.085 0.010c0.011 0.002 0.022 0.003 0.033 0.005s0.022 0.003 0.032 0.005 0.022 0.003 0.032 0.005 0.022 0.004 0.032 0.006c0.009 0 0.017 0 0.026 0h0.026c0.008 0 0.017 0 0.026 0s0.016 0.001 0.025 0.001c0.122 0.003 0.244 0.013 0.364 0.031 0.119 0.018 0.237 0.042 0.353 0.075s0.228 0.070 0.338 0.116c0.109 0.045 0.216 0.096 0.321 0.154 0.087 0.048 0.173 0.101 0.257 0.157s0.163 0.116 0.241 0.18c0.077 0.063 0.152 0.13 0.224 0.2 0.071 0.069 0.14 0.142 0.206 0.218s0.127 0.154 0.186 0.235c0.059 0.080 0.114 0.164 0.167 0.25s0.101 0.173 0.147 0.262 0.088 0.18 0.127 0.272c0.038 0.092 0.073 0.186 0.105 0.281s0.060 0.191 0.084 0.288c0.025 0.097 0.046 0.194 0.064 0.293s0.032 0.198 0.042 0.297c0.011 0.1 0.018 0.199 0.021 0.299s0.003 0.2-0.001 0.3c-0.004 0.1-0.011 0.199-0.022 0.298s-0.025 0.198-0.043 0.296c-0.034 0.183-0.081 0.364-0.139 0.539-0.059 0.177-0.131 0.348-0.215 0.513-0.085 0.166-0.181 0.326-0.288 0.476-0.109 0.152-0.23 0.295-0.362 0.424-0.028 0.038-0.058 0.076-0.088 0.113s-0.061 0.074-0.093 0.109c-0.032 0.036-0.065 0.071-0.098 0.106s-0.067 0.069-0.102 0.102c0.027-0.019 0.053-0.038 0.078-0.058s0.050-0.040 0.075-0.061c0.025-0.020 0.049-0.041 0.074-0.063s0.048-0.042 0.072-0.065c0.075-0.070 0.148-0.144 0.217-0.221s0.133-0.156 0.195-0.238c0.061-0.082 0.118-0.166 0.172-0.253 0.054-0.086 0.104-0.174 0.151-0.266 0.046-0.090 0.088-0.182 0.127-0.277 0.039-0.093 0.073-0.189 0.105-0.285s0.059-0.193 0.083-0.292 0.045-0.197 0.062-0.297c0.034-0.198 0.053-0.399 0.059-0.6 0.006-0.2-0.003-0.402-0.025-0.602s-0.058-0.398-0.108-0.592c-0.049-0.195-0.113-0.387-0.19-0.572-0.077-0.187-0.167-0.369-0.27-0.542-0.104-0.176-0.22-0.343-0.348-0.5-0.13-0.16-0.272-0.309-0.425-0.444-0.156-0.138-0.323-0.263-0.501-0.37-0.089-0.055-0.182-0.105-0.276-0.151s-0.193-0.088-0.292-0.125c-0.1-0.037-0.202-0.070-0.307-0.097s-0.211-0.049-0.319-0.065c-0.027-0.003-0.054-0.007-0.081-0.010s-0.054-0.006-0.082-0.008-0.054-0.005-0.082-0.006c-0.028 0.001-0.056-0.001-0.083-0.002z"></path>
<path fill="#3fa2db" d="M6.871 12.372c0.057-0.011 0.113-0.022 0.169-0.030s0.112-0.015 0.168-0.020c0.056-0.006 0.112-0.009 0.168-0.011s0.111-0.003 0.166-0.002c0.129 0.002 0.258 0.011 0.385 0.029 0.125 0.017 0.249 0.042 0.372 0.074 0.121 0.031 0.24 0.070 0.356 0.116 0.114 0.045 0.227 0.097 0.337 0.155 0.092 0.049 0.182 0.102 0.27 0.159 0.086 0.057 0.17 0.117 0.253 0.182 0.080 0.063 0.159 0.131 0.234 0.203 0.074 0.070 0.146 0.144 0.215 0.222 0.069 0.076 0.134 0.156 0.195 0.239s0.119 0.167 0.174 0.254c0.054 0.087 0.105 0.176 0.153 0.267s0.091 0.184 0.131 0.278c0.040 0.094 0.076 0.19 0.11 0.287s0.062 0.195 0.088 0.294c0.025 0.099 0.048 0.199 0.066 0.299s0.033 0.202 0.044 0.304c0.011 0.102 0.018 0.204 0.021 0.306s0.003 0.204-0.002 0.307c-0.004 0.102-0.012 0.204-0.024 0.306s-0.027 0.203-0.046 0.304c-0.036 0.193-0.087 0.383-0.152 0.567-0.065 0.186-0.143 0.368-0.234 0.541-0.092 0.176-0.198 0.345-0.315 0.502-0.12 0.161-0.252 0.312-0.396 0.449-0.007 0.007-0.014 0.014-0.021 0.020s-0.014 0.013-0.022 0.020c-0.007 0.007-0.014 0.013-0.021 0.019s-0.014 0.013-0.022 0.019c-0.035 0.032-0.071 0.063-0.108 0.093s-0.074 0.060-0.112 0.088c-0.038 0.029-0.076 0.057-0.116 0.084s-0.079 0.054-0.12 0.079c-0.029 0.019-0.059 0.037-0.089 0.055s-0.061 0.035-0.092 0.052c-0.031 0.017-0.062 0.033-0.093 0.049s-0.063 0.031-0.096 0.046c-0.022 0.011-0.045 0.020-0.067 0.030s-0.046 0.020-0.069 0.029c-0.023 0.009-0.046 0.018-0.069 0.027s-0.047 0.017-0.070 0.026c-0.105 0.037-0.212 0.068-0.32 0.093-0.11 0.026-0.221 0.045-0.333 0.059-0.114 0.014-0.229 0.022-0.344 0.023-0.117 0.001-0.234-0.005-0.352-0.016s-0.238-0.032-0.356-0.058c-0.12-0.027-0.238-0.061-0.356-0.101-0.119-0.041-0.236-0.090-0.351-0.146s-0.229-0.12-0.34-0.19c-0.112-0.071-0.22-0.15-0.325-0.235s-0.206-0.179-0.302-0.279-0.189-0.206-0.275-0.318c-0.087-0.113-0.168-0.231-0.243-0.355-0.076-0.125-0.144-0.255-0.207-0.389s-0.117-0.273-0.164-0.414c-0.048-0.142-0.088-0.287-0.12-0.433s-0.056-0.297-0.072-0.447-0.024-0.301-0.023-0.452c0.001-0.151 0.010-0.301 0.027-0.45s0.041-0.295 0.074-0.44c0.032-0.144 0.072-0.285 0.12-0.424 0.060-0.177 0.132-0.349 0.216-0.513 0.083-0.162 0.176-0.317 0.279-0.462s0.212-0.279 0.331-0.404c0.117-0.123 0.242-0.237 0.373-0.34 0.071-0.056 0.143-0.108 0.217-0.157s0.148-0.095 0.225-0.136c0.075-0.041 0.152-0.080 0.231-0.116 0.077-0.035 0.156-0.066 0.235-0.094 0.036-0.013 0.072-0.026 0.108-0.037s0.073-0.023 0.109-0.033c0.036-0.010 0.073-0.020 0.109-0.029 0.036-0.007 0.073-0.015 0.109-0.023zM7.413 12.125c-0.056-0.001-0.112-0.001-0.168 0.001s-0.113 0.005-0.169 0.010c-0.057 0.005-0.114 0.011-0.17 0.019-0.058 0.008-0.115 0.018-0.172 0.028-0.033 0.006-0.067 0.014-0.1 0.021s-0.067 0.016-0.1 0.024c-0.033 0.009-0.067 0.018-0.1 0.028s-0.066 0.020-0.099 0.031c-0.121 0.040-0.24 0.088-0.356 0.143-0.118 0.056-0.234 0.118-0.346 0.187-0.114 0.070-0.225 0.148-0.332 0.232-0.108 0.085-0.212 0.178-0.311 0.277-0.1 0.1-0.194 0.208-0.283 0.321-0.090 0.115-0.173 0.236-0.251 0.362-0.078 0.127-0.149 0.261-0.213 0.398-0.065 0.138-0.122 0.281-0.172 0.428s-0.091 0.299-0.123 0.453-0.058 0.311-0.074 0.47-0.023 0.318-0.022 0.479c0.001 0.16 0.011 0.321 0.031 0.48s0.047 0.317 0.083 0.473c0.036 0.155 0.081 0.308 0.135 0.458s0.113 0.294 0.182 0.434c0.067 0.14 0.143 0.274 0.224 0.403s0.169 0.253 0.263 0.371c0.093 0.117 0.192 0.227 0.296 0.33 0.103 0.102 0.211 0.198 0.322 0.286 0.111 0.087 0.227 0.167 0.344 0.24 0.117 0.071 0.238 0.135 0.36 0.192 0.121 0.056 0.244 0.104 0.369 0.144 0.123 0.040 0.248 0.073 0.373 0.098 0.123 0.025 0.247 0.042 0.372 0.053 0.122 0.011 0.245 0.014 0.367 0.010 0.12-0.003 0.239-0.014 0.357-0.031 0.117-0.016 0.232-0.039 0.345-0.068 0.112-0.028 0.221-0.063 0.33-0.103 0.022-0.008 0.043-0.016 0.065-0.024s0.042-0.017 0.063-0.026c0.021-0.009 0.042-0.018 0.063-0.027s0.041-0.019 0.062-0.028c0.082-0.038 0.161-0.079 0.238-0.124s0.152-0.091 0.225-0.141c0.072-0.049 0.143-0.101 0.212-0.156s0.134-0.111 0.198-0.17c0.004-0.004 0.008-0.009 0.012-0.012s0.009-0.008 0.013-0.012 0.008-0.008 0.012-0.012 0.008-0.008 0.012-0.012c0.035-0.033 0.069-0.068 0.102-0.102s0.066-0.070 0.098-0.106c0.031-0.036 0.062-0.073 0.093-0.109s0.060-0.075 0.088-0.113c0.032-0.042 0.063-0.086 0.094-0.13s0.060-0.088 0.088-0.133c0.028-0.045 0.056-0.091 0.082-0.137s0.052-0.092 0.076-0.139c0.048-0.093 0.093-0.189 0.134-0.286 0.041-0.096 0.078-0.195 0.11-0.294s0.062-0.199 0.088-0.301c0.025-0.1 0.047-0.202 0.065-0.305 0.036-0.203 0.058-0.41 0.063-0.617 0.006-0.206-0.003-0.412-0.025-0.617s-0.060-0.407-0.111-0.606c-0.052-0.199-0.117-0.395-0.198-0.584-0.079-0.191-0.173-0.377-0.28-0.553-0.108-0.179-0.23-0.349-0.364-0.509-0.136-0.162-0.285-0.313-0.445-0.451-0.163-0.14-0.339-0.266-0.524-0.375-0.085-0.050-0.173-0.096-0.262-0.139-0.090-0.044-0.182-0.083-0.276-0.118-0.095-0.036-0.191-0.067-0.289-0.095-0.099-0.027-0.199-0.050-0.301-0.069-0.010-0.002-0.021-0.003-0.032-0.006s-0.022-0.003-0.033-0.005-0.022-0.003-0.032-0.005c-0.011-0.001-0.022-0.003-0.033-0.005-0.028-0.004-0.057-0.007-0.085-0.010s-0.057-0.006-0.085-0.008c-0.029-0.002-0.057-0.004-0.086-0.006s-0.057-0.002-0.087-0.003z"></path>
<path fill="#706f6f" d="M16.058 14.62h0.342v2.651h-0.342v-2.651z"></path>
<path fill="#706f6f" d="M19.263 15.918c0 0.912-0.554 1.396-1.231 1.396-0.7 0-1.192-0.543-1.192-1.345 0-0.842 0.523-1.392 1.231-1.392 0.724 0 1.192 0.554 1.192 1.341zM17.206 15.961c0 0.566 0.307 1.074 0.846 1.074 0.543 0 0.85-0.5 0.85-1.101 0-0.527-0.275-1.078-0.846-1.078-0.567 0-0.85 0.523-0.85 1.105z"></path>
<path fill="#706f6f" d="M19.707 14.655c0.173-0.035 0.421-0.055 0.657-0.055 0.366 0 0.602 0.067 0.767 0.216 0.134 0.118 0.208 0.299 0.208 0.504 0 0.35-0.22 0.582-0.5 0.676v0.012c0.204 0.071 0.326 0.259 0.39 0.535 0.087 0.37 0.15 0.625 0.204 0.728h-0.354c-0.043-0.075-0.102-0.303-0.177-0.633-0.079-0.366-0.22-0.503-0.531-0.515h-0.323v1.149h-0.342v-2.616zM20.050 15.863h0.35c0.366 0 0.598-0.2 0.598-0.504 0-0.342-0.248-0.492-0.609-0.496-0.165 0-0.283 0.016-0.338 0.032v0.967z"></path>
<path fill="#706f6f" d="M23.853 17.153c-0.154 0.055-0.456 0.146-0.814 0.146-0.401 0-0.732-0.102-0.991-0.35-0.228-0.22-0.37-0.574-0.37-0.987 0.004-0.791 0.547-1.369 1.436-1.369 0.307 0 0.547 0.067 0.661 0.122l-0.083 0.279c-0.142-0.063-0.318-0.114-0.586-0.114-0.645 0-1.066 0.401-1.066 1.066 0 0.673 0.405 1.070 1.022 1.070 0.224 0 0.378-0.031 0.456-0.071v-0.791h-0.539v-0.275h0.873v1.274z"></path>
<path fill="#706f6f" d="M24.377 14.62h0.342v2.651h-0.342v-2.651z"></path>
<path fill="#706f6f" d="M25.316 17.271v-2.651h0.374l0.85 1.341c0.197 0.311 0.35 0.59 0.476 0.861l0.008-0.004c-0.032-0.354-0.040-0.676-0.040-1.090v-1.109h0.323v2.651h-0.346l-0.842-1.345c-0.185-0.295-0.362-0.598-0.496-0.885l-0.012 0.004c0.020 0.334 0.027 0.653 0.027 1.093v1.133h-0.322z"></path>
<path fill="#706f6f" d="M27.905 14.62h0.342v2.651h-0.342v-2.651z"></path>
<path fill="#706f6f" d="M15.576 17.086c-0.232 0.083-0.691 0.22-1.234 0.22-0.608 0-1.108-0.155-1.501-0.53-0.345-0.334-0.56-0.87-0.56-1.495 0.006-1.197 0.828-2.073 2.175-2.073 0.465 0 0.828 0.101 1.001 0.185l-0.125 0.423c-0.215-0.095-0.483-0.173-0.887-0.173-0.977 0-1.615 0.608-1.615 1.615 0 1.019 0.614 1.62 1.549 1.62 0.34 0 0.572-0.048 0.691-0.107v-1.198h-0.816v-0.417h1.322v1.93z"></path>
<path fill="#706f6f" d="M16.102 13.218c0.069-0.010 0.15-0.018 0.24-0.018 0.162 0 0.277 0.037 0.353 0.109 0.078 0.071 0.123 0.172 0.123 0.313s-0.044 0.259-0.126 0.339c-0.082 0.082-0.216 0.126-0.386 0.126-0.080 0-0.148-0.004-0.204-0.010v-0.859zM16.215 13.989c0.028 0.005 0.070 0.006 0.114 0.006 0.241 0 0.372-0.135 0.372-0.37 0.001-0.206-0.115-0.336-0.353-0.336-0.058 0-0.102 0.005-0.132 0.012v0.689z"></path>
<path fill="#706f6f" d="M16.961 13.647c0-0.074-0.001-0.137-0.005-0.195h0.1l0.004 0.123h0.005c0.028-0.084 0.097-0.137 0.174-0.137 0.013 0 0.022 0.001 0.032 0.004v0.108c-0.011-0.003-0.023-0.004-0.039-0.004-0.080 0-0.137 0.061-0.153 0.146-0.003 0.015-0.005 0.034-0.005 0.053v0.334h-0.113v-0.432z"></path>
<path fill="#706f6f" d="M18.397 13.695c-0.006-0.122-0.014-0.268-0.013-0.377h-0.004c-0.029 0.102-0.066 0.211-0.11 0.331l-0.154 0.424h-0.086l-0.141-0.416c-0.041-0.123-0.076-0.236-0.101-0.339h-0.003c-0.003 0.109-0.009 0.255-0.017 0.386l-0.023 0.374h-0.108l0.061-0.873h0.144l0.149 0.422c0.036 0.108 0.066 0.203 0.088 0.294h0.004c0.022-0.088 0.053-0.184 0.092-0.294l0.155-0.422h0.144l0.054 0.873h-0.11l-0.022-0.383z"></path>
<path fill="#706f6f" d="M19.054 14.079l-0.009-0.079h-0.004c-0.035 0.049-0.102 0.093-0.191 0.093-0.127 0-0.191-0.089-0.191-0.18 0-0.151 0.135-0.234 0.377-0.233v-0.013c0-0.052-0.014-0.145-0.142-0.145-0.058 0-0.119 0.018-0.163 0.046l-0.026-0.075c0.052-0.033 0.127-0.056 0.206-0.056 0.191 0 0.238 0.131 0.238 0.257v0.234c0 0.054 0.003 0.108 0.010 0.15h-0.104zM19.037 13.759c-0.124-0.002-0.266 0.019-0.266 0.141 0 0.074 0.049 0.109 0.108 0.109 0.082 0 0.133-0.052 0.151-0.105 0.004-0.012 0.006-0.024 0.006-0.036v-0.109z"></path>
<path fill="#706f6f" d="M19.331 13.647c0-0.074-0.001-0.137-0.005-0.195h0.1l0.004 0.123h0.005c0.028-0.084 0.097-0.137 0.173-0.137 0.013 0 0.022 0.001 0.032 0.004v0.108c-0.012-0.003-0.023-0.004-0.039-0.004-0.080 0-0.137 0.061-0.153 0.146-0.003 0.015-0.005 0.034-0.005 0.053v0.334h-0.113v-0.432z"></path>
<path fill="#706f6f" d="M19.886 13.276c0.001 0.039-0.027 0.070-0.073 0.070-0.040 0-0.069-0.031-0.069-0.070s0.030-0.071 0.071-0.071c0.042 0.001 0.070 0.031 0.070 0.071zM19.759 13.452h0.114v0.626h-0.114v-0.626z"></path>
<path fill="#706f6f" d="M20.062 13.622c0-0.065-0.001-0.118-0.005-0.169h0.101l0.006 0.104h0.003c0.031-0.059 0.104-0.118 0.207-0.118 0.087 0 0.221 0.052 0.221 0.267v0.374h-0.114v-0.362c0-0.101-0.037-0.185-0.145-0.185-0.075 0-0.134 0.053-0.153 0.117-0.005 0.014-0.008 0.033-0.008 0.053v0.377h-0.114v-0.457z"></path>
<path fill="#706f6f" d="M21.348 13.76c0 0.232-0.16 0.332-0.312 0.332-0.17 0-0.3-0.124-0.3-0.322 0-0.21 0.137-0.333 0.311-0.333 0.18 0.001 0.301 0.131 0.301 0.323zM20.85 13.767c0 0.137 0.079 0.241 0.19 0.241 0.109 0 0.19-0.102 0.19-0.244 0-0.106-0.053-0.241-0.188-0.241s-0.193 0.124-0.193 0.244z"></path>
<path fill="#706f6f" d="M21.829 13.786c0.002 0.154 0.101 0.217 0.215 0.217 0.082 0 0.131-0.014 0.173-0.032l0.019 0.082c-0.040 0.018-0.109 0.039-0.208 0.039-0.193 0-0.308-0.127-0.308-0.316s0.111-0.338 0.294-0.338c0.204 0 0.259 0.18 0.259 0.295 0 0.023-0.003 0.041-0.004 0.053h-0.439zM22.163 13.704c0.001-0.072-0.030-0.185-0.158-0.185-0.116 0-0.166 0.106-0.175 0.185h0.333z"></path>
<path fill="#706f6f" d="M22.693 13.218c0.069-0.010 0.15-0.018 0.24-0.018 0.162 0 0.277 0.037 0.353 0.109 0.078 0.071 0.123 0.172 0.123 0.313s-0.044 0.259-0.126 0.339c-0.082 0.082-0.216 0.126-0.386 0.126-0.080 0-0.148-0.004-0.204-0.010v-0.859zM22.805 13.989c0.028 0.005 0.070 0.006 0.114 0.006 0.241 0 0.372-0.135 0.372-0.37 0.001-0.206-0.116-0.336-0.353-0.336-0.058 0-0.102 0.005-0.132 0.012v0.689z"></path>
<path fill="#706f6f" d="M23.551 13.647c0-0.074-0.001-0.137-0.005-0.195h0.1l0.004 0.123h0.005c0.028-0.084 0.097-0.137 0.173-0.137 0.013 0 0.022 0.001 0.032 0.004v0.108c-0.012-0.003-0.023-0.004-0.039-0.004-0.080 0-0.137 0.061-0.153 0.146-0.003 0.015-0.005 0.034-0.005 0.053v0.334h-0.113v-0.432z"></path>
<path fill="#706f6f" d="M24.237 13.941c0.050 0.031 0.124 0.057 0.202 0.057 0.116 0 0.182-0.061 0.182-0.149 0-0.082-0.046-0.128-0.164-0.173-0.142-0.050-0.23-0.124-0.23-0.248 0-0.136 0.113-0.237 0.282-0.237 0.090 0 0.154 0.021 0.193 0.043l-0.031 0.092c-0.028-0.015-0.087-0.041-0.166-0.041-0.119 0-0.164 0.071-0.164 0.131 0 0.082 0.053 0.122 0.173 0.168 0.147 0.057 0.223 0.128 0.223 0.257 0 0.135-0.1 0.251-0.305 0.251-0.084 0-0.176-0.024-0.223-0.056l0.029-0.095z"></path>
<path fill="#706f6f" d="M25.020 13.272v0.18h0.163v0.087h-0.163v0.338c0 0.078 0.022 0.122 0.086 0.122 0.029 0 0.052-0.004 0.066-0.008l0.005 0.086c-0.022 0.009-0.057 0.016-0.101 0.016-0.053 0-0.096-0.017-0.123-0.048-0.032-0.033-0.044-0.089-0.044-0.163v-0.342h-0.097v-0.087h0.097v-0.15l0.111-0.030z"></path>
<path fill="#706f6f" d="M25.367 13.786c0.002 0.154 0.101 0.217 0.215 0.217 0.082 0 0.131-0.014 0.173-0.032l0.019 0.082c-0.040 0.018-0.109 0.039-0.208 0.039-0.193 0-0.308-0.127-0.308-0.316s0.111-0.338 0.294-0.338c0.204 0 0.259 0.18 0.259 0.295 0 0.023-0.003 0.041-0.004 0.053h-0.439zM25.701 13.704c0.001-0.072-0.030-0.185-0.158-0.185-0.116 0-0.166 0.106-0.175 0.185h0.333z"></path>
<path fill="#706f6f" d="M25.964 14.079v-0.54h-0.088v-0.087h0.088v-0.030c0-0.088 0.019-0.168 0.073-0.219 0.042-0.041 0.1-0.058 0.153-0.058 0.040 0 0.075 0.009 0.097 0.018l-0.015 0.088c-0.017-0.008-0.040-0.014-0.073-0.014-0.097 0-0.122 0.086-0.122 0.181v0.033h0.151v0.087h-0.151v0.54h-0.113z"></path>
<path fill="#706f6f" d="M26.677 14.079l-0.009-0.079h-0.004c-0.035 0.049-0.102 0.093-0.191 0.093-0.127 0-0.191-0.089-0.191-0.18 0-0.151 0.135-0.234 0.377-0.233v-0.013c0-0.052-0.014-0.145-0.142-0.145-0.058 0-0.119 0.018-0.163 0.046l-0.026-0.075c0.052-0.033 0.127-0.056 0.206-0.056 0.191 0 0.238 0.131 0.238 0.257v0.234c0 0.054 0.003 0.108 0.010 0.15h-0.104zM26.66 13.759c-0.124-0.002-0.266 0.019-0.266 0.141 0 0.074 0.049 0.109 0.108 0.109 0.082 0 0.133-0.052 0.151-0.105 0.004-0.012 0.006-0.024 0.006-0.036v-0.109z"></path>
<path fill="#706f6f" d="M26.954 13.622c0-0.065-0.001-0.118-0.005-0.169h0.101l0.006 0.104h0.003c0.031-0.059 0.104-0.118 0.207-0.118 0.087 0 0.221 0.052 0.221 0.267v0.374h-0.114v-0.362c0-0.101-0.037-0.185-0.145-0.185-0.075 0-0.134 0.053-0.153 0.117-0.005 0.014-0.008 0.033-0.008 0.053v0.377h-0.114v-0.457z"></path>
<path fill="#706f6f" d="M28.239 13.76c0 0.232-0.16 0.332-0.312 0.332-0.17 0-0.3-0.124-0.3-0.322 0-0.21 0.137-0.333 0.311-0.333 0.18 0.001 0.301 0.131 0.301 0.323zM27.742 13.767c0 0.137 0.079 0.241 0.19 0.241 0.109 0 0.19-0.102 0.19-0.244 0-0.106-0.053-0.241-0.188-0.241s-0.193 0.124-0.193 0.244z"></path>
<path fill="#0080c9" d="M12.306 19.048c0.050 0.031 0.123 0.057 0.2 0.057 0.114 0 0.181-0.060 0.181-0.147 0-0.081-0.046-0.127-0.163-0.172-0.141-0.050-0.228-0.123-0.228-0.245 0-0.135 0.112-0.234 0.279-0.234 0.088 0 0.152 0.020 0.191 0.042l-0.031 0.091c-0.028-0.015-0.086-0.041-0.164-0.041-0.118 0-0.163 0.070-0.163 0.13 0 0.081 0.053 0.121 0.172 0.166 0.146 0.057 0.22 0.127 0.22 0.254 0 0.133-0.099 0.249-0.302 0.249-0.083 0-0.174-0.024-0.22-0.055l0.028-0.095z"></path>
<path fill="#0080c9" d="M13.443 18.415h-0.263v-0.095h0.64v0.095h-0.264v0.769h-0.113z"></path>
<path fill="#0080c9" d="M14.355 18.32v0.511c0 0.194 0.086 0.276 0.201 0.276 0.128 0 0.21-0.084 0.21-0.276v-0.511h0.113v0.503c0 0.265-0.14 0.374-0.327 0.374-0.177 0-0.31-0.101-0.31-0.369v-0.509h0.113z"></path>
<path fill="#0080c9" d="M15.399 18.332c0.068-0.010 0.148-0.018 0.237-0.018 0.16 0 0.274 0.037 0.35 0.108 0.077 0.070 0.122 0.17 0.122 0.31 0 0.141-0.044 0.257-0.125 0.336-0.081 0.081-0.214 0.124-0.382 0.124-0.079 0-0.146-0.004-0.203-0.010v-0.85zM15.51 19.095c0.028 0.005 0.069 0.006 0.113 0.006 0.238 0 0.368-0.133 0.368-0.366 0.001-0.204-0.114-0.333-0.35-0.333-0.058 0-0.101 0.005-0.131 0.011v0.682z"></path>
<path fill="#0080c9" d="M16.579 18.32h0.112v0.864h-0.112v-0.864z"></path>
<path fill="#0080c9" d="M17.95 18.743c0 0.297-0.181 0.455-0.401 0.455-0.228 0-0.389-0.177-0.389-0.438 0-0.274 0.17-0.454 0.401-0.454 0.236 0 0.389 0.181 0.389 0.437zM17.28 18.757c0 0.185 0.1 0.35 0.275 0.35 0.177 0 0.277-0.163 0.277-0.359 0-0.172-0.090-0.351-0.276-0.351-0.184 0-0.276 0.17-0.276 0.36z"></path>
<path fill="#0080c9" d="M19.020 18.332c0.068-0.010 0.148-0.018 0.237-0.018 0.16 0 0.274 0.037 0.35 0.108 0.077 0.070 0.122 0.17 0.122 0.31 0 0.141-0.044 0.257-0.125 0.336-0.080 0.081-0.214 0.124-0.382 0.124-0.079 0-0.146-0.004-0.203-0.010v-0.85zM19.131 19.095c0.028 0.005 0.069 0.006 0.113 0.006 0.238 0 0.368-0.133 0.368-0.366 0.001-0.204-0.114-0.333-0.35-0.333-0.058 0-0.101 0.005-0.131 0.011v0.682z"></path>
<path fill="#0080c9" d="M20.647 18.779h-0.336v0.311h0.374v0.094h-0.486v-0.864h0.467v0.094h-0.355v0.273h0.336z"></path>
<path fill="#0080c9" d="M21.157 19.184v-0.864h0.122l0.277 0.437c0.064 0.101 0.114 0.192 0.155 0.281l0.003-0.001c-0.010-0.116-0.013-0.22-0.013-0.355v-0.361h0.105v0.864h-0.113l-0.274-0.438c-0.060-0.096-0.118-0.195-0.161-0.288l-0.004 0.001c0.006 0.109 0.009 0.213 0.009 0.356v0.369h-0.105z"></path>
<path fill="#0080c9" d="M22.491 18.415h-0.263v-0.095h0.64v0.095h-0.265v0.769h-0.113z"></path>
<path fill="#0080c9" d="M23.29 18.32h0.112v0.864h-0.112v-0.864z"></path>
<path fill="#0080c9" d="M23.908 19.048c0.050 0.031 0.123 0.057 0.2 0.057 0.114 0 0.181-0.060 0.181-0.147 0-0.081-0.046-0.127-0.163-0.172-0.141-0.050-0.228-0.123-0.228-0.245 0-0.135 0.112-0.234 0.279-0.234 0.088 0 0.152 0.020 0.191 0.042l-0.031 0.091c-0.028-0.015-0.086-0.041-0.164-0.041-0.118 0-0.163 0.070-0.163 0.13 0 0.081 0.053 0.121 0.172 0.166 0.146 0.057 0.22 0.127 0.22 0.254 0 0.133-0.099 0.249-0.302 0.249-0.083 0-0.174-0.024-0.22-0.055l0.028-0.095z"></path>
<path fill="#0080c9" d="M25.046 18.415h-0.263v-0.095h0.64v0.095h-0.265v0.769h-0.113z"></path>
<path fill="#0080c9" d="M25.845 18.32h0.112v0.864h-0.112v-0.864z"></path>
<path fill="#0080c9" d="M27.082 19.156c-0.041 0.020-0.123 0.041-0.228 0.041-0.244 0-0.427-0.154-0.427-0.437 0-0.271 0.183-0.454 0.451-0.454 0.108 0 0.176 0.023 0.205 0.038l-0.027 0.091c-0.042-0.020-0.102-0.036-0.174-0.036-0.202 0-0.337 0.13-0.337 0.356 0 0.211 0.122 0.347 0.332 0.347 0.068 0 0.137-0.014 0.182-0.036l0.024 0.088z"></path>
<path fill="#0080c9" d="M28.259 18.743c0 0.297-0.181 0.455-0.401 0.455-0.228 0-0.389-0.177-0.389-0.438 0-0.274 0.17-0.454 0.401-0.454 0.236 0 0.389 0.181 0.389 0.437zM27.589 18.757c0 0.185 0.1 0.35 0.275 0.35 0.177 0 0.277-0.163 0.277-0.359 0-0.172-0.090-0.351-0.276-0.351-0.184 0-0.276 0.17-0.276 0.36z"></path>
</svg>
