<!-- Generated by IcoMoon.io -->
<svg version="1.1" xmlns="http://www.w3.org/2000/svg" width="32" height="32" viewBox="0 0 32 32">
<title>logo-fristudio</title>
<path fill="#fff" d="M30.101 16.226v0 0.061c-0.006 0.15-0.018 0.299-0.024 0.448l-0.006 0.078c-0.013 0.144-0.024 0.286-0.048 0.461l-0.006 0.054c-0.011 0.114-0.029 0.227-0.042 0.341l-1.293-1.382h0.006c0.029-0.011 0.059-0.024 0.090-0.029l0.336-0.102c0.018-0.006 0.029-0.006 0.053-0.013l0.389-0.083 0.109-0.018c0.029-0.006 0.053-0.013 0.090-0.013 0.030-0.006 0.059-0.006 0.090-0.011l0.053-0.006c0.018 0 0.037-0.006 0.059-0.006 0.030-0.005 0.059-0.005 0.096-0.005l0.059-0.006c-0.003 0.070-0.010 0.147-0.010 0.232zM29.766 18.755l-0.013 0.037c-0.037 0.155-0.070 0.31-0.114 0.454l-0.006 0.024c-0.035 0.144-0.078 0.288-0.12 0.424l-2.35-2.536c0.067-0.053 0.138-0.107 0.21-0.162l0.168-0.12 0.013-0.011 0.011-0.005 0.037-0.026c0.037-0.024 0.072-0.048 0.102-0.070l0.078-0.048c0.029-0.018 0.066-0.042 0.107-0.066 0.013-0.006 0.024-0.011 0.042-0.024l0.078-0.042 1.802 1.944-0.045 0.226zM28.838 21.483l-2.805-3.027c0.179-0.293 0.382-0.562 0.616-0.813l2.608 2.813c-0.12 0.346-0.264 0.686-0.419 1.027zM27.982 23.075l-2.621-2.83c0.066-0.389 0.179-0.771 0.328-1.125l2.818 3.040c-0.16 0.306-0.339 0.616-0.525 0.915zM26.75 24.762c-0.155-0.162-0.299-0.328-0.443-0.514-0.459-0.618-0.771-1.31-0.922-2.059-0.066-0.323-0.102-0.658-0.102-0.998l2.302 2.482c-0.261 0.378-0.542 0.742-0.835 1.090zM26.254 25.325v0c-0.712 0.944-1.926 1.861-3.715 2.794-1.802 0.939-3.8 1.494-5.773 1.597-4.014 0.234-8.088-1.376-10.912-4.29-0.037-0.037-0.072-0.072-0.107-0.107l-0.030-0.030c0.102-0.102 0.198-0.203 0.286-0.31l0.138 0.125c2.339 2.226 5.827 3.632 9.333 3.757h0.090v-0.114c-0.006-0.192-0.013-4.53 0-6.384 0-0.522 0.006-0.898 0.006-1.011v-1.21c0.317 0.013 0.598 0.018 0.867 0v8.706h0.029c0.162 0.077 2.453-0.294 2.477-0.299 0.856-0.179 1.699-0.424 2.501-0.742 1.68-0.658 3.165-1.562 4.294-2.602 0.037-0.030 0.072-0.059 0.12-0.102 0 0 0.078-0.066 0.138-0.125 0.054 0.066 0.144 0.155 0.286 0.306-0.010 0.013-0.022 0.030-0.027 0.043zM5.25 24.762c-0.293-0.347-0.574-0.712-0.837-1.082l2.302-2.483c0 0.341-0.035 0.677-0.102 1-0.149 0.741-0.459 1.435-0.926 2.062-0.131 0.168-0.28 0.336-0.437 0.502zM3.491 22.154l2.818-3.038c0.155 0.365 0.264 0.741 0.33 1.125l-2.627 2.83c-0.19-0.306-0.365-0.618-0.52-0.917zM2.738 20.454l2.608-2.813c0.232 0.251 0.443 0.526 0.616 0.813l-2.805 3.027c-0.15-0.339-0.294-0.68-0.419-1.027zM2.366 19.282l-0.006-0.030c-0.042-0.155-0.078-0.31-0.12-0.467l-0.006-0.024c-0.018-0.078-0.037-0.149-0.048-0.227l1.802-1.944 0.083 0.048c0.018 0.006 0.030 0.018 0.048 0.024 0.030 0.018 0.067 0.037 0.102 0.059l0.072 0.048c0.037 0.024 0.072 0.042 0.107 0.072l0.078 0.053c0.048 0.037 0.102 0.072 0.144 0.102 0.072 0.054 0.144 0.109 0.21 0.168l-2.352 2.538c-0.035-0.15-0.077-0.288-0.114-0.419zM1.989 17.302l-0.006-0.053c-0.018-0.15-0.029-0.299-0.042-0.448l-0.006-0.059c-0.013-0.15-0.018-0.299-0.030-0.456l-0.011-0.299 0.059 0.006c0.029 0 0.059 0 0.094 0.006 0.018 0 0.030 0.005 0.067 0.005l0.035 0.006c0.030 0 0.059 0.006 0.096 0.011l0.402 0.072c0.011 0 0.024 0.006 0.037 0.006l0.090 0.018c0.013 0.006 0.024 0.006 0.059 0.018l0.382 0.114c0.029 0.013 0.059 0.026 0.102 0.037l-1.28 1.382c-0.018-0.122-0.035-0.248-0.048-0.366zM13.045 18.493c-0.107-0.072-0.21-0.149-0.31-0.227-0.096-0.078-0.19-0.162-0.293-0.258-0.083-0.078-0.174-0.168-0.27-0.275-0.094-0.109-0.179-0.203-0.251-0.294-0.078-0.096-0.149-0.198-0.227-0.31-0.078-0.12-0.144-0.227-0.203-0.328-0.066-0.114-0.125-0.229-0.179-0.341-0.054-0.12-0.107-0.234-0.149-0.36-0.048-0.12-0.090-0.245-0.126-0.365-0.042-0.138-0.070-0.258-0.102-0.378-0.029-0.125-0.053-0.251-0.070-0.376s-0.030-0.251-0.042-0.378c-0.013-0.376 0.011-0.736 0.059-1.064 0.042-0.258 0.114-0.502 0.19-0.76l0.037-0.107c0.042-0.131 0.083-0.269 0.131-0.402 0.042-0.131 0.090-0.264 0.144-0.394 0.048-0.133 0.102-0.264 0.155-0.395 0.054-0.131 0.107-0.256 0.168-0.389 0.059-0.131 0.12-0.256 0.179-0.382 0.067-0.125 0.125-0.251 0.198-0.376 0.066-0.125 0.138-0.245 0.21-0.371 0.072-0.118 0.144-0.238 0.221-0.365 0.072-0.118 0.15-0.238 0.227-0.352 0.078-0.12 0.162-0.232 0.246-0.347 0.077-0.114 0.168-0.227 0.251-0.341s0.173-0.221 0.264-0.328c0.090-0.107 0.179-0.216 0.275-0.323s0.187-0.21 0.282-0.31l0.021-0.029c0.621-0.658 1.322-1.267 2.070-1.8 1.262-0.904 2.674-1.616 4.192-2.118 0.771 2.92 1.902 5.738 3.374 8.381l0.018 0.030c0.192 0.347 0.39 0.706 0.426 1.090 0.026 0.275-0.029 0.574-0.173 0.933-0.037 0.090-0.078 0.179-0.114 0.264-0.933 2.010-2.638 3.65-4.685 4.493-1.387 0.574-2.883 0.736-4.224 0.456-0.712-0.152-1.358-0.421-1.92-0.803zM8.104 14.288c-0.037-0.078-0.072-0.162-0.107-0.245-0.144-0.36-0.198-0.646-0.168-0.909 0.037-0.347 0.221-0.688 0.406-1.018s0.378-0.694 0.586-1.101c0.186-0.358 0.371-0.736 0.557-1.13 0.173-0.378 0.347-0.76 0.514-1.149 0.19-0.448 0.341-0.819 0.478-1.16 0.162-0.419 0.306-0.808 0.437-1.179 0.144-0.402 0.275-0.808 0.395-1.197 0.125-0.395 0.245-0.802 0.358-1.21l0.013-0.054c0.042-0.149 0.066-0.238 0.083-0.298 1.328 0.413 2.578 1.011 3.733 1.771-0.114 0.090-0.227 0.179-0.341 0.269l-0.042 0.037c-0.083 0.072-0.162 0.138-0.251 0.21l-0.162 0.144c-0.078 0.067-0.15 0.138-0.227 0.21-0.234 0.221-0.456 0.437-0.646 0.64l-0.144 0.15c-0.054 0.059-0.109 0.114-0.162 0.173-0.042 0.048-0.090 0.102-0.125 0.144-0.054 0.059-0.109 0.12-0.155 0.179-0.048 0.054-0.090 0.102-0.125 0.15-0.054 0.066-0.109 0.131-0.168 0.21-0.053 0.066-0.102 0.125-0.149 0.198-0.048 0.066-0.102 0.136-0.155 0.203-0.029 0.035-0.053 0.070-0.077 0.107l-0.067 0.090c-0.083 0.114-0.162 0.229-0.232 0.336l-0.018 0.024c-0.030 0.042-0.054 0.083-0.083 0.125l-0.048 0.078c-0.035 0.054-0.070 0.114-0.107 0.168l-0.107 0.174c-0.024 0.042-0.048 0.083-0.072 0.12l-0.037 0.053c-0.011 0.018-0.018 0.030-0.024 0.043-0.006 0.011-0.018 0.024-0.024 0.042-0.024 0.042-0.048 0.083-0.070 0.125l-0.030 0.059c-0.107 0.19-0.221 0.394-0.323 0.605l-0.024 0.048c-0.024 0.054-0.054 0.107-0.078 0.162-0.029 0.066-0.059 0.131-0.102 0.214l-0.094 0.216c-0.043 0.091-0.078 0.179-0.114 0.269-0.107 0.258-0.216 0.533-0.317 0.813-0.011 0.037-0.024 0.067-0.037 0.091l-0.029 0.090c-0.013 0.037-0.024 0.072-0.037 0.109-0.179 0.562-0.269 1.136-0.269 1.706v0.070c0 0.933 0.216 1.824 0.634 2.656l0.090 0.166c0.029 0.059 0.066 0.114 0.094 0.168 0.072 0.12 0.144 0.232 0.21 0.328l0.029 0.048c0.054 0.078 0.114 0.155 0.174 0.234 0.114 0.144 0.221 0.269 0.317 0.376 0.018 0.018 0.037 0.037 0.048 0.054-1.574-0.933-2.85-2.344-3.608-4.006zM12.339 3.094c0.394-0.179 0.813-0.269 1.256-0.269 0.448 0 0.885 0.094 1.286 0.28-0.328 0.168-0.616 0.408-0.843 0.701-0.437-0.216-0.885-0.406-1.328-0.568l-0.090-0.037c-0.102-0.042-0.205-0.078-0.294-0.107h0.013zM17.131 2.346c-0.328 0.12-0.646 0.286-0.933 0.496-0.066-0.006-0.125-0.006-0.203-0.006h-0.030c-0.053 0-0.107 0-0.162 0.006-0.286-0.21-0.598-0.376-0.933-0.496 0.741-0.096 1.518-0.096 2.261 0zM17.328 4.141l-1.328 0.826-1.328-0.826c0.282-0.317 0.658-0.525 1.082-0.586 0.155-0.026 0.328-0.026 0.498 0 0.408 0.059 0.797 0.269 1.077 0.586zM17.269 3.046l0.144-0.053c0.037-0.013 0.066-0.024 0.102-0.037l0.037-0.011c0.048-0.013 0.094-0.026 0.144-0.037 0.048-0.013 0.094-0.024 0.144-0.030 0.048-0.006 0.102-0.018 0.149-0.024 0.048-0.005 0.096-0.013 0.149-0.018 0.048-0.006 0.096-0.006 0.15-0.011h0.125c0.437 0 0.874 0.094 1.269 0.275-0.586 0.203-1.166 0.437-1.717 0.706l-0.006-0.006c-0.013-0.018-0.026-0.030-0.030-0.042-0.029-0.042-0.059-0.078-0.096-0.109-0.029-0.035-0.066-0.070-0.102-0.107-0.029-0.029-0.059-0.054-0.090-0.083l-0.018-0.018c-0.037-0.030-0.070-0.059-0.107-0.090s-0.078-0.059-0.114-0.085c-0.042-0.029-0.083-0.053-0.125-0.077-0.042-0.026-0.083-0.048-0.125-0.072l-0.024-0.013h-0.006c0.006 0 0.013-0.006 0.013-0.006 0.045-0.018 0.093-0.035 0.134-0.053zM30.358 15.269c-1.682 0-3.35 0.813-4.469 2.178-1.101 1.347-1.544 3.182-1.19 4.918 0.083 0.43 0.221 0.843 0.402 1.238 0.107 0.232 0.227 0.443 0.352 0.629 0.018 0.029 0.037 0.059 0.059 0.096 0.024 0.035 0.048 0.070 0.072 0.107l0.018 0.024c-0.144 0.341-2.859 1.986-3.309 2.213-1.387 0.688-2.925 1.149-4.696 1.4l-0.467 0.048v-8.042l0.168-0.018c1.352-0.197 2.651-0.682 3.746-1.4 0.203-0.131 0.406-0.275 0.605-0.424 0.802-0.61 1.501-1.358 2.075-2.213 0.382-0.568 0.683-1.136 0.898-1.693 0.059-0.15 0.114-0.306 0.174-0.485 0.083-0.258 0.114-0.515 0.107-0.784-0.006-0.221-0.107-0.418-0.198-0.61-0.018-0.042-0.042-0.078-0.059-0.12-0.162-0.352-0.352-0.694-0.533-1.029-0.125-0.234-0.251-0.461-0.371-0.694l-0.030-0.059c-0.43-0.856-0.843-1.758-1.256-2.781-0.070-0.173-0.136-0.341-0.203-0.52l-0.018-0.048c-0.006-0.12-0.070-0.251-0.131-0.376-0.024-0.054-0.048-0.109-0.066-0.15-0.078-0.203-0.15-0.413-0.221-0.616-0.192-0.557-0.378-1.131-0.55-1.71l-0.008-0.029c-0.035-0.131-0.070-0.256-0.114-0.406l-0.072-0.269c-0.037-0.12-0.066-0.245-0.094-0.365-0.018-0.072-0.048-0.186-0.12-0.286-0.072-0.102-0.174-0.162-0.245-0.198l-0.026-0.018c-0.131-0.078-0.264-0.144-0.389-0.203l-0.12-0.059c-0.053-0.029-0.114-0.053-0.168-0.078-0.658-0.306-1.352-0.538-2.070-0.682-1.794-0.365-3.715-0.174-5.408 0.533-0.371 0.155-0.706 0.299-1.035 0.498-0.070 0.042-0.173 0.102-0.245 0.203-0.125 0.168-0.179 0.413-0.221 0.629-0.018 0.077-0.035 0.155-0.053 0.227-0.083 0.306-0.174 0.61-0.264 0.909-0.522 1.693-1.144 3.309-1.843 4.803-0.365 0.766-0.694 1.43-1.018 2.022l-0.024 0.042c-0.078 0.15-0.162 0.294-0.245 0.443l-0.030 0.054c-0.114 0.203-0.232 0.418-0.299 0.658-0.090 0.31-0.066 0.659 0.059 1.059 0.048 0.155 0.102 0.306 0.162 0.448 0.221 0.568 0.526 1.149 0.915 1.73 0.922 1.382 2.238 2.506 3.805 3.266 0.771 0.371 1.651 0.621 2.782 0.795l0.006 8.040-0.070-0.006-0.12-0.013c-1.693-0.168-3.368-0.664-4.984-1.466-1.053-0.522-2.016-1.149-2.87-1.872-0.030-0.030-0.067-0.059-0.109-0.096l-0.282-0.251c0.013-0.018 0.026-0.037 0.037-0.054l0.018-0.029c0.754-1.166 1.070-2.579 0.878-3.973-0.011-0.109-0.029-0.216-0.053-0.317-0.107-0.568-0.299-1.114-0.563-1.621-0.042-0.083-0.090-0.168-0.131-0.24-0.264-0.442-0.581-0.848-0.946-1.208-0.066-0.059-0.125-0.12-0.19-0.179-0.138-0.125-0.282-0.24-0.432-0.352-0.264-0.198-0.544-0.371-0.824-0.515-0.083-0.042-0.168-0.083-0.245-0.12-0.736-0.334-1.526-0.514-2.35-0.526h-0.459v0.347c0 3.501 1.382 7.162 3.691 9.787l0.083 0.096c2.763 3.147 6.898 4.923 11.102 4.923 1.070 0 2.147-0.114 3.206-0.352 4.63-1.035 8.752-4.552 10.499-8.957 0.683-1.717 1.040-3.613 1.040-5.491v-0.349h-0.454v-0.011z"></path>
</svg>
