<!-- Generated by IcoMoon.io -->
<svg version="1.1" xmlns="http://www.w3.org/2000/svg" width="113" height="32" viewBox="0 0 113 32">
<title>logo</title>
<path fill="#c6c6c6" d="M24.264 3.19c-0.128 0.026-0.258 0.056-0.386 0.086-0.128 0.032-0.256 0.066-0.384 0.102s-0.258 0.076-0.386 0.116c-0.128 0.042-0.254 0.086-0.382 0.132-0.28 0.098-0.558 0.208-0.83 0.332-0.276 0.124-0.548 0.26-0.814 0.406-0.27 0.15-0.536 0.31-0.794 0.484-0.262 0.174-0.516 0.358-0.766 0.556-0.308 0.334-0.598 0.686-0.872 1.058-0.276 0.376-0.532 0.77-0.77 1.18-0.24 0.414-0.46 0.844-0.656 1.29-0.2 0.448-0.376 0.91-0.53 1.382-0.162 0.502-0.296 1.016-0.404 1.538-0.108 0.524-0.188 1.058-0.238 1.596-0.052 0.54-0.074 1.084-0.068 1.63s0.042 1.094 0.108 1.636c0.064 0.544 0.158 1.082 0.28 1.614s0.272 1.054 0.448 1.564c0.176 0.51 0.38 1.008 0.606 1.49 0.224 0.48 0.476 0.944 0.746 1.388 0.27 0.446 0.564 0.874 0.874 1.278s0.638 0.784 0.984 1.144c0.342 0.354 0.7 0.688 1.072 0.996 0.37 0.304 0.75 0.586 1.146 0.842 0.388 0.252 0.788 0.48 1.196 0.68 0.402 0.198 0.812 0.372 1.228 0.52 0.408 0.146 0.824 0.266 1.24 0.362 0.414 0.096 0.826 0.164 1.24 0.208 0.408 0.044 0.816 0.064 1.222 0.060 0.4-0.004 0.8-0.030 1.194-0.078 0.388-0.048 0.772-0.118 1.152-0.21 0.372-0.088 0.74-0.198 1.102-0.33 0.066-0.024 0.136-0.050 0.2-0.074 0.068-0.026 0.136-0.052 0.202-0.078 0.064-0.028 0.132-0.056 0.198-0.084 0.064-0.028 0.13-0.058 0.196-0.086 0.144-0.090 0.284-0.184 0.422-0.28 0.14-0.096 0.276-0.196 0.41-0.298 0.136-0.102 0.266-0.206 0.396-0.314 0.128-0.106 0.256-0.216 0.38-0.328 0.026-0.022 0.052-0.044 0.076-0.068 0.026-0.022 0.050-0.046 0.074-0.068 0.026-0.022 0.052-0.046 0.076-0.070 0.024-0.022 0.048-0.046 0.072-0.070-0.142 0.102-0.286 0.202-0.432 0.296-0.148 0.094-0.296 0.188-0.448 0.276s-0.306 0.174-0.464 0.254c-0.158 0.080-0.318 0.158-0.476 0.23-0.076 0.034-0.152 0.068-0.228 0.1-0.078 0.032-0.152 0.064-0.23 0.094s-0.156 0.060-0.234 0.088c-0.078 0.028-0.156 0.056-0.236 0.082-0.35 0.12-0.708 0.22-1.068 0.3-0.368 0.080-0.738 0.14-1.114 0.178-0.38 0.040-0.766 0.058-1.15 0.052-0.39-0.004-0.782-0.032-1.172-0.082-0.398-0.050-0.794-0.126-1.186-0.222-0.398-0.1-0.794-0.224-1.184-0.372-0.396-0.15-0.784-0.324-1.168-0.522-0.384-0.202-0.764-0.426-1.13-0.674-0.372-0.25-0.73-0.526-1.076-0.824-0.348-0.3-0.686-0.624-1.006-0.97-0.322-0.348-0.628-0.716-0.916-1.104-0.29-0.39-0.56-0.798-0.808-1.222-0.252-0.43-0.482-0.876-0.69-1.334-0.208-0.462-0.39-0.936-0.548-1.42-0.16-0.486-0.294-0.982-0.4-1.484-0.106-0.504-0.188-1.014-0.242-1.526s-0.082-1.028-0.082-1.54c0.002-0.512 0.028-1.024 0.084-1.53 0.054-0.504 0.134-1.006 0.24-1.496s0.236-0.97 0.392-1.44c0.294-0.904 0.682-1.762 1.148-2.554 0.458-0.78 0.988-1.494 1.582-2.132 0.58-0.626 1.216-1.176 1.894-1.64 0.66-0.446 1.362-0.818 2.088-1.096zM27.764 1.854c-0.296-0.010-0.594-0.006-0.892 0.010-0.302 0.016-0.602 0.046-0.9 0.088-0.304 0.044-0.604 0.1-0.904 0.168-0.302 0.072-0.602 0.156-0.898 0.254-0.032 0.010-0.066 0.022-0.098 0.034s-0.066 0.024-0.098 0.036c-0.034 0.012-0.066 0.024-0.098 0.036s-0.066 0.024-0.098 0.038c0.2-0.038 0.402-0.072 0.606-0.1 0.2-0.028 0.402-0.050 0.602-0.066s0.4-0.028 0.598-0.034c0.2-0.006 0.398-0.006 0.594-0.002 0.102 0.002 0.204 0.006 0.306 0.010 0.102 0.006 0.204 0.012 0.304 0.020s0.2 0.018 0.3 0.028c0.1 0.012 0.2 0.024 0.3 0.036 0.038 0.006 0.076 0.012 0.116 0.016 0.038 0.006 0.076 0.012 0.114 0.018s0.076 0.012 0.114 0.018c0.038 0.006 0.076 0.014 0.112 0.020 0.032 0 0.060 0 0.090 0h0.090c0.030 0 0.060 0 0.090 0 0.028 0.002 0.058 0.002 0.088 0.002 0.43 0.010 0.862 0.046 1.286 0.11 0.42 0.062 0.838 0.15 1.246 0.264 0.406 0.112 0.804 0.248 1.194 0.408 0.386 0.158 0.764 0.34 1.132 0.544 0.308 0.17 0.61 0.356 0.906 0.556 0.292 0.198 0.574 0.41 0.85 0.634 0.272 0.222 0.536 0.458 0.79 0.706 0.252 0.244 0.494 0.502 0.726 0.77 0.23 0.266 0.45 0.544 0.658 0.83 0.208 0.284 0.404 0.58 0.59 0.882 0.184 0.3 0.356 0.61 0.518 0.926s0.31 0.636 0.448 0.962c0.134 0.326 0.258 0.658 0.37 0.994s0.212 0.674 0.298 1.018c0.088 0.342 0.164 0.686 0.226 1.034s0.112 0.698 0.15 1.048c0.038 0.352 0.062 0.704 0.074 1.056 0.012 0.354 0.010 0.706-0.002 1.058-0.014 0.352-0.040 0.704-0.078 1.054s-0.090 0.698-0.152 1.044c-0.12 0.648-0.286 1.284-0.492 1.902-0.21 0.624-0.464 1.23-0.758 1.81-0.3 0.588-0.64 1.15-1.018 1.68-0.386 0.538-0.812 1.042-1.278 1.498-0.1 0.134-0.206 0.268-0.312 0.398-0.108 0.13-0.216 0.26-0.328 0.386-0.114 0.128-0.228 0.252-0.346 0.376s-0.238 0.244-0.36 0.362c0.094-0.068 0.186-0.136 0.276-0.206s0.178-0.142 0.266-0.214c0.090-0.072 0.174-0.146 0.26-0.222 0.086-0.074 0.17-0.15 0.254-0.228 0.266-0.248 0.522-0.51 0.766-0.782 0.242-0.27 0.47-0.55 0.688-0.842 0.214-0.288 0.418-0.586 0.608-0.894 0.19-0.304 0.366-0.616 0.532-0.938 0.162-0.318 0.312-0.644 0.45-0.978 0.136-0.33 0.258-0.666 0.372-1.006 0.11-0.34 0.208-0.682 0.292-1.030 0.086-0.346 0.158-0.694 0.218-1.048 0.12-0.698 0.188-1.408 0.208-2.12 0.020-0.708-0.010-1.42-0.090-2.126-0.078-0.706-0.204-1.406-0.38-2.092-0.174-0.688-0.398-1.366-0.67-2.020-0.272-0.662-0.59-1.304-0.952-1.914-0.366-0.62-0.778-1.212-1.23-1.766-0.46-0.564-0.962-1.090-1.5-1.568-0.552-0.488-1.142-0.928-1.77-1.306-0.316-0.194-0.642-0.372-0.976-0.534-0.336-0.164-0.682-0.312-1.032-0.442-0.354-0.132-0.714-0.246-1.084-0.342s-0.746-0.172-1.126-0.228c-0.096-0.012-0.192-0.026-0.286-0.036-0.094-0.012-0.192-0.022-0.288-0.030s-0.192-0.016-0.288-0.022c-0.1 0.002-0.196-0.002-0.294-0.006z"></path>
<path fill="#3fa2db" d="M24.264 3.19c0.2-0.040 0.398-0.076 0.596-0.106 0.2-0.030 0.396-0.054 0.594-0.072 0.198-0.020 0.394-0.032 0.592-0.040 0.196-0.008 0.392-0.010 0.586-0.008 0.456 0.006 0.91 0.040 1.36 0.102 0.442 0.060 0.88 0.148 1.312 0.26 0.426 0.11 0.846 0.248 1.256 0.408 0.404 0.158 0.802 0.342 1.19 0.548 0.324 0.172 0.642 0.36 0.952 0.562 0.304 0.2 0.602 0.414 0.892 0.642 0.284 0.224 0.56 0.464 0.828 0.716 0.262 0.248 0.516 0.51 0.758 0.784 0.242 0.27 0.472 0.552 0.69 0.844 0.216 0.29 0.42 0.59 0.614 0.898 0.192 0.306 0.372 0.62 0.54 0.942 0.168 0.32 0.322 0.648 0.464 0.982 0.142 0.332 0.27 0.672 0.388 1.014 0.116 0.342 0.22 0.688 0.31 1.040 0.090 0.35 0.168 0.702 0.234 1.056s0.118 0.714 0.156 1.072c0.040 0.36 0.064 0.72 0.074 1.080 0.012 0.36 0.010 0.722-0.006 1.084-0.014 0.36-0.044 0.722-0.084 1.080-0.042 0.36-0.096 0.718-0.164 1.072-0.128 0.682-0.308 1.354-0.536 2.004-0.228 0.658-0.506 1.298-0.826 1.91-0.326 0.622-0.698 1.218-1.114 1.774-0.422 0.568-0.89 1.102-1.4 1.586-0.024 0.024-0.048 0.048-0.074 0.070-0.024 0.024-0.050 0.046-0.076 0.070-0.024 0.024-0.048 0.046-0.074 0.068-0.024 0.024-0.050 0.046-0.076 0.068-0.124 0.112-0.252 0.222-0.38 0.328-0.13 0.108-0.26 0.212-0.396 0.312-0.134 0.102-0.27 0.2-0.41 0.298-0.138 0.096-0.28 0.19-0.422 0.28-0.104 0.066-0.21 0.132-0.316 0.194-0.106 0.064-0.214 0.124-0.324 0.182-0.108 0.060-0.218 0.118-0.33 0.174-0.11 0.056-0.224 0.11-0.338 0.162-0.078 0.038-0.158 0.072-0.238 0.106-0.082 0.036-0.162 0.070-0.242 0.102-0.082 0.032-0.162 0.064-0.242 0.096-0.082 0.030-0.166 0.060-0.248 0.090-0.372 0.13-0.748 0.24-1.13 0.33-0.388 0.090-0.78 0.16-1.176 0.21-0.402 0.048-0.808 0.076-1.214 0.080-0.414 0.004-0.828-0.016-1.244-0.058-0.418-0.044-0.84-0.114-1.256-0.206-0.422-0.094-0.842-0.214-1.256-0.358-0.42-0.146-0.834-0.318-1.238-0.514-0.41-0.2-0.81-0.424-1.2-0.672-0.394-0.252-0.778-0.528-1.146-0.83-0.372-0.304-0.728-0.632-1.068-0.984-0.342-0.352-0.668-0.728-0.972-1.122-0.308-0.4-0.594-0.816-0.858-1.252-0.268-0.442-0.51-0.9-0.73-1.372-0.22-0.474-0.414-0.964-0.58-1.462-0.17-0.502-0.31-1.012-0.422-1.53-0.114-0.52-0.198-1.048-0.254-1.578s-0.084-1.064-0.082-1.596c0.002-0.532 0.034-1.062 0.094-1.59 0.060-0.524 0.146-1.042 0.262-1.554 0.114-0.508 0.254-1.006 0.424-1.496 0.212-0.626 0.466-1.232 0.762-1.81 0.292-0.572 0.622-1.118 0.986-1.632 0.36-0.508 0.75-0.986 1.168-1.428 0.414-0.436 0.854-0.838 1.316-1.202 0.25-0.198 0.506-0.382 0.766-0.556 0.258-0.172 0.524-0.334 0.796-0.482 0.266-0.146 0.538-0.284 0.814-0.408 0.272-0.124 0.55-0.234 0.83-0.332 0.128-0.046 0.254-0.092 0.382-0.132s0.258-0.080 0.386-0.116c0.128-0.036 0.258-0.070 0.384-0.102 0.128-0.026 0.258-0.054 0.386-0.080zM26.176 2.316c-0.198-0.004-0.396-0.004-0.594 0.002-0.2 0.006-0.398 0.016-0.598 0.034-0.2 0.016-0.402 0.040-0.602 0.066-0.204 0.028-0.406 0.062-0.606 0.1-0.118 0.022-0.236 0.048-0.354 0.074s-0.236 0.056-0.354 0.086c-0.118 0.032-0.236 0.064-0.354 0.098-0.116 0.036-0.234 0.072-0.35 0.11-0.426 0.142-0.846 0.312-1.258 0.504-0.416 0.196-0.826 0.416-1.222 0.66-0.404 0.248-0.794 0.522-1.172 0.82-0.382 0.3-0.75 0.628-1.1 0.978-0.352 0.354-0.686 0.734-1 1.134-0.316 0.406-0.612 0.834-0.886 1.278-0.276 0.45-0.526 0.92-0.752 1.404-0.228 0.488-0.43 0.994-0.606 1.51-0.174 0.522-0.32 1.056-0.436 1.598-0.116 0.544-0.204 1.098-0.26 1.658s-0.082 1.124-0.078 1.69c0.004 0.566 0.040 1.132 0.108 1.694 0.066 0.562 0.166 1.12 0.294 1.67 0.128 0.548 0.286 1.088 0.476 1.616 0.186 0.526 0.4 1.038 0.642 1.534 0.238 0.494 0.504 0.968 0.792 1.424 0.288 0.458 0.598 0.894 0.93 1.31 0.328 0.412 0.678 0.8 1.046 1.164 0.362 0.362 0.744 0.698 1.138 1.010 0.392 0.308 0.8 0.59 1.216 0.846 0.414 0.252 0.84 0.478 1.272 0.678 0.426 0.198 0.862 0.366 1.302 0.51 0.434 0.142 0.876 0.256 1.318 0.346 0.434 0.088 0.874 0.15 1.312 0.188 0.432 0.038 0.864 0.048 1.296 0.036 0.424-0.012 0.844-0.048 1.26-0.108 0.412-0.058 0.818-0.138 1.218-0.24 0.394-0.098 0.782-0.222 1.164-0.364 0.076-0.028 0.152-0.056 0.228-0.086s0.148-0.060 0.224-0.092c0.074-0.032 0.148-0.064 0.222-0.096s0.146-0.066 0.218-0.1c0.288-0.134 0.568-0.28 0.842-0.438 0.27-0.154 0.536-0.322 0.796-0.498 0.256-0.174 0.506-0.358 0.748-0.552 0.24-0.192 0.474-0.392 0.7-0.602 0.014-0.014 0.030-0.030 0.044-0.044 0.016-0.012 0.032-0.028 0.046-0.042s0.030-0.028 0.044-0.044c0.014-0.014 0.028-0.028 0.044-0.042 0.122-0.118 0.242-0.24 0.36-0.362s0.232-0.248 0.346-0.376c0.11-0.126 0.22-0.256 0.328-0.386 0.106-0.13 0.212-0.264 0.312-0.398 0.114-0.15 0.224-0.304 0.332-0.46 0.108-0.154 0.212-0.312 0.312-0.47 0.098-0.158 0.196-0.32 0.29-0.482 0.092-0.162 0.182-0.326 0.27-0.492 0.17-0.33 0.33-0.666 0.474-1.010 0.144-0.34 0.274-0.688 0.39-1.038 0.116-0.348 0.22-0.704 0.31-1.062 0.088-0.354 0.166-0.714 0.228-1.076 0.128-0.718 0.204-1.448 0.224-2.178 0.022-0.726-0.010-1.456-0.090-2.178s-0.212-1.438-0.392-2.14c-0.182-0.704-0.414-1.394-0.7-2.062-0.28-0.676-0.612-1.33-0.99-1.952-0.382-0.632-0.812-1.232-1.284-1.796-0.48-0.572-1.008-1.106-1.572-1.592-0.576-0.496-1.198-0.94-1.852-1.324-0.3-0.176-0.61-0.34-0.926-0.49-0.318-0.154-0.644-0.292-0.974-0.416-0.336-0.126-0.676-0.238-1.022-0.334-0.35-0.096-0.704-0.178-1.064-0.242-0.036-0.006-0.074-0.012-0.112-0.020-0.038-0.006-0.078-0.012-0.116-0.018s-0.076-0.012-0.114-0.018c-0.040-0.004-0.078-0.010-0.116-0.016-0.098-0.014-0.2-0.024-0.3-0.036-0.1-0.010-0.2-0.020-0.3-0.028-0.102-0.008-0.202-0.014-0.304-0.020-0.102-0.004-0.202-0.006-0.306-0.010z"></path>
<path fill="#706f6f" d="M56.704 11.128h1.208v9.36h-1.208v-9.36z"></path>
<path fill="#706f6f" d="M68.022 15.71c0 3.222-1.958 4.93-4.348 4.93-2.472 0-4.208-1.916-4.208-4.75 0-2.972 1.848-4.916 4.348-4.916 2.556 0 4.208 1.958 4.208 4.736zM60.76 15.862c0 2 1.084 3.792 2.986 3.792 1.916 0 3-1.764 3-3.888 0-1.862-0.972-3.806-2.986-3.806-2.002 0-3 1.848-3 3.902z"></path>
<path fill="#706f6f" d="M69.592 11.252c0.61-0.124 1.486-0.194 2.32-0.194 1.292 0 2.124 0.236 2.708 0.764 0.472 0.416 0.736 1.056 0.736 1.778 0 1.236-0.778 2.056-1.764 2.388v0.042c0.722 0.25 1.152 0.916 1.376 1.89 0.306 1.306 0.528 2.208 0.722 2.57h-1.25c-0.152-0.264-0.36-1.070-0.624-2.236-0.278-1.292-0.778-1.778-1.876-1.82h-1.14v4.056h-1.208v-9.238zM70.8 15.516h1.236c1.292 0 2.11-0.708 2.11-1.778 0-1.208-0.876-1.736-2.152-1.75-0.584 0-1 0.056-1.194 0.112v3.416z"></path>
<path fill="#706f6f" d="M84.232 20.072c-0.542 0.194-1.612 0.514-2.876 0.514-1.416 0-2.584-0.36-3.5-1.236-0.806-0.778-1.306-2.028-1.306-3.486 0.014-2.792 1.93-4.834 5.070-4.834 1.084 0 1.93 0.236 2.334 0.43l-0.292 0.986c-0.5-0.222-1.124-0.402-2.070-0.402-2.278 0-3.764 1.416-3.764 3.764 0 2.376 1.43 3.778 3.61 3.778 0.792 0 1.334-0.11 1.612-0.25v-2.792h-1.902v-0.972h3.084v4.5z"></path>
<path fill="#706f6f" d="M86.080 11.128h1.208v9.36h-1.208v-9.36z"></path>
<path fill="#706f6f" d="M89.398 20.488v-9.36h1.32l3 4.736c0.694 1.098 1.236 2.084 1.68 3.042l0.028-0.014c-0.112-1.25-0.14-2.388-0.14-3.848v-3.916h1.14v9.36h-1.222l-2.972-4.75c-0.652-1.042-1.278-2.11-1.75-3.124l-0.042 0.014c0.070 1.18 0.096 2.306 0.096 3.86v4h-1.138z"></path>
<path fill="#706f6f" d="M98.538 11.128h1.208v9.36h-1.208v-9.36z"></path>
<path fill="#706f6f" d="M55.004 19.836c-0.82 0.294-2.44 0.778-4.356 0.778-2.146 0-3.914-0.548-5.302-1.872-1.22-1.178-1.978-3.072-1.978-5.28 0.022-4.228 2.924-7.322 7.68-7.322 1.642 0 2.924 0.358 3.534 0.652l-0.442 1.494c-0.758-0.336-1.704-0.61-3.134-0.61-3.45 0-5.702 2.146-5.702 5.702 0 3.598 2.168 5.722 5.47 5.722 1.2 0 2.020-0.168 2.44-0.378v-4.23h-2.882v-1.472h4.67v6.816z"></path>
<path fill="#706f6f" d="M56.862 6.176c0.242-0.036 0.53-0.064 0.846-0.064 0.572 0 0.978 0.132 1.248 0.384 0.274 0.252 0.434 0.608 0.434 1.106 0 0.502-0.156 0.914-0.444 1.198-0.288 0.288-0.764 0.444-1.362 0.444-0.284 0-0.522-0.014-0.722-0.036v-3.032zM57.26 8.9c0.1 0.018 0.246 0.022 0.402 0.022 0.85 0 1.312-0.476 1.312-1.308 0.004-0.728-0.406-1.188-1.248-1.188-0.206 0-0.362 0.018-0.466 0.042v2.432z"></path>
<path fill="#706f6f" d="M59.892 7.692c0-0.26-0.004-0.484-0.018-0.69h0.352l0.014 0.434h0.018c0.1-0.298 0.344-0.484 0.614-0.484 0.046 0 0.078 0.004 0.114 0.014v0.38c-0.040-0.010-0.082-0.014-0.138-0.014-0.284 0-0.484 0.216-0.54 0.516-0.010 0.054-0.018 0.12-0.018 0.188v1.18h-0.398v-1.524z"></path>
<path fill="#706f6f" d="M64.966 7.862c-0.022-0.43-0.050-0.946-0.046-1.33h-0.014c-0.104 0.36-0.234 0.744-0.388 1.17l-0.544 1.496h-0.302l-0.498-1.468c-0.146-0.434-0.27-0.832-0.356-1.198h-0.010c-0.010 0.384-0.032 0.9-0.060 1.362l-0.082 1.322h-0.38l0.216-3.082h0.508l0.526 1.49c0.128 0.38 0.234 0.718 0.31 1.038h0.014c0.078-0.31 0.188-0.65 0.324-1.038l0.548-1.49h0.508l0.192 3.082h-0.388l-0.078-1.354z"></path>
<path fill="#706f6f" d="M67.284 9.216l-0.032-0.28h-0.014c-0.124 0.174-0.36 0.33-0.676 0.33-0.448 0-0.676-0.316-0.676-0.636 0-0.534 0.476-0.828 1.33-0.822v-0.046c0-0.182-0.050-0.512-0.502-0.512-0.206 0-0.42 0.064-0.576 0.164l-0.092-0.266c0.182-0.118 0.448-0.196 0.726-0.196 0.676 0 0.842 0.462 0.842 0.906v0.828c0 0.192 0.010 0.38 0.036 0.53h-0.366zM67.224 8.086c-0.438-0.008-0.938 0.068-0.938 0.498 0 0.26 0.174 0.384 0.38 0.384 0.288 0 0.47-0.182 0.534-0.37 0.014-0.042 0.022-0.086 0.022-0.128v-0.384z"></path>
<path fill="#706f6f" d="M68.262 7.692c0-0.26-0.004-0.484-0.018-0.69h0.352l0.014 0.434h0.018c0.1-0.298 0.344-0.484 0.612-0.484 0.046 0 0.078 0.004 0.114 0.014v0.38c-0.042-0.010-0.082-0.014-0.138-0.014-0.284 0-0.484 0.216-0.54 0.516-0.010 0.054-0.018 0.12-0.018 0.188v1.18h-0.398v-1.524z"></path>
<path fill="#706f6f" d="M70.222 6.38c0.004 0.138-0.096 0.246-0.256 0.246-0.142 0-0.242-0.11-0.242-0.246 0-0.142 0.106-0.252 0.252-0.252 0.15 0.002 0.246 0.11 0.246 0.252zM69.774 7.002h0.402v2.212h-0.402v-2.212z"></path>
<path fill="#706f6f" d="M70.844 7.602c0-0.228-0.004-0.416-0.018-0.598h0.356l0.022 0.366h0.010c0.11-0.21 0.366-0.416 0.732-0.416 0.306 0 0.782 0.182 0.782 0.942v1.322h-0.402v-1.278c0-0.356-0.132-0.654-0.512-0.654-0.266 0-0.472 0.188-0.54 0.412-0.018 0.050-0.028 0.118-0.028 0.188v1.33h-0.402v-1.614z"></path>
<path fill="#706f6f" d="M75.384 8.090c0 0.818-0.566 1.174-1.102 1.174-0.6 0-1.060-0.438-1.060-1.138 0-0.74 0.484-1.176 1.098-1.176 0.634 0.002 1.064 0.464 1.064 1.14zM73.628 8.114c0 0.484 0.278 0.85 0.672 0.85 0.384 0 0.672-0.36 0.672-0.86 0-0.376-0.188-0.85-0.664-0.85-0.474 0-0.68 0.438-0.68 0.86z"></path>
<path fill="#706f6f" d="M77.084 8.182c0.008 0.544 0.356 0.768 0.758 0.768 0.288 0 0.462-0.050 0.612-0.114l0.068 0.288c-0.142 0.064-0.384 0.136-0.736 0.136-0.68 0-1.088-0.448-1.088-1.116s0.392-1.192 1.038-1.192c0.722 0 0.914 0.636 0.914 1.042 0 0.082-0.010 0.146-0.014 0.188h-1.552zM78.264 7.894c0.004-0.256-0.106-0.654-0.558-0.654-0.408 0-0.586 0.376-0.618 0.654h1.176z"></path>
<path fill="#706f6f" d="M80.134 6.176c0.242-0.036 0.53-0.064 0.846-0.064 0.572 0 0.978 0.132 1.248 0.384 0.274 0.252 0.434 0.608 0.434 1.106 0 0.502-0.156 0.914-0.444 1.198-0.288 0.288-0.764 0.444-1.362 0.444-0.284 0-0.522-0.014-0.722-0.036v-3.032zM80.53 8.9c0.1 0.018 0.246 0.022 0.402 0.022 0.85 0 1.312-0.476 1.312-1.308 0.004-0.728-0.408-1.188-1.248-1.188-0.206 0-0.36 0.018-0.466 0.042v2.432z"></path>
<path fill="#706f6f" d="M83.164 7.692c0-0.26-0.004-0.484-0.018-0.69h0.352l0.014 0.434h0.018c0.1-0.298 0.344-0.484 0.612-0.484 0.046 0 0.078 0.004 0.114 0.014v0.38c-0.042-0.010-0.082-0.014-0.138-0.014-0.284 0-0.484 0.216-0.54 0.516-0.010 0.054-0.018 0.12-0.018 0.188v1.18h-0.398v-1.524z"></path>
<path fill="#706f6f" d="M85.586 8.73c0.178 0.11 0.438 0.202 0.712 0.202 0.408 0 0.644-0.214 0.644-0.526 0-0.288-0.164-0.452-0.58-0.612-0.502-0.178-0.814-0.438-0.814-0.874 0-0.48 0.398-0.836 0.996-0.836 0.316 0 0.544 0.074 0.682 0.152l-0.11 0.324c-0.1-0.054-0.306-0.146-0.586-0.146-0.42 0-0.58 0.252-0.58 0.462 0 0.288 0.188 0.43 0.612 0.594 0.52 0.202 0.786 0.452 0.786 0.906 0 0.476-0.352 0.886-1.078 0.886-0.296 0-0.622-0.086-0.786-0.196l0.102-0.336z"></path>
<path fill="#706f6f" d="M88.352 6.368v0.636h0.576v0.306h-0.576v1.194c0 0.274 0.078 0.43 0.302 0.43 0.104 0 0.182-0.014 0.234-0.028l0.018 0.302c-0.078 0.032-0.202 0.056-0.356 0.056-0.188 0-0.338-0.060-0.434-0.17-0.114-0.118-0.156-0.316-0.156-0.576v-1.208h-0.342v-0.306h0.342v-0.53l0.392-0.106z"></path>
<path fill="#706f6f" d="M89.578 8.182c0.008 0.544 0.356 0.768 0.758 0.768 0.288 0 0.462-0.050 0.612-0.114l0.068 0.288c-0.142 0.064-0.384 0.136-0.736 0.136-0.68 0-1.088-0.448-1.088-1.116s0.392-1.192 1.038-1.192c0.722 0 0.914 0.636 0.914 1.042 0 0.082-0.010 0.146-0.014 0.188h-1.552zM90.756 7.894c0.004-0.256-0.106-0.654-0.558-0.654-0.408 0-0.586 0.376-0.618 0.654h1.176z"></path>
<path fill="#706f6f" d="M91.684 9.216v-1.906h-0.31v-0.306h0.31v-0.106c0-0.31 0.068-0.594 0.256-0.772 0.15-0.146 0.352-0.206 0.54-0.206 0.142 0 0.266 0.032 0.342 0.064l-0.054 0.31c-0.060-0.028-0.142-0.050-0.256-0.050-0.342 0-0.43 0.302-0.43 0.64v0.118h0.534v0.306h-0.534v1.906h-0.398z"></path>
<path fill="#706f6f" d="M94.204 9.216l-0.032-0.28h-0.014c-0.124 0.174-0.36 0.33-0.676 0.33-0.448 0-0.676-0.316-0.676-0.636 0-0.534 0.476-0.828 1.33-0.822v-0.046c0-0.182-0.050-0.512-0.502-0.512-0.206 0-0.42 0.064-0.576 0.164l-0.092-0.266c0.182-0.118 0.448-0.196 0.726-0.196 0.676 0 0.842 0.462 0.842 0.906v0.828c0 0.192 0.010 0.38 0.036 0.53h-0.366zM94.144 8.086c-0.438-0.008-0.938 0.068-0.938 0.498 0 0.26 0.174 0.384 0.38 0.384 0.288 0 0.47-0.182 0.534-0.37 0.014-0.042 0.022-0.086 0.022-0.128v-0.384z"></path>
<path fill="#706f6f" d="M95.182 7.602c0-0.228-0.004-0.416-0.018-0.598h0.356l0.022 0.366h0.010c0.11-0.21 0.366-0.416 0.732-0.416 0.306 0 0.782 0.182 0.782 0.942v1.322h-0.402v-1.278c0-0.356-0.132-0.654-0.512-0.654-0.266 0-0.472 0.188-0.54 0.412-0.018 0.050-0.028 0.118-0.028 0.188v1.33h-0.402v-1.614z"></path>
<path fill="#706f6f" d="M99.72 8.090c0 0.818-0.566 1.174-1.102 1.174-0.6 0-1.060-0.438-1.060-1.138 0-0.74 0.484-1.176 1.098-1.176 0.634 0.002 1.064 0.464 1.064 1.14zM97.964 8.114c0 0.484 0.278 0.85 0.672 0.85 0.384 0 0.672-0.36 0.672-0.86 0-0.376-0.188-0.85-0.664-0.85-0.474 0-0.68 0.438-0.68 0.86z"></path>
<path fill="#0080c9" d="M43.454 26.764c0.176 0.108 0.434 0.2 0.706 0.2 0.402 0 0.638-0.212 0.638-0.52 0-0.286-0.164-0.448-0.574-0.606-0.498-0.176-0.806-0.434-0.806-0.864 0-0.476 0.394-0.828 0.986-0.828 0.312 0 0.538 0.072 0.674 0.15l-0.108 0.322c-0.1-0.054-0.304-0.144-0.58-0.144-0.416 0-0.574 0.248-0.574 0.458 0 0.286 0.186 0.426 0.606 0.588 0.516 0.2 0.778 0.448 0.778 0.896 0 0.47-0.348 0.878-1.068 0.878-0.294 0-0.616-0.086-0.778-0.194l0.1-0.336z"></path>
<path fill="#0080c9" d="M47.472 24.528h-0.928v-0.336h2.26v0.336h-0.934v2.716h-0.398z"></path>
<path fill="#0080c9" d="M50.69 24.192v1.806c0 0.684 0.304 0.974 0.71 0.974 0.452 0 0.742-0.298 0.742-0.974v-1.806h0.398v1.778c0 0.936-0.494 1.322-1.154 1.322-0.624 0-1.096-0.358-1.096-1.304v-1.796h0.4z"></path>
<path fill="#0080c9" d="M54.376 24.234c0.24-0.036 0.524-0.064 0.838-0.064 0.566 0 0.968 0.132 1.236 0.38 0.272 0.248 0.43 0.602 0.43 1.096 0 0.498-0.154 0.906-0.44 1.186-0.286 0.286-0.756 0.438-1.348 0.438-0.28 0-0.516-0.014-0.716-0.036v-3zM54.77 26.93c0.1 0.018 0.244 0.022 0.398 0.022 0.842 0 1.298-0.47 1.298-1.294 0.004-0.72-0.402-1.176-1.236-1.176-0.204 0-0.358 0.018-0.462 0.040v2.408z"></path>
<path fill="#0080c9" d="M58.544 24.192h0.394v3.050h-0.394v-3.050z"></path>
<path fill="#0080c9" d="M63.386 25.686c0 1.050-0.638 1.606-1.416 1.606-0.806 0-1.372-0.624-1.372-1.548 0-0.968 0.602-1.602 1.416-1.602 0.834 0 1.372 0.64 1.372 1.544zM61.020 25.736c0 0.652 0.354 1.236 0.972 1.236 0.624 0 0.978-0.574 0.978-1.268 0-0.606-0.316-1.24-0.974-1.24-0.65 0-0.976 0.602-0.976 1.272z"></path>
<path fill="#0080c9" d="M67.164 24.234c0.24-0.036 0.524-0.064 0.838-0.064 0.566 0 0.968 0.132 1.236 0.38 0.272 0.248 0.43 0.602 0.43 1.096 0 0.498-0.154 0.906-0.44 1.186-0.284 0.286-0.756 0.438-1.348 0.438-0.28 0-0.516-0.014-0.716-0.036v-3zM67.558 26.93c0.1 0.018 0.244 0.022 0.398 0.022 0.842 0 1.298-0.47 1.298-1.294 0.004-0.72-0.402-1.176-1.236-1.176-0.204 0-0.358 0.018-0.462 0.040v2.408z"></path>
<path fill="#0080c9" d="M72.91 25.814h-1.186v1.098h1.322v0.332h-1.716v-3.052h1.648v0.332h-1.254v0.964h1.186z"></path>
<path fill="#0080c9" d="M74.71 27.244v-3.050h0.43l0.978 1.544c0.226 0.358 0.402 0.678 0.548 0.992l0.010-0.004c-0.036-0.408-0.046-0.778-0.046-1.254v-1.276h0.37v3.050h-0.398l-0.968-1.548c-0.212-0.34-0.416-0.688-0.57-1.018l-0.014 0.004c0.022 0.384 0.032 0.752 0.032 1.258v1.304h-0.372z"></path>
<path fill="#0080c9" d="M79.42 24.528h-0.928v-0.336h2.26v0.336h-0.934v2.716h-0.398z"></path>
<path fill="#0080c9" d="M82.244 24.192h0.394v3.050h-0.394v-3.050z"></path>
<path fill="#0080c9" d="M84.424 26.764c0.176 0.108 0.434 0.2 0.706 0.2 0.402 0 0.638-0.212 0.638-0.52 0-0.286-0.164-0.448-0.574-0.606-0.498-0.176-0.806-0.434-0.806-0.864 0-0.476 0.394-0.828 0.986-0.828 0.312 0 0.538 0.072 0.674 0.15l-0.108 0.322c-0.1-0.054-0.304-0.144-0.58-0.144-0.416 0-0.574 0.248-0.574 0.458 0 0.286 0.186 0.426 0.606 0.588 0.516 0.2 0.778 0.448 0.778 0.896 0 0.47-0.348 0.878-1.068 0.878-0.294 0-0.616-0.086-0.778-0.194l0.1-0.336z"></path>
<path fill="#0080c9" d="M88.442 24.528h-0.928v-0.336h2.26v0.336h-0.934v2.716h-0.398z"></path>
<path fill="#0080c9" d="M91.266 24.192h0.394v3.050h-0.394v-3.050z"></path>
<path fill="#0080c9" d="M95.632 27.144c-0.144 0.072-0.434 0.146-0.806 0.146-0.86 0-1.508-0.544-1.508-1.544 0-0.956 0.648-1.602 1.592-1.602 0.38 0 0.62 0.082 0.724 0.136l-0.094 0.322c-0.15-0.072-0.362-0.126-0.616-0.126-0.714 0-1.19 0.458-1.19 1.258 0 0.746 0.43 1.226 1.172 1.226 0.24 0 0.484-0.050 0.642-0.126l0.084 0.31z"></path>
<path fill="#0080c9" d="M99.79 25.686c0 1.050-0.638 1.606-1.416 1.606-0.806 0-1.372-0.624-1.372-1.548 0-0.968 0.602-1.602 1.416-1.602 0.834 0 1.372 0.64 1.372 1.544zM97.424 25.736c0 0.652 0.354 1.236 0.972 1.236 0.624 0 0.978-0.574 0.978-1.268 0-0.606-0.316-1.24-0.974-1.24-0.65 0-0.976 0.602-0.976 1.272z"></path>
</svg>
