<!-- Generated by IcoMoon.io -->
<svg version="1.1" xmlns="http://www.w3.org/2000/svg" width="32" height="32" viewBox="0 0 32 32">
<title>messaggio-ok</title>
<path fill="#0080c9" d="M24.267 16.917c-0.004 0-0.009 0-0.011 0v-9.995l-0.002-0.267h-20.734v14.81h16.55c0.171 2.167 1.986 3.881 4.196 3.881 2.323 0 4.213-1.89 4.213-4.213s-1.89-4.215-4.213-4.215zM21.376 18.076l-4.222-4.224 6.569-6.306v9.412c-0.905 0.117-1.717 0.521-2.347 1.118zM13.954 16.183l-9.367-8.994h18.737l-9.37 8.994zM10.756 13.852l-6.703 6.703v-13.139l6.703 6.436zM11.142 14.221l2.814 2.701 2.812-2.701 4.241 4.243c-0.557 0.678-0.9 1.534-0.945 2.468h-15.633l6.711-6.711zM24.267 24.811c-2.029 0-3.68-1.651-3.68-3.68s1.651-3.68 3.68-3.68 3.68 1.651 3.68 3.68-1.651 3.68-3.68 3.68z"></path>
<path fill="#0080c9" d="M23.631 22.125l-1.28-1.282-0.378 0.378 1.658 1.66 2.931-2.931-0.378-0.378z"></path>
</svg>
