<!-- Generated by IcoMoon.io -->
<svg version="1.1" xmlns="http://www.w3.org/2000/svg" width="32" height="32" viewBox="0 0 32 32">
<title>orario</title>
<path fill="#0080c9" d="M16 4.459c-6.357 0-11.541 5.184-11.541 11.541s5.184 11.541 11.541 11.541c6.357 0 11.541-5.184 11.541-11.541s-5.184-11.541-11.541-11.541zM16.235 27.051v-1.877h-0.469v1.877c-5.909-0.128-10.688-4.907-10.816-10.816h1.856v-0.469h-1.856c0.128-5.909 4.907-10.688 10.816-10.816v1.877h0.469v-1.899c5.909 0.128 10.688 4.907 10.816 10.816h-1.856v0.469h1.856c-0.128 5.931-4.907 10.709-10.816 10.837z"></path>
<path fill="#0080c9" d="M16.235 7.851h-0.469v8.256l4.117 4.117 0.341-0.341-3.989-3.989z"></path>
</svg>
