<!-- Generated by IcoMoon.io -->
<svg version="1.1" xmlns="http://www.w3.org/2000/svg" width="32" height="32" viewBox="0 0 32 32">
<title>ortodonzia-invisibile</title>
<path fill="#0080c9" d="M16.021 14.443l0.192-0.277c0.917-1.301 1.408-2.816 1.408-4.416s-0.491-3.136-1.408-4.416l-0.192-0.277-0.192 0.277c-0.917 1.301-1.408 2.816-1.408 4.416s0.491 3.136 1.408 4.416l0.192 0.277zM14.891 9.749c0-1.387 0.384-2.709 1.131-3.861 0.747 1.152 1.131 2.496 1.131 3.861 0 1.387-0.384 2.709-1.131 3.861-0.747-1.152-1.131-2.475-1.131-3.861z"></path>
<path fill="#0080c9" d="M17.131 14.912l0.32-0.064c1.579-0.256 3.008-1.003 4.139-2.133s1.856-2.56 2.133-4.139l0.064-0.32-0.32 0.064c-1.579 0.256-3.008 1.003-4.139 2.133s-1.856 2.56-2.133 4.139l-0.064 0.32zM23.168 8.853c-0.299 1.344-0.96 2.56-1.92 3.541-0.981 0.981-2.197 1.643-3.541 1.92 0.299-1.344 0.96-2.56 1.92-3.541 0.981-0.96 2.197-1.621 3.541-1.92z"></path>
<path fill="#0080c9" d="M26.667 15.829c-1.301-0.917-2.816-1.408-4.416-1.408s-3.136 0.491-4.416 1.408l-0.277 0.192 0.277 0.192c1.301 0.917 2.816 1.408 4.416 1.408s3.136-0.491 4.416-1.408l0.277-0.192-0.277-0.192zM22.251 14.891c1.387 0 2.709 0.384 3.861 1.131-1.152 0.747-2.475 1.131-3.861 1.131s-2.709-0.384-3.861-1.131c1.152-0.747 2.475-1.131 3.861-1.131z"></path>
<path fill="#0080c9" d="M21.547 19.307c-1.131-1.131-2.56-1.856-4.139-2.133l-0.32-0.064 0.064 0.32c0.256 1.579 1.003 3.008 2.133 4.139s2.56 1.856 4.139 2.133l0.32 0.064-0.064-0.32c-0.277-1.579-1.003-3.008-2.133-4.139zM19.605 21.248c-0.981-0.981-1.643-2.197-1.92-3.541 1.344 0.299 2.56 0.96 3.541 1.92 0.981 0.981 1.643 2.197 1.92 3.541-1.344-0.277-2.56-0.939-3.541-1.92z"></path>
<path fill="#0080c9" d="M15.979 17.557l-0.192 0.277c-0.917 1.301-1.408 2.816-1.408 4.416s0.491 3.115 1.408 4.416l0.192 0.277 0.192-0.277c0.917-1.301 1.408-2.816 1.408-4.416s-0.491-3.136-1.408-4.416l-0.192-0.277zM17.109 22.251c0 1.387-0.384 2.709-1.131 3.861-0.747-1.152-1.131-2.496-1.131-3.861 0-1.387 0.384-2.709 1.131-3.861 0.747 1.152 1.131 2.475 1.131 3.861z"></path>
<path fill="#0080c9" d="M14.869 17.088l-0.32 0.064c-1.579 0.256-3.008 1.003-4.139 2.133s-1.856 2.56-2.133 4.139l-0.064 0.32 0.32-0.064c1.579-0.256 3.008-1.003 4.139-2.133s1.856-2.56 2.133-4.139l0.064-0.32zM8.832 23.147c0.299-1.344 0.96-2.56 1.92-3.541 0.981-0.981 2.197-1.643 3.541-1.92-0.299 1.344-0.96 2.56-1.92 3.541-0.981 0.96-2.197 1.621-3.541 1.92z"></path>
<path fill="#0080c9" d="M14.165 16.171l0.277-0.192-0.277-0.192c-1.301-0.917-2.816-1.408-4.416-1.408s-3.136 0.491-4.416 1.408l-0.277 0.192 0.277 0.192c1.301 0.917 2.816 1.408 4.416 1.408s3.115-0.491 4.416-1.408zM9.749 14.848c1.387 0 2.709 0.384 3.861 1.131-1.152 0.747-2.496 1.131-3.861 1.131-1.387 0-2.709-0.384-3.861-1.131 1.152-0.747 2.475-1.131 3.861-1.131z"></path>
<path fill="#0080c9" d="M10.453 12.693c1.131 1.131 2.56 1.856 4.139 2.133l0.32 0.064-0.064-0.32c-0.256-1.579-1.003-3.008-2.133-4.139s-2.56-1.856-4.139-2.133l-0.32-0.064 0.064 0.32c0.277 1.579 1.003 3.008 2.133 4.139zM12.395 10.752c0.981 0.981 1.643 2.197 1.92 3.541-1.344-0.299-2.56-0.96-3.541-1.92-0.981-0.981-1.643-2.197-1.92-3.541 1.344 0.277 2.56 0.939 3.541 1.92z"></path>
</svg>
