<!-- Generated by IcoMoon.io -->
<svg version="1.1" xmlns="http://www.w3.org/2000/svg" width="32" height="32" viewBox="0 0 32 32">
<title>paradontologia</title>
<path fill="#0080c9" d="M24.171 14.805h-3.349c0.043-0.043 0.085-0.107 0.149-0.149l0.085-0.107c0.491-0.533 0.939-1.088 1.259-1.707 0.363-0.725 0.555-1.536 0.555-2.325 0-2.944-2.389-5.333-5.333-5.333-0.533 0-1.045 0.085-1.557 0.235-0.512-0.149-1.024-0.235-1.557-0.235-2.944 0-5.333 2.389-5.333 5.333 0 0.192 0.021 0.405 0.043 0.619s0.064 0.427 0.107 0.619c0.043 0.213 0.107 0.405 0.192 0.597 0.064 0.192 0.149 0.384 0.256 0.576 0.085 0.192 0.213 0.363 0.32 0.555 0.235 0.363 0.533 0.683 0.811 0.96l0.043 0.043c0.107 0.107 0.213 0.213 0.32 0.341h-3.349v7.061c0 2.731 2.219 4.971 4.971 4.971h6.4c2.731 0 4.971-2.219 4.971-4.971v-5.333h0.021l-0.021-1.749zM19.2 26.347h-6.4c-2.475 0-4.501-2.027-4.501-4.501v-0.192h4.267c0.32 0.661 0.683 1.216 1.131 1.621l0.427 0.384-0.043-0.576c0-0.171-0.043-0.725 0-1.408h3.797c0.021 0.725 0 1.301 0 1.408l-0.043 0.597 0.427-0.384c0.448-0.405 0.811-0.939 1.131-1.621h4.267v0.32c-0.043 2.411-2.027 4.352-4.459 4.352zM18.261 7.488l0.107 0.128 0.363-0.299-0.107-0.128c-0.299-0.384-0.661-0.725-1.067-1.024-0.256-0.192-0.512-0.341-0.811-0.469 0.256-0.043 0.512-0.064 0.789-0.064 2.688 0 4.864 2.176 4.864 4.864 0 0.725-0.171 1.451-0.512 2.112-0.299 0.576-0.725 1.088-1.195 1.6l-0.107 0.107c-0.107 0.128-0.213 0.235-0.32 0.384-0.043 0.064-0.085 0.107-0.128 0.192-0.171 0.256-0.256 0.491-0.299 0.747-0.021 0.107 0 0.213 0 0.32 0.021 0.107 0.021 0.213 0.021 0.363s0 0.341 0 0.555c0 0.235-0.021 0.469-0.021 0.683 0 0.149-0.021 0.384-0.043 0.64-0.021 0.213-0.043 0.427-0.085 0.619-0.043 0.213-0.064 0.405-0.107 0.619-0.043 0.235-0.085 0.448-0.149 0.619-0.064 0.213-0.107 0.427-0.192 0.619-0.235 0.704-0.555 1.301-0.896 1.771 0-0.448 0-1.067-0.085-1.707-0.021-0.235-0.043-0.448-0.085-0.64-0.043-0.213-0.085-0.448-0.128-0.661-0.064-0.235-0.128-0.448-0.192-0.661-0.085-0.256-0.192-0.469-0.32-0.683-0.107-0.171-0.192-0.299-0.32-0.427h0.043l-0.064-0.021c-0.085-0.107-0.192-0.192-0.299-0.256-0.277-0.192-0.597-0.299-0.96-0.299s-0.683 0.107-0.96 0.299c-0.107 0.064-0.192 0.149-0.299 0.256l-0.043 0.021h0.064c-0.107 0.128-0.213 0.277-0.32 0.427-0.107 0.192-0.213 0.427-0.299 0.683-0.064 0.213-0.128 0.427-0.192 0.661-0.043 0.213-0.107 0.427-0.128 0.661-0.043 0.256-0.064 0.469-0.085 0.661-0.064 0.661-0.085 1.259-0.085 1.728-0.363-0.469-0.661-1.067-0.896-1.771-0.064-0.192-0.128-0.405-0.192-0.619s-0.107-0.427-0.149-0.619c-0.064-0.277-0.085-0.448-0.107-0.619-0.021-0.192-0.064-0.384-0.085-0.619s-0.043-0.469-0.043-0.619c-0.021-0.277-0.021-0.491-0.021-0.683 0-0.235 0-0.427 0-0.555 0-0.171 0.021-0.299 0.021-0.363 0.021-0.107 0.021-0.213 0.021-0.299 0-0.107-0.021-0.213-0.064-0.32-0.043-0.149-0.128-0.299-0.235-0.448l-0.021-0.021c-0.021-0.043-0.064-0.085-0.107-0.149-0.171-0.213-0.341-0.405-0.512-0.576l-0.043-0.043c-0.256-0.277-0.533-0.576-0.747-0.896-0.107-0.171-0.213-0.341-0.299-0.491-0.085-0.171-0.171-0.363-0.235-0.533s-0.128-0.363-0.171-0.555c-0.043-0.192-0.085-0.384-0.107-0.576s-0.043-0.384-0.043-0.555c0-2.688 2.176-4.864 4.864-4.864 0.512 0 1.003 0.085 1.472 0.235 0.491 0.149 0.96 0.384 1.365 0.704 0.363 0.192 0.704 0.491 0.981 0.853zM20.331 15.701c0.021-0.128 0.064-0.277 0.149-0.427h3.221v0.811h-3.349c0-0.064-0.021-0.128-0.021-0.171-0.021-0.085-0.021-0.149 0-0.213zM12.373 21.205h-4.075v-0.811h3.819c0.043 0.171 0.085 0.32 0.149 0.469 0.021 0.107 0.064 0.213 0.107 0.341zM8.299 18.645v-0.811h3.371c0 0.128 0.021 0.277 0.043 0.427 0.021 0.128 0.021 0.256 0.043 0.384h-3.456zM11.627 16.896c0 0.149 0 0.299 0.021 0.469h-3.349v-0.811h3.328c0 0.107 0 0.213 0 0.341zM11.669 15.701c0 0.064 0 0.149 0 0.213 0 0.043-0.021 0.107-0.021 0.171h-3.349v-0.811h3.243c0.043 0.064 0.064 0.149 0.107 0.213 0 0.064 0.021 0.128 0.021 0.213zM8.299 19.925v-0.811h3.52c0.021 0.149 0.043 0.299 0.085 0.448 0.021 0.128 0.043 0.235 0.085 0.363h-3.691zM14.656 18.645c0.043-0.107 0.085-0.192 0.149-0.277 0.128-0.213 0.277-0.405 0.448-0.533h1.493c0.149 0.128 0.299 0.299 0.427 0.512 0.043 0.085 0.107 0.192 0.149 0.277h-2.667zM14.293 19.925c0.021-0.128 0.043-0.235 0.064-0.341 0.043-0.149 0.085-0.299 0.128-0.469h3.008c0.043 0.149 0.085 0.299 0.128 0.469 0.021 0.107 0.043 0.235 0.064 0.341h-3.392zM17.877 21.205h-3.755c0-0.128 0.021-0.256 0.043-0.384s0.021-0.277 0.064-0.427h3.584c0.021 0.149 0.043 0.299 0.043 0.427s0 0.256 0.021 0.384zM23.68 21.205h-4.075c0.043-0.107 0.085-0.213 0.128-0.32 0.043-0.149 0.085-0.299 0.149-0.491h3.797v0.811zM23.701 19.115v0.811h-3.712c0.021-0.107 0.064-0.235 0.085-0.363 0.043-0.171 0.064-0.32 0.085-0.448h3.541zM23.68 18.645h-3.456c0.021-0.128 0.021-0.256 0.043-0.384 0.021-0.149 0.021-0.299 0.043-0.427h3.371v0.811zM23.68 17.365h-3.328c0-0.171 0.021-0.32 0.021-0.469 0-0.107 0-0.235 0-0.341h3.307v0.811z"></path>
</svg>
