<!-- Generated by IcoMoon.io -->
<svg version="1.1" xmlns="http://www.w3.org/2000/svg" width="32" height="32" viewBox="0 0 32 32">
<title>peluche</title>
<path d="M18.038 17.528c-0.784 0-1.499 0.305-2.038 0.804-0.538-0.499-1.254-0.804-2.038-0.804-1.67 0-3.029 1.384-3.029 3.084 0 2.507 3.775 5.057 4.531 5.542 0.163 0.105 0.349 0.157 0.535 0.157s0.372-0.052 0.535-0.157c0.757-0.486 4.531-3.035 4.531-5.542-0-1.701-1.359-3.084-3.029-3.084zM15.999 24.121c-1.399-1.001-3.084-2.575-3.084-3.509 0-0.607 0.469-1.102 1.046-1.102s1.046 0.494 1.046 1.102c0 0.547 0.444 0.991 0.991 0.991s0.991-0.444 0.991-0.991c0-0.607 0.469-1.102 1.046-1.102s1.046 0.494 1.046 1.102c0 0.931-1.685 2.507-3.085 3.509z"></path>
<path d="M31.641 16.243c0-2.307-1.73-4.183-3.855-4.183h-3.165c0.431-0.87 0.66-1.809 0.66-2.78 0-0.509-0.064-1.014-0.191-1.511 0.705-0.846 1.099-1.917 1.099-3.033 0-2.612-2.125-4.736-4.736-4.736-1.512 0-2.933 0.738-3.817 1.934-1.080-0.155-2.19-0.155-3.271 0-0.884-1.196-2.305-1.934-3.817-1.934-2.612 0-4.736 2.125-4.736 4.736 0 1.115 0.394 2.187 1.099 3.033-0.127 0.496-0.191 1.002-0.191 1.511 0 0.971 0.228 1.91 0.659 2.78h-3.165c-2.126 0-3.855 1.877-3.855 4.183s1.73 4.183 3.855 4.183h3.317c-0.014 0.1-0.030 0.201-0.045 0.304-0.103 0.69-0.216 1.441-0.114 2.203l-1.452 0.474c-0.044 0.014-0.087 0.032-0.129 0.051-0.91 0.431-1.596 1.203-1.931 2.176-0.357 1.037-0.271 2.211 0.236 3.223l0.417 0.83c0.506 1.008 1.395 1.781 2.439 2.12 0.397 0.129 0.802 0.193 1.203 0.193 0.593 0 1.176-0.14 1.711-0.416l4.079-2.109c1.353 0.283 2.759 0.283 4.113 0l4.079 2.109c0.896 0.464 1.931 0.543 2.914 0.223 1.044-0.339 1.933-1.112 2.439-2.12l0.417-0.831c0.507-1.012 0.593-2.186 0.236-3.223-0.335-0.973-1.021-1.745-1.931-2.176-0.042-0.020-0.085-0.037-0.129-0.051l-1.452-0.474c0.102-0.762-0.011-1.512-0.114-2.203-0.015-0.102-0.030-0.204-0.045-0.304h3.317c2.126 0 3.855-1.876 3.855-4.183zM10.548 2.203c0.978 0 1.852 0.547 2.28 1.428 0.222 0.456 0.726 0.702 1.222 0.595 1.274-0.273 2.627-0.273 3.9 0 0.496 0.106 1-0.139 1.222-0.595 0.428-0.881 1.302-1.428 2.28-1.428 1.397 0 2.534 1.136 2.534 2.534 0 0.731-0.317 1.426-0.868 1.908-0.347 0.303-0.469 0.79-0.305 1.221 0.176 0.462 0.265 0.938 0.265 1.415 0 2.72-2.794 4.965-6.361 5.233v-1.324c0.589-0.24 1-0.764 1-1.372 0-0.598-0.429-0.911-0.852-0.911-0.189 0-0.352 0.055-0.51 0.109-0.125 0.043-0.254 0.087-0.354 0.087s-0.229-0.044-0.354-0.087c-0.157-0.054-0.32-0.109-0.509-0.109-0.424 0-0.852 0.313-0.852 0.911 0 0.608 0.411 1.133 1 1.372v1.324c-3.567-0.268-6.361-2.512-6.361-5.233 0-0.477 0.089-0.953 0.265-1.415 0.164-0.431 0.042-0.918-0.305-1.221-0.552-0.482-0.868-1.178-0.868-1.908 0-1.397 1.137-2.534 2.534-2.534zM22.335 21.057c0.144 0.962 0.219 1.578-0.043 2.084-0.149 0.287-0.164 0.625-0.042 0.924s0.37 0.53 0.678 0.63l2.394 0.781c0.343 0.18 0.603 0.488 0.737 0.876 0.165 0.479 0.121 1.032-0.122 1.517l-0.417 0.831c-0.243 0.485-0.663 0.854-1.151 1.013-0.419 0.136-0.852 0.106-1.221-0.085l-4.438-2.295c-0.239-0.124-0.516-0.155-0.777-0.089-1.265 0.321-2.6 0.321-3.864 0-0.261-0.066-0.538-0.034-0.777 0.089l-4.439 2.295c-0.368 0.191-0.802 0.221-1.221 0.085-0.488-0.159-0.908-0.528-1.151-1.013l-0.417-0.83c-0.243-0.485-0.288-1.038-0.122-1.517 0.134-0.387 0.394-0.696 0.737-0.876l2.394-0.781c0.307-0.1 0.555-0.331 0.678-0.63s0.107-0.637-0.042-0.924c-0.263-0.506-0.187-1.122-0.043-2.084 0.079-0.523 0.167-1.115 0.167-1.732 0-0.292-0.116-0.572-0.323-0.779s-0.487-0.323-0.779-0.323h-4.516c-0.896 0-1.652-0.907-1.652-1.98s0.757-1.98 1.652-1.98h4.87c0.147 0.131 0.297 0.26 0.457 0.384 1.737 1.351 4.031 2.095 6.459 2.095s4.722-0.744 6.459-2.095c0.159-0.124 0.31-0.253 0.457-0.384h4.87c0.896 0 1.652 0.907 1.652 1.98s-0.757 1.98-1.652 1.98h-4.516c-0.292 0-0.572 0.116-0.779 0.323s-0.323 0.487-0.323 0.779c0 0.617 0.089 1.209 0.167 1.732z"></path>
<path d="M12.365 11.18c0.261 0 0.517-0.106 0.702-0.291 0.184-0.184 0.29-0.44 0.29-0.701s-0.106-0.517-0.29-0.701c-0.185-0.185-0.441-0.291-0.702-0.291s-0.517 0.106-0.701 0.291c-0.185 0.184-0.291 0.44-0.291 0.701s0.106 0.517 0.291 0.701c0.184 0.185 0.44 0.291 0.701 0.291z"></path>
<path d="M19.635 11.18c0.261 0 0.517-0.106 0.702-0.291 0.184-0.184 0.29-0.44 0.29-0.701s-0.106-0.517-0.29-0.701c-0.185-0.185-0.44-0.291-0.702-0.291-0.261 0-0.517 0.106-0.701 0.291-0.185 0.184-0.291 0.44-0.291 0.701s0.106 0.517 0.291 0.701c0.184 0.185 0.439 0.291 0.701 0.291z"></path>
</svg>
