<!-- Generated by IcoMoon.io -->
<svg version="1.1" xmlns="http://www.w3.org/2000/svg" width="32" height="32" viewBox="0 0 32 32">
<title>pododanzia</title>
<path fill="#0080c9" d="M17.856 5.163c-0.64 0-1.259 0.085-1.856 0.277-0.597-0.192-1.216-0.277-1.856-0.277-3.477 0-6.315 2.837-6.315 6.315 0 0.235 0.021 0.491 0.043 0.725s0.064 0.491 0.128 0.747c0.064 0.235 0.128 0.491 0.213 0.704 0.085 0.235 0.192 0.448 0.299 0.683 0.107 0.213 0.235 0.427 0.384 0.64 0.277 0.427 0.619 0.789 0.96 1.152 0.256 0.277 0.533 0.555 0.747 0.853 0.107 0.149 0.171 0.277 0.213 0.405 0.043 0.149 0.064 0.341 0.043 0.512-0.064 0.469-0.107 2.069 0.213 3.861 0.256 1.536 0.853 3.648 2.219 4.864l0.427 0.384-0.043-0.576c0-0.192-0.235-4.608 1.195-6.123 0.341-0.299 0.704-0.469 1.131-0.469s0.789 0.171 1.109 0.491c1.451 1.536 1.195 6.080 1.195 6.123l-0.043 0.576 0.427-0.384c1.344-1.237 1.941-3.328 2.219-4.864 0.299-1.792 0.277-3.413 0.213-3.861-0.085-0.597 0.384-1.088 0.789-1.536l0.107-0.107c0.576-0.64 1.109-1.28 1.493-2.027 0.427-0.853 0.661-1.813 0.661-2.752-0.021-3.499-2.837-6.336-6.315-6.336zM21.653 15.957l-0.107 0.107c-0.448 0.491-1.003 1.109-0.896 1.92 0.149 1.088 0.021 5.611-1.856 7.893 0-0.469 0-1.173-0.064-1.941-0.171-1.877-0.597-3.179-1.28-3.904-0.405-0.427-0.896-0.64-1.451-0.64s-1.045 0.213-1.451 0.64c-0.683 0.725-1.109 2.027-1.28 3.904-0.064 0.768-0.085 1.472-0.064 1.941-1.877-2.283-2.005-6.827-1.856-7.893 0.043-0.256 0.021-0.491-0.043-0.725-0.064-0.192-0.149-0.384-0.299-0.555-0.235-0.32-0.491-0.597-0.747-0.875l-0.043-0.043c-0.32-0.341-0.64-0.683-0.896-1.067-0.128-0.192-0.256-0.405-0.341-0.597-0.107-0.213-0.213-0.427-0.277-0.64-0.085-0.213-0.149-0.448-0.213-0.661s-0.107-0.448-0.128-0.683c-0.043-0.213-0.043-0.448-0.043-0.661 0-3.221 2.624-5.845 5.845-5.845 0.597 0 1.195 0.085 1.771 0.277 0.597 0.192 1.152 0.469 1.643 0.832 0.448 0.32 0.832 0.704 1.173 1.109l0.107 0.128 0.363-0.299-0.107-0.128c-0.363-0.448-0.789-0.853-1.259-1.216-0.341-0.256-0.704-0.448-1.088-0.619 0.341-0.064 0.704-0.107 1.067-0.107 3.221 0 5.845 2.624 5.845 5.845 0 0.875-0.213 1.749-0.597 2.539-0.363 0.725-0.875 1.344-1.429 1.963z"></path>
<path fill="#0080c9" d="M14.635 12.608c0-0.555-0.448-0.981-0.981-0.981s-0.981 0.448-0.981 0.981 0.448 0.981 0.981 0.981 0.981-0.448 0.981-0.981zM13.653 12.075c0.277 0 0.512 0.235 0.512 0.512s-0.235 0.512-0.512 0.512-0.512-0.235-0.512-0.512 0.235-0.512 0.512-0.512z"></path>
<path fill="#0080c9" d="M18.347 11.627c-0.555 0-0.981 0.448-0.981 0.981s0.448 0.981 0.981 0.981 0.981-0.448 0.981-0.981-0.427-0.981-0.981-0.981zM18.347 13.12c-0.277 0-0.512-0.235-0.512-0.512s0.235-0.512 0.512-0.512 0.512 0.235 0.512 0.512-0.235 0.512-0.512 0.512z"></path>
<path fill="#0080c9" d="M13.099 14.912c0 1.6 1.301 2.901 2.901 2.901s2.901-1.301 2.901-2.901v-0.235h-5.803v0.235zM18.432 15.147c-0.128 1.237-1.173 2.219-2.432 2.219s-2.304-0.981-2.432-2.219h4.864z"></path>
</svg>
