<!-- Generated by IcoMoon.io -->
<svg version="1.1" xmlns="http://www.w3.org/2000/svg" width="32" height="32" viewBox="0 0 32 32">
<title>scarpina</title>
<path d="M31.123 22.134v-1.194c0-0.957-0.345-1.883-0.973-2.607s-1.495-1.197-2.442-1.332l-3.088-0.442c-0.001-0-0.003-0-0.004-0.001l-1.95-0.279c0.1-0.112 0.155-0.256 0.155-0.407 0-0.162-0.064-0.317-0.179-0.432l-1.815-1.815c-0.239-0.239-0.625-0.239-0.864 0l-1.405 1.405c-0.197-0.144-0.385-0.3-0.561-0.468l1.827-1.769c0.118-0.114 0.185-0.27 0.186-0.434s-0.063-0.321-0.179-0.437l-1.815-1.815c-0.236-0.236-0.617-0.239-0.857-0.007l-1.372 1.329-0.491-0.731 1.69-1.723c0.235-0.239 0.233-0.623-0.004-0.86l-1.815-1.815c-0.115-0.115-0.27-0.179-0.432-0.179h-0.003c-0.163 0.001-0.319 0.067-0.433 0.183l-1.161 1.183-1.439-2.141c-0.109-0.163-0.29-0.263-0.486-0.27-0.195-0.006-0.383 0.081-0.503 0.236l-2.308 2.967h-5.842c-0.335 0-0.608 0.27-0.611 0.605-0.022 2.192-0.060 5.384-0.085 6.415-0.813 0.942-1.261 2.146-1.261 3.391v3.56c-0.148 0.111-0.244 0.289-0.244 0.489v1.644c0 1.401 1.14 2.542 2.542 2.542h10.338c0.337 0 0.611-0.274 0.611-0.611s-0.274-0.611-0.611-0.611h-10.338c-0.728 0-1.32-0.592-1.32-1.32v-1.033h28.84v1.033c0 0.728-0.592 1.32-1.32 1.32h-10.338c-0.337 0-0.611 0.274-0.611 0.611s0.274 0.611 0.611 0.611h10.338c1.401 0 2.542-1.14 2.542-2.542v-1.644c0-0.306-0.225-0.56-0.519-0.604zM20.395 14.921l0.951 0.951-2.591 2.591-0.951-0.951zM17.577 11.396l0.951 0.951-2.992 2.898-0.951-0.951zM14.739 7.6l0.951 0.951-3.391 3.456-0.951-0.951zM3.132 12.281c0.013-1.065 0.025-2.136 0.032-2.781h5.536c0.189 0 0.367-0.087 0.482-0.236l1.973-2.536 1.108 1.649-2.212 2.255c-0.235 0.239-0.233 0.623 0.004 0.86l1.815 1.815c0.115 0.115 0.27 0.179 0.432 0.179h0.003c0.163-0.001 0.319-0.067 0.433-0.183l1.683-1.715 0.473 0.704-1.606 1.555c-0.118 0.114-0.185 0.27-0.186 0.434s0.063 0.321 0.179 0.437l1.815 1.815c0.119 0.119 0.276 0.179 0.432 0.179 0.153 0 0.307-0.057 0.425-0.172l1.165-1.128c0.18 0.174 0.369 0.337 0.567 0.49l-1.178 1.178c-0.239 0.239-0.239 0.625 0 0.864l1.815 1.815c0.119 0.119 0.276 0.179 0.432 0.179s0.313-0.060 0.432-0.179l2.4-2.4 2.335 0.335v4.434h-16.368c-0.651-2.667-2.253-5.055-4.474-6.668 0.007-0.193 0.012-0.461 0.018-0.841 0.010-0.566 0.021-1.353 0.033-2.338zM1.824 22.128v-3.438c0-0.772 0.225-1.524 0.642-2.165 1.854 1.383 3.212 3.374 3.825 5.603h-4.468zM25.145 22.128v-4.259l2.39 0.342c1.349 0.193 2.366 1.367 2.366 2.729v1.187h-4.756z"></path>
<path d="M16.012 26.924c-0.259 0-0.495-0.169-0.579-0.415-0.080-0.236-0.005-0.507 0.188-0.666 0.189-0.156 0.462-0.184 0.678-0.069 0.226 0.121 0.354 0.375 0.317 0.628-0.043 0.295-0.306 0.521-0.604 0.521z"></path>
</svg>
