<!-- Generated by IcoMoon.io -->
<svg version="1.1" xmlns="http://www.w3.org/2000/svg" width="32" height="32" viewBox="0 0 32 32">
<title>scarpina2</title>
<path d="M31.147 22.596v-2.252c0-2.406-1.957-4.363-4.364-4.363-6.372 0-11.555-5.184-11.555-11.555v-0.938h-14.375v19.108h-0.853v5.917h32v-5.917zM29.272 20.344v2.252h-4.075v-4.833c0.523 0.061 1.052 0.093 1.586 0.093 1.372 0 2.489 1.116 2.489 2.488zM23.322 19.502c-1.16-0.255-2.269-0.642-3.312-1.143l1.066-1.769c0.722 0.339 1.473 0.612 2.246 0.817zM19.439 15.673l-1.067 1.771c-1.197-0.767-2.279-1.693-3.22-2.747l1.91-1.006c0.074 0.077 0.149 0.154 0.225 0.23 0.664 0.664 1.385 1.249 2.152 1.752zM15.841 12.216l-1.87 0.984c-0.628-0.905-1.162-1.878-1.588-2.903h2.315c0.325 0.668 0.707 1.309 1.143 1.918zM13.956 8.422h-2.214c-0.268-0.988-0.44-2.012-0.504-3.060h2.148c0.072 1.049 0.265 2.074 0.571 3.060zM9.359 5.362c0.056 1.036 0.205 2.060 0.442 3.060h-7.073v-3.060zM2.728 10.297h7.631c0.722 2.002 1.811 3.87 3.232 5.499 2.54 2.913 5.97 4.888 9.731 5.62v1.18h-20.594zM1.875 24.471h17.484v2.167h-17.484zM30.125 26.637h-8.891v-2.167h8.891z"></path>
<path d="M7.646 12.867c-1.855 0-3.364 1.509-3.364 3.364s1.509 3.364 3.364 3.364 3.364-1.509 3.364-3.364-1.509-3.364-3.364-3.364zM7.646 17.719c-0.821 0-1.489-0.668-1.489-1.489s0.668-1.489 1.489-1.489 1.489 0.668 1.489 1.489-0.668 1.489-1.489 1.489z"></path>
</svg>
