<!-- Generated by IcoMoon.io -->
<svg version="1.1" xmlns="http://www.w3.org/2000/svg" width="32" height="32" viewBox="0 0 32 32">
<title>tecnologia</title>
<path fill="#0080c9" d="M6.997 15.339c0-1.067-0.853-1.92-1.92-1.92s-1.92 0.853-1.92 1.92c0 1.067 0.853 1.92 1.92 1.92 0.469 0 0.896-0.171 1.237-0.469l2.389 2.389v11.968h0.533v-12.181l-2.56-2.56c0.213-0.32 0.32-0.683 0.32-1.067zM5.077 16.725c-0.768 0-1.387-0.619-1.387-1.387s0.619-1.387 1.387-1.387 1.387 0.619 1.387 1.387-0.619 1.387-1.387 1.387z"></path>
<path fill="#0080c9" d="M16.064 8.448c-1.067 0-1.92 0.853-1.92 1.92 0 0.96 0.725 1.771 1.664 1.899v18.944h0.533v-18.944c0.939-0.128 1.664-0.939 1.664-1.899 0-0.512-0.192-1.003-0.555-1.365-0.384-0.341-0.875-0.555-1.387-0.555zM17.472 10.368c0 0.768-0.619 1.387-1.387 1.387s-1.387-0.619-1.387-1.387 0.619-1.387 1.387-1.387 1.387 0.619 1.387 1.387z"></path>
<path fill="#0080c9" d="M24.043 2.709c0-1.067-0.853-1.92-1.92-1.92s-1.92 0.853-1.92 1.92c0 0.96 0.725 1.771 1.664 1.899v9.429l-2.411 2.389v14.805h0.533v-14.592l2.389-2.389v-9.643c0.939-0.128 1.664-0.939 1.664-1.899zM20.715 2.709c0-0.768 0.619-1.387 1.387-1.387s1.387 0.619 1.387 1.387-0.619 1.387-1.387 1.387-1.387-0.619-1.387-1.387z"></path>
<path fill="#0080c9" d="M26.923 15.595c-1.067 0-1.92 0.853-1.92 1.92 0 0.512 0.192 0.96 0.512 1.301l-2.453 2.453v9.877h0.533v-9.643l2.347-2.347c0.299 0.171 0.64 0.277 1.003 0.277 1.067 0 1.92-0.853 1.92-1.92s-0.875-1.92-1.941-1.92zM26.923 18.923c-0.768 0-1.387-0.619-1.387-1.387s0.619-1.387 1.387-1.387 1.387 0.619 1.387 1.387-0.619 1.387-1.387 1.387z"></path>
<path fill="#0080c9" d="M9.109 7.701c0.939-0.128 1.664-0.939 1.664-1.899 0-1.067-0.853-1.92-1.92-1.92s-1.92 0.853-1.92 1.92c0 0.96 0.725 1.771 1.664 1.899v5.355l3.584 3.584v14.507h0.533v-14.72l-3.605-3.605v-5.12zM10.24 5.781c0 0.768-0.619 1.387-1.387 1.387s-1.387-0.619-1.387-1.387 0.619-1.387 1.387-1.387 1.387 0.619 1.387 1.387z"></path>
</svg>
