<!-- Generated by IcoMoon.io -->
<svg version="1.1" xmlns="http://www.w3.org/2000/svg" width="32" height="32" viewBox="0 0 32 32">
<title>telefono</title>
<path fill="#0080c9" d="M21.186 28.578c-1.854 0-3.552-0.757-5.045-2.253l-5.126-5.126-0.013 0.013-5.34-5.338c-1.519-1.517-2.276-3.245-2.253-5.131 0.049-3.876 3.332-7.044 3.473-7.177l0.151-0.143 6.812 6.812-1.918 1.918c-0.365 0.365-0.563 0.847-0.563 1.361 0 0.512 0.201 0.994 0.563 1.357l2.496 2.496 0.013-0.013 2.709 2.709c0.363 0.363 0.845 0.563 1.357 0.563 0.514 0 0.996-0.201 1.359-0.563l1.918-1.918 6.812 6.812-0.143 0.151c-0.132 0.141-3.3 3.424-7.177 3.473-0.030-0.004-0.058-0.004-0.085-0.004zM11.102 20.683l5.34 5.34c1.434 1.434 3.059 2.153 4.821 2.127 3.241-0.038 6.063-2.554 6.726-3.194l-6.21-6.21-1.617 1.617c-0.444 0.444-1.035 0.689-1.662 0.689s-1.216-0.245-1.66-0.689l-2.496-2.496-0.013 0.013-2.709-2.709c-0.444-0.442-0.689-1.030-0.689-1.658s0.243-1.218 0.689-1.662l1.617-1.617-6.21-6.21c-0.64 0.666-3.155 3.486-3.194 6.726-0.021 1.766 0.695 3.388 2.127 4.821l5.124 5.124 0.015-0.013z"></path>
</svg>
