<?xml version="1.0" encoding="utf-8"?>
<!-- Generator: Adobe Illustrator 24.1.0, SVG Export Plug-In . SVG Version: 6.00 Build 0)  -->
<svg version="1.1" id="Livello_1" xmlns="http://www.w3.org/2000/svg" xmlns:xlink="http://www.w3.org/1999/xlink" x="0px" y="0px"
	 viewBox="0 0 150 150" style="enable-background:new 0 0 150 150;" xml:space="preserve">
<style type="text/css">
	.st0{fill:#0D7FC2;}
	.st1{fill:#5AB1E4;}
	.st2{fill:#2096DD;}
	.st3{fill:#264C60;}
	.st4{fill:#1773AB;}
	.st5{fill:#C6C6C5;}
	.st6{fill:#A4E1FF;}
	.st7{fill:#C6D4BF;}
	.st8{fill:#D6DEC9;}
	.st9{fill:#DEDCC9;}
	.st10{fill:#D4CFBF;}
	.st11{fill:#DBDBDB;}
	.st12{fill:#7A7A6F;}
	.st13{fill:#FFFFFF;}
	.st14{fill:#6D6379;}
	.st15{fill:#132B46;}
	.st16{fill:#6F6F6E;}
	.st17{fill:none;stroke:#000000;stroke-miterlimit:10;}
	.st18{fill:none;stroke:#000000;}
	.st19{fill:#E1F8FF;}
	.st20{fill:#0080C9;}
</style>
<g>
	<g>
		<path class="st20" d="M126.7,127.72H23.3V4.53l84.33-0.12l19.07,19.07V127.72z M24.29,126.74h101.43V23.89L107.22,5.4L24.29,5.52
			V126.74z"/>
	</g>
	<g>
		<path class="st20" d="M101.56,123.31c-10.33,0-18.73-8.4-18.73-18.73s8.4-18.73,18.73-18.73s18.73,8.4,18.73,18.73
			S111.89,123.31,101.56,123.31z M101.56,86.84c-9.78,0-17.75,7.96-17.75,17.75s7.96,17.75,17.75,17.75s17.75-7.96,17.75-17.75
			S111.34,86.84,101.56,86.84z"/>
	</g>
	<g>
		<polygon class="st20" points="111.03,145.59 101.24,133.45 92.07,144.8 94.46,121.53 95.44,121.63 93.39,141.6 101.24,131.88 
			109.74,142.41 107.73,121.61 108.72,121.51 		"/>
	</g>
	<g>
		<polygon class="st20" points="98.62,111.61 91.48,104.47 92.18,103.77 98.62,110.22 110.94,97.9 111.64,98.6 		"/>
	</g>
	<g>
		<polygon class="st20" points="126.21,24.35 106.93,24.35 106.93,4.91 107.92,4.91 107.92,23.36 126.21,23.36 		"/>
	</g>
	<g>
		<rect x="39.59" y="17.05" class="st20" width="50.7" height="0.99"/>
	</g>
	<g>
		<rect x="39.59" y="29.68" class="st20" width="50.7" height="0.99"/>
	</g>
	<g>
		<rect x="39.59" y="42.31" class="st20" width="71.83" height="0.99"/>
	</g>
	<g>
		<rect x="39.59" y="54.95" class="st20" width="71.83" height="0.99"/>
	</g>
	<g>
		<rect x="39.59" y="67.58" class="st20" width="71.83" height="0.99"/>
	</g>
	<g>
		<rect x="39.59" y="80.21" class="st20" width="36.41" height="0.99"/>
	</g>
	<g>
		<rect x="39.59" y="92.84" class="st20" width="36.41" height="0.99"/>
	</g>
	<g>
		<rect x="39.59" y="105.48" class="st20" width="36.41" height="0.99"/>
	</g>
</g>
</svg>
