<?xml version="1.0" encoding="utf-8"?>
<!-- Generator: Adobe Illustrator 24.1.0, SVG Export Plug-In . SVG Version: 6.00 Build 0)  -->
<svg version="1.1" id="Livello_1" xmlns="http://www.w3.org/2000/svg" xmlns:xlink="http://www.w3.org/1999/xlink" x="0px" y="0px"
	 viewBox="0 0 150 150" style="enable-background:new 0 0 150 150;" xml:space="preserve">
<style type="text/css">
	.st0{fill:#0D7FC2;}
	.st1{fill:#5AB1E4;}
	.st2{fill:#2096DD;}
	.st3{fill:#264C60;}
	.st4{fill:#1773AB;}
	.st5{fill:#C6C6C5;}
	.st6{fill:#A4E1FF;}
	.st7{fill:#C6D4BF;}
	.st8{fill:#D6DEC9;}
	.st9{fill:#DEDCC9;}
	.st10{fill:#D4CFBF;}
	.st11{fill:#DBDBDB;}
	.st12{fill:#7A7A6F;}
	.st13{fill:#FFFFFF;}
	.st14{fill:#6D6379;}
	.st15{fill:#132B46;}
	.st16{fill:#6F6F6E;}
	.st17{fill:none;stroke:#000000;stroke-miterlimit:10;}
	.st18{fill:none;stroke:#000000;}
	.st19{fill:#E1F8FF;}
	.st20{fill:#0080C9;}
</style>
<g>
	<g>
		<path class="st20" d="M75,128.61l-0.28-0.36C73.2,126.26,37.4,79.46,37.4,59c0-20.74,16.87-37.6,37.6-37.6s37.6,16.87,37.6,37.6
			c0,20.46-35.8,67.26-37.32,69.25L75,128.61z M75,22.1c-20.35,0-36.9,16.55-36.9,36.9c0,8.34,6.42,22.88,18.57,42.04
			c8.3,13.1,16.71,24.27,18.33,26.41c1.62-2.14,10.03-13.31,18.33-26.41C105.48,81.88,111.9,67.34,111.9,59
			C111.9,38.65,95.35,22.1,75,22.1z"/>
	</g>
	<g>
		<path class="st20" d="M75,75.42c-7.59,0-13.77-6.18-13.77-13.77S67.41,47.88,75,47.88s13.77,6.18,13.77,13.77
			S82.59,75.42,75,75.42z M75,48.58c-7.2,0-13.06,5.86-13.06,13.06S67.8,74.71,75,74.71s13.06-5.86,13.06-13.06S82.2,48.58,75,48.58
			z"/>
	</g>
</g>
</svg>
