<?xml version="1.0" encoding="utf-8"?>
<!-- Generator: Adobe Illustrator 24.1.0, SVG Export Plug-In . SVG Version: 6.00 Build 0)  -->
<svg version="1.1" id="Livello_1" xmlns="http://www.w3.org/2000/svg" xmlns:xlink="http://www.w3.org/1999/xlink" x="0px" y="0px"
	 viewBox="0 0 150 150" style="enable-background:new 0 0 150 150;" xml:space="preserve">
<style type="text/css">
	.st0{fill:#0D7FC2;}
	.st1{fill:#5AB1E4;}
	.st2{fill:#2096DD;}
	.st3{fill:#264C60;}
	.st4{fill:#1773AB;}
	.st5{fill:#C6C6C5;}
	.st6{fill:#A4E1FF;}
	.st7{fill:#C6D4BF;}
	.st8{fill:#D6DEC9;}
	.st9{fill:#DEDCC9;}
	.st10{fill:#D4CFBF;}
	.st11{fill:#DBDBDB;}
	.st12{fill:#7A7A6F;}
	.st13{fill:#FFFFFF;}
	.st14{fill:#6D6379;}
	.st15{fill:#132B46;}
	.st16{fill:#6F6F6E;}
	.st17{fill:none;stroke:#000000;stroke-miterlimit:10;}
	.st18{fill:none;stroke:#000000;}
	.st19{fill:#E1F8FF;}
	.st20{fill:#0080C9;}
</style>
<g>
	<g>
		<path class="st20" d="M75,128.32c-29.4,0-53.32-23.92-53.32-53.32S45.6,21.68,75,21.68S128.32,45.6,128.32,75
			S104.4,128.32,75,128.32z M75,22.39c-29.01,0-52.61,23.6-52.61,52.61s23.6,52.61,52.61,52.61s52.61-23.6,52.61-52.61
			S104.01,22.39,75,22.39z"/>
	</g>
	<g>
		<path class="st20" d="M75,128.32c-29.4,0-53.32-23.92-53.32-53.32S45.6,21.68,75,21.68S128.32,45.6,128.32,75
			S104.4,128.32,75,128.32z M75,22.39c-29.01,0-52.61,23.6-52.61,52.61s23.6,52.61,52.61,52.61s52.61-23.6,52.61-52.61
			S104.01,22.39,75,22.39z"/>
	</g>
	<g>
		<rect x="74.65" y="118.74" class="st20" width="0.71" height="9.23"/>
	</g>
	<g>
		<rect x="74.65" y="22.04" class="st20" width="0.71" height="9.23"/>
	</g>
	<g>
		<rect x="22.04" y="74.65" class="st20" width="9.08" height="0.71"/>
	</g>
	<g>
		<rect x="118.89" y="74.65" class="st20" width="9.08" height="0.71"/>
	</g>
	<g>
		<polygon class="st20" points="93.22,93.72 74.65,75.15 74.65,37.57 75.35,37.57 75.35,74.85 93.72,93.22 		"/>
	</g>
</g>
</svg>
