<?xml version="1.0" encoding="utf-8"?>
<!-- Generator: Adobe Illustrator 24.1.0, SVG Export Plug-In . SVG Version: 6.00 Build 0)  -->
<svg version="1.1" id="Livello_1" xmlns="http://www.w3.org/2000/svg" xmlns:xlink="http://www.w3.org/1999/xlink" x="0px" y="0px"
	 viewBox="0 0 150 150" style="enable-background:new 0 0 150 150;" xml:space="preserve">
<style type="text/css">
	.st0{fill:#0D7FC2;}
	.st1{fill:#5AB1E4;}
	.st2{fill:#2096DD;}
	.st3{fill:#264C60;}
	.st4{fill:#1773AB;}
	.st5{fill:#C6C6C5;}
	.st6{fill:#A4E1FF;}
	.st7{fill:#C6D4BF;}
	.st8{fill:#D6DEC9;}
	.st9{fill:#DEDCC9;}
	.st10{fill:#D4CFBF;}
	.st11{fill:#DBDBDB;}
	.st12{fill:#7A7A6F;}
	.st13{fill:#FFFFFF;}
	.st14{fill:#6D6379;}
	.st15{fill:#132B46;}
	.st16{fill:#6F6F6E;}
	.st17{fill:none;stroke:#000000;stroke-miterlimit:10;}
	.st18{fill:none;stroke:#000000;}
	.st19{fill:#E1F8FF;}
	.st20{fill:#0080C9;}
</style>
<g>
	<path class="st20" d="M97.38,128.33c-7.81,0-14.96-3.2-21.27-9.51l-22.01-22l-0.06,0.06L31.12,73.95
		c-6.41-6.41-9.61-13.68-9.51-21.63c0.2-16.41,14.59-30.28,14.73-30.41l0.25-0.24l28.46,28.46l-7.84,7.84
		c-1.67,1.67-2.59,3.88-2.58,6.24c0,2.35,0.92,4.56,2.58,6.22l10.71,10.71l0.06-0.06l11.64,11.64c1.66,1.67,3.87,2.58,6.22,2.58
		c0,0,0,0,0.01,0c2.35,0,4.57-0.92,6.23-2.58l7.84-7.84l28.46,28.46l-0.24,0.25c-0.14,0.15-14.01,14.53-30.41,14.73
		C97.62,128.33,97.5,128.33,97.38,128.33z M53.68,95.4l22.93,22.92c6.26,6.27,13.38,9.4,21.11,9.3
		c14.93-0.18,27.77-12.38,29.67-14.27L99.93,85.88l-7.34,7.34c-1.8,1.8-4.19,2.79-6.73,2.79c0,0,0,0-0.01,0
		c-2.54,0-4.93-0.99-6.72-2.79L68.42,82.51l-0.06,0.06L56.72,70.93c-1.8-1.79-2.79-4.18-2.79-6.72c0-2.54,0.99-4.94,2.79-6.74
		l7.34-7.34L36.59,22.66C34.7,24.56,22.5,37.4,22.32,52.33c-0.1,7.74,3.03,14.85,9.3,21.11l22,22L53.68,95.4z"/>
</g>
</svg>
