<!-- Generated by IcoMoon.io -->
<svg version="1.1" xmlns="http://www.w3.org/2000/svg" width="32" height="32" viewBox="0 0 32 32">
<title>chirurgia</title>
<path fill="#0080c9" d="M13.291 11.978l1.778-1.778 0.113 0.113-1.778 1.778-0.113-0.113z"></path>
<path fill="#0080c9" d="M14.503 13.19l1.778-1.778 0.113 0.113-1.778 1.778-0.113-0.113z"></path>
<path fill="#0080c9" d="M14.871 15.246l2.623-2.623 0.113 0.113-2.623 2.623-0.113-0.113z"></path>
<path fill="#0080c9" d="M16.928 15.616l1.779-1.778 0.113 0.113-1.779 1.778-0.113-0.113z"></path>
<path fill="#0080c9" d="M18.142 16.829l1.779-1.778 0.113 0.113-1.779 1.778-0.113-0.113z"></path>
<path fill="#0080c9" d="M18.509 18.886l2.623-2.623 0.113 0.113-2.623 2.623-0.113-0.113z"></path>
<path fill="#0080c9" d="M20.565 19.253l1.779-1.779 0.113 0.113-1.779 1.779-0.113-0.113z"></path>
<path fill="#0080c9" d="M7.945 10.554c-0.67 0-1.338-0.254-1.847-0.764-1.018-1.018-1.018-2.675 0-3.693s2.675-1.018 3.693 0 1.018 2.675 0 3.693v0c-0.508 0.51-1.178 0.764-1.845 0.764zM7.945 5.493c-0.627 0-1.257 0.239-1.734 0.717-0.956 0.956-0.956 2.511 0 3.467s2.511 0.956 3.467 0v0c0.956-0.956 0.956-2.511 0-3.467-0.478-0.478-1.105-0.717-1.732-0.717z"></path>
<path fill="#0080c9" d="M7.91 12.894l-0.725-0.725 4.983-4.983 0.725 0.725-4.983 4.983zM7.411 12.169l0.497 0.497 4.757-4.757-0.499-0.499-4.755 4.759z"></path>
<path fill="#0080c9" d="M18.743 23.729l-9.815-9.818 4.983-4.983 9.815 9.815-4.983 4.986zM9.156 13.911l9.589 9.589 4.757-4.757-9.591-9.589-4.755 4.757z"></path>
<path fill="#0080c9" d="M10.82 12.247l-1.246-1.246 1.425-1.425 1.246 1.246-1.425 1.425zM9.803 11.002l1.020 1.020 1.199-1.199-1.020-1.018-1.199 1.197z"></path>
<path fill="#0080c9" d="M21.813 23.906l-1.737-1.737 2.093-2.093 1.737 1.737-2.093 2.093zM20.303 22.17l1.51 1.51 1.867-1.867-1.51-1.51-1.867 1.867z"></path>
<path fill="#0080c9" d="M22.746 22.858l0.113-0.113 3.807 3.807-0.113 0.113-3.807-3.807z"></path>
</svg>
