<!-- Generated by IcoMoon.io -->
<svg version="1.1" xmlns="http://www.w3.org/2000/svg" width="32" height="32" viewBox="0 0 32 32">
<title>conservativa</title>
<path fill="#0080c9" d="M17.845 5.333c-0.629 0-1.25 0.096-1.847 0.284-1.171-0.367-2.43-0.373-3.575-0.036l-0.115 0.034 0.083 0.087c0.555 0.595 0.559 1.532 0.011 2.135-0.529 0.582-1.417 0.685-2.065 0.235l-0.454-0.316 0.356 0.425c0.503 0.602 0.484 1.493-0.045 2.074-0.516 0.567-1.361 0.683-2.010 0.273l-0.096-0.062-0.017 0.113c-0.045 0.294-0.066 0.597-0.066 0.9 0 0.235 0.015 0.474 0.043 0.71 0.028 0.241 0.073 0.482 0.13 0.717 0.055 0.228 0.126 0.457 0.213 0.693 0.085 0.226 0.183 0.448 0.292 0.661 0.113 0.218 0.235 0.429 0.367 0.627 0.273 0.41 0.61 0.768 0.937 1.116 0.262 0.279 0.533 0.567 0.768 0.879 0.117 0.158 0.198 0.309 0.247 0.467 0.055 0.181 0.068 0.378 0.038 0.589-0.062 0.454-0.098 2.050 0.205 3.821 0.26 1.521 0.845 3.584 2.161 4.783l0.137 0.124-0.011-0.183c-0.002-0.047-0.269-4.64 1.242-6.246 0.341-0.363 0.753-0.548 1.225-0.548s0.883 0.183 1.225 0.548c1.51 1.606 1.244 6.202 1.242 6.249l-0.009 0.181 0.137-0.124c1.316-1.199 1.901-3.262 2.161-4.783 0.303-1.771 0.267-3.364 0.205-3.821-0.092-0.661 0.393-1.199 0.821-1.673l0.098-0.109c0.567-0.634 1.107-1.263 1.476-1.997 0.42-0.836 0.642-1.762 0.642-2.682-0.002-3.388-2.761-6.146-6.15-6.146zM23.219 14.095c-0.361 0.717-0.894 1.338-1.455 1.965l-0.098 0.109c-0.45 0.497-0.96 1.062-0.858 1.794 0.162 1.173 0.011 6.157-2.185 8.346 0.015-0.384 0.034-1.316-0.058-2.357-0.162-1.835-0.578-3.117-1.231-3.814-0.371-0.395-0.819-0.595-1.333-0.595s-0.962 0.201-1.333 0.595c-0.655 0.698-1.069 1.98-1.231 3.814-0.092 1.041-0.073 1.973-0.058 2.357-2.195-2.189-2.347-7.172-2.185-8.346 0.032-0.23 0.019-0.45-0.043-0.653-0.053-0.173-0.141-0.341-0.271-0.512-0.239-0.318-0.514-0.61-0.779-0.892-0.322-0.343-0.655-0.698-0.922-1.097-0.128-0.194-0.25-0.399-0.358-0.612-0.107-0.209-0.203-0.427-0.286-0.646-0.085-0.233-0.154-0.454-0.209-0.678-0.058-0.228-0.1-0.463-0.128-0.7-0.028-0.23-0.043-0.465-0.043-0.693 0-0.258 0.017-0.516 0.049-0.768 0.693 0.378 1.559 0.237 2.101-0.356 0.506-0.555 0.585-1.365 0.233-2.001 0.666 0.294 1.47 0.139 1.975-0.418 0.574-0.629 0.593-1.594 0.066-2.246 1.094-0.299 2.287-0.277 3.398 0.075v0c0.606 0.194 1.175 0.48 1.692 0.855 0.448 0.326 0.851 0.713 1.195 1.148l0.117-0.092c-0.352-0.446-0.764-0.841-1.222-1.175-0.467-0.337-0.975-0.606-1.513-0.8 0.521-0.145 1.058-0.218 1.602-0.218 3.307 0 5.999 2.69 5.999 5.999-0.006 0.894-0.222 1.798-0.631 2.613z"></path>
</svg>
