<!-- Generated by IcoMoon.io -->
<svg version="1.1" xmlns="http://www.w3.org/2000/svg" width="32" height="32" viewBox="0 0 32 32">
<title>estetica-sorriso</title>
<path fill="#0080c9" d="M16.015 9.111c-0.521 0-1.030 0.079-1.517 0.233-0.493-0.154-1.003-0.233-1.517-0.233-2.79 0-5.058 2.27-5.058 5.058 0 0.194 0.013 0.39 0.036 0.585 0.023 0.196 0.060 0.395 0.109 0.589 0.047 0.192 0.107 0.384 0.177 0.57 0.068 0.186 0.151 0.369 0.241 0.546 0.090 0.175 0.192 0.35 0.303 0.516 0.224 0.337 0.501 0.634 0.77 0.917 0.215 0.228 0.437 0.467 0.629 0.721 0.096 0.128 0.162 0.254 0.201 0.378 0.045 0.145 0.055 0.307 0.032 0.478-0.051 0.373-0.083 1.683 0.166 3.14 0.213 1.25 0.695 2.946 1.777 3.934l0.134 0.122-0.011-0.181c-0.002-0.038-0.22-3.804 1.015-5.12 0.277-0.297 0.614-0.446 0.996-0.446s0.719 0.149 0.996 0.446c1.237 1.316 1.018 5.082 1.015 5.12l-0.011 0.183 0.134-0.122c1.082-0.986 1.564-2.684 1.777-3.934 0.25-1.457 0.22-2.767 0.166-3.14-0.075-0.538 0.322-0.975 0.672-1.361l0.081-0.092c0.467-0.521 0.911-1.039 1.214-1.643 0.346-0.687 0.529-1.449 0.529-2.206-0.002-2.788-2.27-5.058-5.060-5.058zM20.416 16.311c-0.294 0.587-0.732 1.097-1.193 1.611l-0.081 0.090c-0.371 0.41-0.791 0.877-0.708 1.481 0.132 0.958 0.015 5.011-1.766 6.818 0.030-0.791 0.068-3.838-1.065-5.043-0.307-0.326-0.678-0.493-1.103-0.493s-0.796 0.166-1.103 0.493c-1.133 1.205-1.094 4.254-1.065 5.043-1.781-1.807-1.901-5.862-1.766-6.818 0.028-0.192 0.015-0.375-0.036-0.54-0.043-0.143-0.117-0.279-0.224-0.422-0.196-0.262-0.422-0.501-0.64-0.734-0.265-0.282-0.538-0.572-0.755-0.898-0.107-0.162-0.207-0.331-0.294-0.501-0.087-0.173-0.166-0.35-0.235-0.529-0.068-0.181-0.126-0.367-0.171-0.555-0.047-0.188-0.081-0.382-0.105-0.572-0.023-0.188-0.034-0.38-0.034-0.567 0-2.709 2.204-4.913 4.913-4.913 0.508 0 1.009 0.079 1.493 0.233 0.497 0.158 0.962 0.393 1.385 0.7 0.367 0.267 0.698 0.582 0.977 0.939l0.115-0.090c-0.29-0.367-0.629-0.693-1.007-0.966-0.373-0.271-0.779-0.486-1.207-0.646 0.412-0.111 0.841-0.169 1.276-0.169 2.709 0 4.913 2.204 4.913 4.913-0.002 0.73-0.179 1.47-0.514 2.138z"></path>
<path fill="#0080c9" d="M22.438 10.829l-0.073-0.486-0.073 0.486c-0.126 0.843-0.203 0.919-1.045 1.045l-0.486 0.073 0.486 0.073c0.843 0.126 0.919 0.203 1.045 1.045l0.073 0.486 0.073-0.486c0.126-0.843 0.203-0.919 1.045-1.045l0.486-0.073-0.486-0.073c-0.843-0.124-0.919-0.203-1.045-1.045zM22.366 12.644c-0.102-0.435-0.26-0.595-0.698-0.698 0.435-0.102 0.595-0.26 0.698-0.698 0.102 0.435 0.26 0.595 0.698 0.698-0.437 0.102-0.595 0.262-0.698 0.698z"></path>
<path fill="#0080c9" d="M15.68 8.523l0.073 0.486 0.073-0.486c0.126-0.843 0.203-0.919 1.045-1.045l0.486-0.073-0.486-0.073c-0.843-0.126-0.919-0.203-1.045-1.045l-0.073-0.486-0.073 0.486c-0.126 0.843-0.203 0.919-1.045 1.045l-0.486 0.073 0.486 0.073c0.843 0.126 0.922 0.205 1.045 1.045zM15.753 6.709c0.102 0.435 0.26 0.595 0.698 0.698-0.435 0.102-0.595 0.26-0.698 0.698-0.102-0.435-0.26-0.595-0.698-0.698 0.437-0.105 0.595-0.262 0.698-0.698z"></path>
<path fill="#0080c9" d="M21.325 10.204l0.073 0.486 0.073-0.486c0.252-1.69 0.429-1.869 2.118-2.118l0.486-0.073-0.486-0.073c-1.69-0.252-1.869-0.429-2.118-2.118l-0.073-0.489-0.073 0.486c-0.252 1.69-0.429 1.869-2.118 2.118l-0.486 0.073 0.486 0.073c1.69 0.252 1.869 0.431 2.118 2.121zM21.397 6.287c0.22 1.212 0.512 1.504 1.724 1.724-1.212 0.22-1.504 0.512-1.724 1.724-0.218-1.212-0.512-1.504-1.724-1.724 1.212-0.218 1.506-0.512 1.724-1.724z"></path>
</svg>
