<!-- Generated by IcoMoon.io -->
<svg version="1.1" xmlns="http://www.w3.org/2000/svg" width="32" height="32" viewBox="0 0 32 32">
<title>geoloc</title>
<path fill="#0080c9" d="M16 27.437l-0.060-0.077c-0.324-0.425-7.962-10.409-7.962-14.773 0-4.425 3.599-8.021 8.021-8.021s8.021 3.599 8.021 8.021c0 4.365-7.637 14.349-7.962 14.773l-0.060 0.077zM16 4.715c-4.341 0-7.872 3.531-7.872 7.872 0 1.779 1.37 4.881 3.962 8.969 1.771 2.795 3.565 5.178 3.91 5.634 0.346-0.457 2.14-2.839 3.91-5.634 2.592-4.087 3.962-7.189 3.962-8.969 0-4.341-3.531-7.872-7.872-7.872z"></path>
<path fill="#0080c9" d="M16 16.090c-1.619 0-2.938-1.318-2.938-2.938s1.318-2.938 2.938-2.938 2.938 1.318 2.938 2.938-1.318 2.938-2.938 2.938zM16 10.364c-1.536 0-2.786 1.25-2.786 2.786s1.25 2.788 2.786 2.788 2.786-1.25 2.786-2.786-1.25-2.788-2.786-2.788z"></path>
</svg>
