<!-- Generated by IcoMoon.io -->
<svg version="1.1" xmlns="http://www.w3.org/2000/svg" width="32" height="32" viewBox="0 0 32 32">
<title>impianti-dentali</title>
<path fill="#0080c9" d="M17.85 5.333c-0.631 0-1.252 0.096-1.85 0.282-0.602-0.186-1.225-0.282-1.85-0.282-3.394 0-6.157 2.761-6.157 6.155 0 0.226 0.015 0.467 0.043 0.713 0.028 0.233 0.073 0.474 0.132 0.719 0.058 0.233 0.13 0.467 0.215 0.693 0.085 0.224 0.183 0.448 0.292 0.663 0.107 0.209 0.23 0.418 0.367 0.627 0.273 0.41 0.612 0.77 0.939 1.118 0.262 0.279 0.535 0.57 0.77 0.881 0.094 0.126 0.158 0.235 0.203 0.346l0.019 0.047h0.006l5.020 9.372 5.052-9.372h0.004l0.019-0.045c0.16-0.361 0.457-0.689 0.721-0.979l0.087-0.098c0.567-0.631 1.105-1.261 1.478-2.001 0.42-0.836 0.644-1.764 0.644-2.686 0-3.392-2.763-6.153-6.157-6.153zM14.268 23.117h3.475l-0.704 1.308h-2.071l-0.7-1.308zM14.187 22.967l-0.7-1.306h5.041l-0.704 1.306h-3.637zM13.408 21.513l-0.7-1.306h6.605l-0.704 1.306h-5.201zM12.629 20.058l-0.7-1.308h8.171l-0.706 1.308h-6.765zM15.049 24.574h1.911l-0.96 1.779-0.951-1.779zM20.177 18.601h-8.329l-0.7-1.306h9.734l-0.706 1.306zM23.23 14.106c-0.365 0.723-0.896 1.344-1.457 1.967l-0.087 0.098c-0.26 0.286-0.553 0.61-0.725 0.975h-9.888c-0.049-0.107-0.113-0.215-0.201-0.331-0.239-0.32-0.514-0.612-0.781-0.894-0.322-0.343-0.657-0.698-0.922-1.097-0.134-0.205-0.256-0.41-0.358-0.614-0.107-0.211-0.205-0.429-0.286-0.649-0.083-0.222-0.154-0.45-0.211-0.676-0.058-0.239-0.1-0.474-0.128-0.7-0.028-0.239-0.043-0.474-0.043-0.695 0-3.311 2.694-6.005 6.007-6.005 0.619 0 1.233 0.096 1.826 0.284v0c0.606 0.194 1.175 0.482 1.694 0.858 0.45 0.326 0.853 0.713 1.197 1.148l0.117-0.092c-0.352-0.446-0.766-0.841-1.227-1.175-0.465-0.339-0.975-0.608-1.513-0.802 0.521-0.143 1.058-0.218 1.604-0.218 3.313 0 6.007 2.694 6.007 6.005 0 0.892-0.218 1.798-0.627 2.613z"></path>
</svg>
