<!-- Generated by IcoMoon.io -->
<svg version="1.1" xmlns="http://www.w3.org/2000/svg" width="32" height="32" viewBox="0 0 32 32">
<title>orario</title>
<path fill="#0080c9" d="M16 27.375c-6.272 0-11.375-5.103-11.375-11.375s5.103-11.375 11.375-11.375 11.375 5.103 11.375 11.375-5.103 11.375-11.375 11.375zM16 4.777c-6.189 0-11.223 5.035-11.223 11.223s5.035 11.223 11.223 11.223 11.223-5.035 11.223-11.223-5.035-11.223-11.223-11.223z"></path>
<path fill="#0080c9" d="M15.925 25.331h0.151v1.969h-0.151v-1.969z"></path>
<path fill="#0080c9" d="M15.925 4.702h0.151v1.969h-0.151v-1.969z"></path>
<path fill="#0080c9" d="M4.702 15.925h1.937v0.151h-1.937v-0.151z"></path>
<path fill="#0080c9" d="M25.363 15.925h1.937v0.151h-1.937v-0.151z"></path>
<path fill="#0080c9" d="M19.887 19.994l-3.962-3.962v-8.017h0.149v7.953l3.919 3.919z"></path>
</svg>
