<!-- Generated by IcoMoon.io -->
<svg version="1.1" xmlns="http://www.w3.org/2000/svg" width="32" height="32" viewBox="0 0 32 32">
<title>ortodonzia-invisibile</title>
<path fill="#0080c9" d="M16.021 14.161l0.060-0.085c0.907-1.269 1.387-2.765 1.387-4.329s-0.48-3.061-1.387-4.329l-0.060-0.085-0.060 0.085c-0.907 1.269-1.387 2.765-1.387 4.329s0.48 3.061 1.387 4.329l0.060 0.085zM16.021 5.591c0.849 1.225 1.299 2.658 1.299 4.156s-0.448 2.931-1.299 4.156c-0.849-1.225-1.299-2.658-1.299-4.156s0.45-2.931 1.299-4.156z"></path>
<path fill="#0080c9" d="M17.316 14.716l0.102-0.017c1.538-0.256 2.935-0.975 4.043-2.080 1.105-1.105 1.824-2.502 2.080-4.043l0.017-0.102-0.102 0.017c-1.54 0.256-2.938 0.975-4.043 2.080s-1.824 2.502-2.080 4.043l-0.017 0.102zM19.518 10.675c1.058-1.058 2.389-1.756 3.857-2.020-0.265 1.466-0.962 2.799-2.020 3.857s-2.389 1.756-3.857 2.020c0.267-1.466 0.962-2.797 2.020-3.857z"></path>
<path fill="#0080c9" d="M26.581 15.962c-1.269-0.907-2.765-1.387-4.329-1.387s-3.061 0.48-4.329 1.387l-0.085 0.060 0.085 0.060c1.269 0.907 2.765 1.387 4.329 1.387s3.061-0.48 4.329-1.387l0.085-0.060-0.085-0.060zM22.253 17.321c-1.498 0-2.931-0.448-4.156-1.299 1.225-0.849 2.658-1.299 4.156-1.299s2.931 0.448 4.156 1.299c-1.225 0.851-2.658 1.299-4.156 1.299z"></path>
<path fill="#0080c9" d="M21.429 19.413c-1.105-1.105-2.502-1.824-4.043-2.080l-0.102-0.017 0.017 0.102c0.256 1.538 0.975 2.935 2.080 4.043 1.105 1.105 2.502 1.824 4.043 2.080l0.102 0.017-0.017-0.102c-0.256-1.54-0.975-2.938-2.080-4.043zM19.488 21.355c-1.058-1.058-1.756-2.389-2.020-3.857 1.466 0.265 2.799 0.962 3.857 2.020s1.756 2.389 2.020 3.857c-1.468-0.265-2.799-0.962-3.857-2.020z"></path>
<path fill="#0080c9" d="M15.979 17.839l-0.060 0.085c-0.907 1.269-1.387 2.765-1.387 4.329s0.48 3.059 1.387 4.329l0.060 0.085 0.060-0.085c0.907-1.269 1.387-2.765 1.387-4.329s-0.48-3.061-1.387-4.329l-0.060-0.085zM15.979 26.409c-0.849-1.225-1.297-2.658-1.297-4.156s0.448-2.931 1.297-4.156c0.849 1.225 1.299 2.658 1.299 4.156s-0.45 2.931-1.299 4.156z"></path>
<path fill="#0080c9" d="M14.684 17.284l-0.102 0.017c-1.538 0.256-2.935 0.975-4.043 2.080-1.105 1.105-1.824 2.502-2.080 4.043l-0.017 0.102 0.102-0.017c1.538-0.256 2.935-0.975 4.043-2.080 1.105-1.105 1.824-2.502 2.080-4.043l0.017-0.102zM12.48 21.325c-1.058 1.058-2.389 1.756-3.857 2.020 0.265-1.466 0.962-2.799 2.020-3.857s2.389-1.756 3.857-2.020c-0.265 1.466-0.96 2.797-2.020 3.857z"></path>
<path fill="#0080c9" d="M14.076 16.038l0.085-0.060-0.085-0.060c-1.269-0.907-2.765-1.387-4.329-1.387s-3.059 0.48-4.329 1.387l-0.085 0.060 0.085 0.060c1.269 0.907 2.765 1.387 4.329 1.387s3.061-0.48 4.329-1.387zM9.747 14.679c1.498 0 2.931 0.448 4.156 1.299-1.225 0.849-2.658 1.299-4.156 1.299s-2.931-0.448-4.156-1.299c1.225-0.851 2.658-1.299 4.156-1.299z"></path>
<path fill="#0080c9" d="M10.571 12.587c1.105 1.105 2.502 1.824 4.043 2.080l0.102 0.017-0.017-0.102c-0.256-1.538-0.975-2.935-2.080-4.043-1.105-1.105-2.502-1.824-4.043-2.080l-0.102-0.017 0.017 0.102c0.254 1.54 0.975 2.938 2.080 4.043zM12.512 10.645c1.058 1.058 1.756 2.389 2.020 3.857-1.466-0.265-2.799-0.962-3.857-2.020s-1.756-2.389-2.020-3.857c1.468 0.265 2.799 0.962 3.857 2.020z"></path>
</svg>
