<!-- Generated by IcoMoon.io -->
<svg version="1.1" xmlns="http://www.w3.org/2000/svg" width="32" height="32" viewBox="0 0 32 32">
<title>paradontologia</title>
<path fill="#0080c9" d="M24.013 16.395v-0.149h-0.011v-1.28h-3.511c0.013-0.017 0.023-0.032 0.036-0.049 0.1-0.13 0.211-0.254 0.32-0.373l0.092-0.102c0.476-0.531 0.93-1.058 1.242-1.679 0.354-0.702 0.54-1.483 0.54-2.257 0-2.85-2.321-5.171-5.175-5.171-0.531 0-1.054 0.079-1.551 0.237-0.503-0.158-1.024-0.237-1.551-0.237-2.852 0-5.173 2.321-5.173 5.173 0 0.201 0.013 0.401 0.036 0.599 0.026 0.205 0.062 0.407 0.111 0.604 0.049 0.201 0.109 0.397 0.179 0.582 0.068 0.183 0.151 0.371 0.247 0.557 0.092 0.181 0.196 0.361 0.309 0.529 0.23 0.346 0.514 0.649 0.789 0.941 0.181 0.194 0.369 0.393 0.538 0.602 0.013 0.015 0.023 0.030 0.036 0.047h-3.529v6.893c0 2.652 2.157 4.806 4.806 4.806h6.4c2.652 0 4.806-2.157 4.806-4.806v-0.35h0.011v-0.149h-0.011v-1.129h0.011v-0.149h-0.011v-1.131h0.011v-0.149h-0.011v-1.129h0.011v-0.149h-0.011v-1.129h0.013zM23.853 16.245h-3.659c-0.006-0.126-0.015-0.235-0.026-0.318s-0.013-0.16-0.004-0.239c0.019-0.183 0.094-0.371 0.222-0.574h3.467v1.131zM11.051 14.214c-0.271-0.288-0.55-0.585-0.772-0.922-0.109-0.164-0.211-0.337-0.301-0.514-0.092-0.181-0.173-0.363-0.241-0.542-0.068-0.181-0.126-0.371-0.175-0.567-0.047-0.19-0.083-0.386-0.107-0.585-0.023-0.192-0.036-0.386-0.036-0.58 0-2.771 2.255-5.024 5.024-5.024 0.518 0 1.033 0.079 1.527 0.237v0c0.508 0.162 0.983 0.403 1.417 0.717 0.373 0.269 0.708 0.591 1.001 0.96l0.117-0.092c-0.299-0.38-0.646-0.713-1.030-0.988-0.382-0.277-0.798-0.495-1.237-0.657 0.422-0.115 0.86-0.175 1.306-0.175 2.771 0 5.024 2.255 5.024 5.024 0 0.751-0.181 1.508-0.525 2.189-0.303 0.606-0.751 1.124-1.22 1.647l-0.092 0.1c-0.109 0.122-0.222 0.247-0.326 0.382-0.045 0.058-0.085 0.115-0.126 0.173-0.158 0.235-0.243 0.457-0.267 0.674-0.011 0.090-0.009 0.181 0.004 0.275 0.009 0.066 0.021 0.183 0.028 0.375 0.006 0.149 0.009 0.341 0.006 0.572-0.004 0.222-0.013 0.459-0.028 0.698-0.011 0.156-0.028 0.393-0.053 0.636-0.023 0.222-0.051 0.429-0.081 0.636-0.030 0.194-0.066 0.403-0.113 0.636-0.045 0.22-0.094 0.433-0.149 0.636-0.058 0.222-0.122 0.435-0.188 0.634-0.309 0.917-0.721 1.641-1.227 2.153 0.013-0.365 0.028-1.216-0.068-2.135-0.021-0.209-0.049-0.427-0.085-0.642-0.034-0.222-0.077-0.439-0.126-0.646-0.053-0.224-0.117-0.442-0.19-0.646-0.085-0.241-0.186-0.459-0.299-0.653-0.169-0.288-0.365-0.51-0.58-0.661-0.256-0.183-0.548-0.275-0.868-0.275s-0.612 0.094-0.868 0.275c-0.215 0.151-0.412 0.375-0.582 0.663-0.111 0.192-0.211 0.412-0.297 0.651-0.073 0.203-0.137 0.422-0.19 0.646-0.051 0.207-0.094 0.425-0.126 0.646-0.034 0.218-0.064 0.433-0.085 0.644-0.096 0.922-0.081 1.771-0.068 2.135-0.506-0.512-0.919-1.235-1.227-2.153-0.068-0.198-0.132-0.412-0.188-0.634-0.053-0.203-0.105-0.416-0.149-0.636-0.047-0.235-0.085-0.442-0.113-0.636-0.032-0.207-0.058-0.416-0.081-0.636-0.026-0.239-0.043-0.465-0.053-0.636-0.015-0.243-0.026-0.478-0.028-0.698-0.002-0.23 0-0.422 0.006-0.572 0.006-0.19 0.019-0.309 0.028-0.373 0.013-0.096 0.017-0.188 0.011-0.271-0.004-0.102-0.021-0.194-0.047-0.279-0.041-0.134-0.109-0.267-0.203-0.401l-0.023-0.032c-0.034-0.047-0.073-0.094-0.109-0.139-0.177-0.218-0.367-0.418-0.55-0.614zM15.196 17.673h1.598c0.192 0.139 0.367 0.341 0.521 0.602 0.092 0.158 0.175 0.335 0.247 0.527h-3.136c0.075-0.192 0.156-0.369 0.247-0.527 0.156-0.26 0.331-0.461 0.523-0.602zM15.46 17.523c0.166-0.073 0.343-0.113 0.535-0.113 0.19 0 0.369 0.041 0.535 0.113h-1.071zM14.372 18.95h3.245c0.064 0.186 0.122 0.38 0.171 0.582 0.043 0.177 0.079 0.361 0.109 0.548h-3.804c0.030-0.188 0.066-0.371 0.109-0.548 0.049-0.203 0.107-0.397 0.171-0.582zM14.069 20.23h3.851c0.030 0.192 0.055 0.386 0.075 0.572 0.019 0.19 0.034 0.375 0.045 0.557h-4.090c0.011-0.181 0.026-0.367 0.045-0.557 0.019-0.186 0.045-0.378 0.075-0.572zM11.787 16.898c0.002 0.198 0.011 0.41 0.023 0.625h-3.674v-1.129h3.652c-0.004 0.141-0.004 0.307-0.002 0.503zM11.819 17.673c0.011 0.162 0.026 0.363 0.049 0.572 0.021 0.192 0.045 0.375 0.070 0.557h-3.802v-1.129h3.682zM11.962 18.95c0.028 0.177 0.062 0.367 0.105 0.58 0.038 0.19 0.081 0.373 0.128 0.55h-4.058v-1.131h3.825zM12.233 20.23c0.053 0.205 0.113 0.403 0.177 0.589 0.064 0.19 0.132 0.367 0.205 0.54h-4.478v-1.129h4.096zM11.627 15.115c0.075 0.109 0.128 0.218 0.162 0.326 0.023 0.075 0.036 0.154 0.041 0.245 0.004 0.075 0.002 0.156-0.011 0.241-0.011 0.083-0.019 0.192-0.026 0.318h-3.657v-1.131h3.49zM23.853 21.86c0 2.569-2.089 4.657-4.657 4.657h-6.4c-2.569 0-4.657-2.089-4.657-4.657v-0.35h4.54c0.307 0.691 0.687 1.248 1.133 1.653l0.137 0.124-0.011-0.183c0-0.009-0.043-0.702 0.004-1.594h4.107c0.047 0.892 0.006 1.585 0.004 1.594l-0.011 0.183 0.137-0.124c0.446-0.407 0.826-0.962 1.133-1.653h4.54v0.35zM23.853 21.359h-4.478c0.073-0.173 0.141-0.352 0.205-0.54 0.064-0.186 0.122-0.384 0.177-0.589h4.094v1.129zM23.853 20.081h-4.058c0.045-0.177 0.087-0.361 0.128-0.55 0.043-0.211 0.077-0.401 0.105-0.578h3.825v1.129zM23.853 18.801h-3.804c0.026-0.181 0.049-0.363 0.070-0.557 0.023-0.215 0.038-0.418 0.049-0.572h3.682v1.129zM23.853 17.523h-3.674c0.013-0.215 0.021-0.425 0.023-0.625 0.002-0.196 0.002-0.363-0.004-0.503h3.652v1.129z"></path>
</svg>
