<!-- Generated by IcoMoon.io -->
<svg version="1.1" xmlns="http://www.w3.org/2000/svg" width="32" height="32" viewBox="0 0 32 32">
<title>pododanzia</title>
<path fill="#0080c9" d="M17.847 5.333c-0.634 0-1.254 0.096-1.847 0.284-0.599-0.188-1.22-0.284-1.847-0.284-3.39 0-6.146 2.758-6.146 6.146 0 0.237 0.015 0.476 0.043 0.71 0.028 0.239 0.073 0.48 0.13 0.717 0.058 0.233 0.13 0.467 0.215 0.693s0.183 0.448 0.292 0.663c0.111 0.215 0.235 0.425 0.367 0.627 0.273 0.41 0.61 0.768 0.937 1.116 0.262 0.279 0.535 0.57 0.768 0.881 0.119 0.158 0.201 0.311 0.247 0.465 0.055 0.179 0.068 0.378 0.038 0.589-0.064 0.454-0.1 2.048 0.203 3.821 0.26 1.521 0.845 3.584 2.161 4.783l0.137 0.124-0.011-0.183c-0.002-0.047-0.269-4.64 1.242-6.246 0.341-0.363 0.753-0.548 1.225-0.548s0.883 0.183 1.225 0.548c1.51 1.606 1.246 6.202 1.242 6.246l-0.011 0.181 0.137-0.124c1.316-1.199 1.901-3.262 2.161-4.783 0.303-1.773 0.267-3.366 0.203-3.821-0.092-0.661 0.393-1.197 0.821-1.67l0.1-0.111c0.567-0.634 1.107-1.265 1.476-1.997 0.42-0.834 0.642-1.762 0.642-2.682-0.002-3.388-2.761-6.146-6.148-6.146zM23.219 14.095c-0.361 0.717-0.894 1.338-1.455 1.965l-0.098 0.109c-0.45 0.497-0.96 1.062-0.858 1.792 0.162 1.173 0.015 6.155-2.185 8.346 0.015-0.384 0.034-1.316-0.058-2.357-0.162-1.835-0.578-3.117-1.233-3.814-0.371-0.395-0.819-0.595-1.333-0.595s-0.962 0.201-1.333 0.595c-0.655 0.695-1.069 1.98-1.233 3.814-0.092 1.041-0.073 1.973-0.058 2.357-2.199-2.193-2.347-7.174-2.185-8.346 0.032-0.233 0.017-0.452-0.043-0.653-0.053-0.171-0.141-0.339-0.271-0.512-0.239-0.318-0.514-0.61-0.779-0.894-0.322-0.343-0.655-0.698-0.922-1.097-0.13-0.196-0.252-0.403-0.358-0.612s-0.205-0.427-0.286-0.646c-0.083-0.222-0.154-0.448-0.209-0.676-0.058-0.23-0.1-0.465-0.128-0.7-0.028-0.23-0.043-0.463-0.043-0.693 0-3.307 2.69-5.999 5.999-5.999 0.619 0 1.233 0.096 1.824 0.284 0.606 0.192 1.175 0.48 1.692 0.855 0.448 0.326 0.851 0.71 1.195 1.146l0.117-0.092c-0.352-0.446-0.764-0.841-1.225-1.175-0.465-0.337-0.973-0.606-1.513-0.8 0.518-0.145 1.056-0.218 1.602-0.218 3.307 0 5.999 2.69 5.999 5.999 0 0.9-0.215 1.803-0.625 2.618z"></path>
<path fill="#0080c9" d="M14.481 12.604c0-0.457-0.371-0.828-0.828-0.828s-0.828 0.371-0.828 0.828c0 0.457 0.371 0.828 0.828 0.828s0.828-0.371 0.828-0.828zM12.973 12.604c0-0.375 0.305-0.681 0.681-0.681s0.681 0.305 0.681 0.681c0 0.375-0.305 0.681-0.681 0.681s-0.681-0.305-0.681-0.681z"></path>
<path fill="#0080c9" d="M18.347 11.776c-0.457 0-0.828 0.371-0.828 0.828s0.371 0.828 0.828 0.828c0.457 0 0.828-0.371 0.828-0.828s-0.371-0.828-0.828-0.828zM18.347 13.284c-0.375 0-0.681-0.305-0.681-0.681s0.305-0.681 0.681-0.681c0.375 0 0.681 0.305 0.681 0.681s-0.305 0.681-0.681 0.681z"></path>
<path fill="#0080c9" d="M13.25 14.908c0 1.517 1.233 2.75 2.75 2.75s2.75-1.233 2.75-2.75v-0.075h-5.5v0.075zM18.601 14.982c-0.038 1.402-1.19 2.528-2.601 2.528s-2.562-1.126-2.601-2.528h5.201z"></path>
</svg>
