<!-- Generated by IcoMoon.io -->
<svg version="1.1" xmlns="http://www.w3.org/2000/svg" width="32" height="32" viewBox="0 0 32 32">
<title>telefono</title>
<path fill="#0080c9" d="M20.774 27.377c-1.666 0-3.191-0.683-4.538-2.029l-4.695-4.693-0.013 0.013-4.89-4.892c-1.367-1.367-2.050-2.918-2.029-4.614 0.043-3.501 3.113-6.46 3.142-6.487l0.053-0.051 6.071 6.071-1.673 1.673c-0.356 0.356-0.553 0.828-0.55 1.331 0 0.501 0.196 0.973 0.55 1.327l2.285 2.285 0.013-0.013 2.483 2.483c0.354 0.356 0.826 0.55 1.327 0.55 0 0 0 0 0.002 0 0.501 0 0.975-0.196 1.329-0.55l1.673-1.673 6.071 6.071-0.051 0.053c-0.030 0.032-2.989 3.1-6.487 3.142-0.023 0.002-0.049 0.002-0.075 0.002zM11.452 20.352l4.892 4.89c1.335 1.338 2.854 2.005 4.503 1.984 3.185-0.038 5.924-2.641 6.33-3.044l-5.858-5.86-1.566 1.566c-0.384 0.384-0.894 0.595-1.436 0.595 0 0 0 0-0.002 0-0.542 0-1.052-0.211-1.434-0.595l-2.285-2.285-0.013 0.013-2.483-2.483c-0.384-0.382-0.595-0.892-0.595-1.434s0.211-1.054 0.595-1.438l1.566-1.566-5.86-5.86c-0.403 0.405-3.006 3.145-3.044 6.33-0.021 1.651 0.646 3.168 1.984 4.503l4.693 4.693 0.013-0.009z"></path>
</svg>
